<svg xmlns="http://www.w3.org/2000/svg" width="40" height="40" fill="none" viewBox="0 0 40 40">
    <path fill="#3E3E5F" d="M20 0C8.953.001 0 8.954 0 20c0 11.047 8.953 20 20 20s20-8.953 20-20C40 8.954 31.047.001 20 0zm0 36.928C10.652 36.91 3.09 29.348 3.072 20 3.09 10.652 10.652 3.09 20 3.072c9.348.017 16.91 7.58 16.928 16.928-.017 9.348-7.58 16.91-16.928 16.928z"/>
    <path fill="#3E3E5F" d="M20.142 25.757c.848 0 1.536-.688 1.536-1.536V10.226c0-.849-.688-1.537-1.536-1.537-.849 0-1.537.688-1.537 1.537V24.22c0 .848.688 1.536 1.537 1.536zM20.144 31.62c.88 0 1.593-.713 1.593-1.593s-.713-1.593-1.593-1.593-1.593.713-1.593 1.593.713 1.593 1.593 1.593z"/>
</svg>
