<svg xmlns="http://www.w3.org/2000/svg" width="40" height="40" fill="none" viewBox="0 0 40 40">
    <g clip-path="url(#prefix__clip0)">
        <path fill="#3E3E5F" d="M28.246 10.271L10.26 28.255c-.407.408-.407 1.067 0 1.473.204.204.47.305.737.305s.533-.101.737-.305l17.984-17.984c.407-.407.407-1.066 0-1.473-.407-.406-1.066-.406-1.473 0zm5.887-4.413C30.355 2.08 25.333 0 19.99 0 14.649 0 9.627 2.08 5.849 5.858c-7.797 7.798-7.797 20.487 0 28.284C9.626 37.92 14.648 40 19.991 40c5.341 0 10.364-2.08 14.142-5.858 7.797-7.797 7.797-20.487 0-28.284zM32.66 32.669c-3.385 3.384-7.884 5.248-12.67 5.248-4.785 0-9.285-1.864-12.669-5.248-6.985-6.986-6.985-18.352 0-25.339 3.384-3.383 7.884-5.247 12.67-5.247 4.785 0 9.284 1.864 12.669 5.248 6.985 6.986 6.985 18.352 0 25.338zm-7.253-10.351c-.827 0-1.606.322-2.19.907-.586.586-.909 1.364-.909 2.192 0 .828.322 1.606.908 2.191.585.585 1.363.908 2.191.908.828 0 1.606-.322 2.192-.908 1.208-1.208 1.208-3.174 0-4.382-.586-.586-1.364-.908-2.192-.908zm.719 3.817c-.383.384-1.053.384-1.436 0-.192-.192-.298-.446-.298-.718 0-.272.106-.526.298-.718.192-.192.446-.298.717-.298.272 0 .527.106.719.298.395.396.395 1.04 0 1.436zm-11.553-8.453c.828 0 1.606-.322 2.192-.908.585-.585.907-1.363.907-2.191 0-.828-.322-1.606-.907-2.191-.586-.586-1.364-.908-2.192-.908-.828 0-1.606.322-2.19.908-.586.585-.91 1.363-.908 2.19 0 .828.322 1.607.906 2.192.587.586 1.364.908 2.192.908zm-.718-3.817c.191-.192.447-.298.718-.298.272 0 .527.106.719.298.191.191.297.446.297.718 0 .272-.106.527-.298.718-.383.384-1.051.384-1.436 0-.192-.191-.297-.446-.297-.718 0-.271.105-.527.297-.718z"/>
    </g>
    <defs>
        <clipPath id="prefix__clip0">
            <path fill="#fff" d="M0 0H39.981V40H0z"/>
        </clipPath>
    </defs>
</svg>
