<svg xmlns="http://www.w3.org/2000/svg" width="40" height="40" fill="none" viewBox="0 0 40 40">
    <g fill="#3E3E5F" clip-path="url(#prefix__clip0)">
        <path fill-rule="evenodd" d="M4.453 19.556c.486 0 .88.394.88.888 0 .491-.4.89-.88.89H.88c-.487 0-.881-.395-.881-.89 0-.49.4-.888.88-.888h3.573zm34.666 0c.487 0 .881.394.881.888 0 .491-.4.89-.88.89h-3.573c-.486 0-.88-.395-.88-.89 0-.49.4-.888.88-.888h3.572zM21.333 4.453c0 .486-.394.88-.889.88-.49 0-.888-.4-.888-.88V.88c0-.487.394-.881.888-.881.491 0 .89.4.89.88v3.573zM9.03 8.66c.344.343.343.901-.006 1.25-.347.348-.912.346-1.251.007L5.246 7.392c-.344-.344-.344-.902.006-1.251.347-.348.912-.346 1.25-.006L9.03 8.66zm24.088 1.257c-.344.344-.901.343-1.251-.006-.347-.347-.345-.912-.006-1.252l2.526-2.525c.344-.344.902-.344 1.251.006.347.347.345.912.006 1.25l-2.526 2.527z" clip-rule="evenodd"/>
        <path d="M23.113 28.802c3.625-1.281 6.222-4.738 6.222-8.802 0-5.155-4.179-9.334-9.333-9.334-5.155 0-9.334 4.18-9.334 9.334 0 4.064 2.598 7.52 6.223 8.802v9.42h6.222v-9.42zM8.89 20.444c0-6.58 4.974-11.555 11.555-11.555 5.692 0 10.667 4.974 10.667 11.555 0 3.902-2.519 7.78-6.222 9.778v8c0 .972-.857 1.778-1.755 1.778h-6.245c-.808 0-1.778-.86-1.778-1.778v-8c-3.704-1.998-6.222-5.876-6.222-9.778zm8 10.667h6.222v1.778H16.89V31.11zm0 3.555h6.222v1.778H16.89v-1.778z"/>
    </g>
    <defs>
        <clipPath id="prefix__clip0">
            <path fill="#fff" d="M0 0H40V39.999H0z"/>
        </clipPath>
    </defs>
</svg>
