<svg xmlns="http://www.w3.org/2000/svg" width="612" height="421" fill="none" viewBox="0 0 612 421">
    <g filter="url(#prefix__filter0_d)">
        <rect width="364" height="134" x="107" y="16" fill="#fff" rx="4"/>
    </g>
    <path fill="#3E3E5F" d="M142.566 44.74c-3.387 0-5.504 2.415-5.504 6.267 0 3.835 2.067 6.275 5.504 6.275 3.42 0 5.478-2.448 5.478-6.275 0-3.843-2.075-6.267-5.478-6.267zm0 1.378c2.449 0 3.943 1.892 3.943 4.889 0 2.971-1.486 4.897-3.943 4.897-2.49 0-3.968-1.926-3.968-4.897 0-2.997 1.527-4.89 3.968-4.89zm15.199 1.934h-1.528l-2.448 7.37h-.133l-2.449-7.37h-1.527L152.992 57h1.461l3.312-8.948zm5.146 1.104c1.42 0 2.366 1.046 2.399 2.631h-4.931c.108-1.585 1.104-2.631 2.532-2.631zm2.358 5.528c-.374.789-1.154 1.212-2.308 1.212-1.519 0-2.507-1.12-2.582-2.889v-.066h6.433v-.548c0-2.78-1.469-4.499-3.884-4.499-2.457 0-4.034 1.826-4.034 4.64 0 2.83 1.552 4.624 4.034 4.624 1.959 0 3.337-.938 3.768-2.474h-1.427zM169.054 57h1.427v-5.545c0-1.262.988-2.175 2.35-2.175.282 0 .796.05.913.083v-1.428c-.183-.024-.482-.041-.714-.041-1.187 0-2.217.614-2.482 1.486h-.133v-1.328h-1.361V57zm9.23-1.096c-1.037 0-1.809-.531-1.809-1.444 0-.897.597-1.37 1.959-1.461l2.407-.158v.822c0 1.278-1.088 2.241-2.557 2.241zm-.265 1.254c1.195 0 2.174-.523 2.755-1.478h.133V57h1.362v-6.126c0-1.86-1.221-2.98-3.404-2.98-1.909 0-3.32.946-3.511 2.382h1.444c.2-.705.947-1.112 2.017-1.112 1.337 0 2.026.606 2.026 1.71v.813l-2.582.158c-2.083.125-3.262 1.046-3.262 2.648 0 1.635 1.287 2.665 3.022 2.665zm6.972-.158h1.428V44.499h-1.428V57zm4.283 0h1.428V44.499h-1.428V57zm20.985 0V45.022h-1.735l-4.101 9.911h-.132l-4.101-9.911h-1.735V57h1.395v-9.148h.099l3.777 9.065h1.262l3.777-9.065h.099V57h1.395zm5.628-1.096c-1.038 0-1.81-.531-1.81-1.444 0-.897.598-1.37 1.959-1.461l2.407-.158v.822c0 1.278-1.087 2.241-2.556 2.241zm-.266 1.254c1.195 0 2.175-.523 2.756-1.478h.133V57h1.361v-6.126c0-1.86-1.22-2.98-3.403-2.98-1.909 0-3.321.946-3.511 2.382h1.444c.199-.705.946-1.112 2.017-1.112 1.336 0 2.025.606 2.025 1.71v.813l-2.581.158c-2.084.125-3.262 1.046-3.262 2.648 0 1.635 1.286 2.665 3.021 2.665zm6.89-.158h1.427v-5.545c0-1.262.988-2.175 2.35-2.175.282 0 .796.05.913.083v-1.428c-.183-.024-.482-.041-.714-.041-1.187 0-2.216.614-2.482 1.486h-.133v-1.328h-1.361V57zm8.118-5.039h-.133V44.5h-1.428V57h1.428v-3.395l.855-.797L234.705 57h1.817l-4.108-5.113 3.851-3.835h-1.751l-3.885 3.91zm7.047-1.46c0 1.294.764 2.017 2.441 2.423l1.535.374c.955.232 1.42.647 1.42 1.262 0 .821-.864 1.394-2.067 1.394-1.146 0-1.859-.481-2.1-1.237h-1.469c.157 1.486 1.527 2.44 3.519 2.44 2.034 0 3.586-1.103 3.586-2.705 0-1.287-.813-2.017-2.499-2.424l-1.377-.332c-1.055-.258-1.553-.64-1.553-1.254 0-.797.83-1.336 1.893-1.336 1.079 0 1.776.473 1.967 1.187h1.411c-.191-1.47-1.494-2.399-3.37-2.399-1.901 0-3.337 1.12-3.337 2.607z"/>
    <path fill="#3E3E5F" fill-opacity=".7" d="M179.482 126.199c1.799 0 3.135-1.002 3.416-2.554h-1.072c-.269.978-1.166 1.582-2.344 1.582-1.628 0-2.648-1.331-2.648-3.452s1.02-3.457 2.643-3.457c1.166 0 2.068.686 2.349 1.776h1.072c-.252-1.629-1.64-2.748-3.421-2.748-2.297 0-3.727 1.699-3.727 4.429 0 2.725 1.436 4.424 3.732 4.424zm10.166-6.515h-1.007v3.738c0 1.107-.61 1.769-1.723 1.769-1.008 0-1.43-.527-1.43-1.664v-3.843h-1.008v4.089c0 1.495.739 2.338 2.157 2.338.967 0 1.64-.398 1.957-1.101h.094v.99h.96v-6.316zm2.321-1.635v1.635h-1.02v.843h1.02v3.832c0 1.207.521 1.688 1.822 1.688.199 0 .393-.024.592-.059v-.849c-.188.017-.287.023-.469.023-.656 0-.937-.316-.937-1.06v-3.575h1.406v-.843h-1.406v-1.635h-1.008zm7.506 5.027v-.955h-3.844v.955h3.844zm4.453 3.035c1.799 0 2.912-1.242 2.912-3.269 0-2.033-1.113-3.27-2.912-3.27s-2.912 1.237-2.912 3.27c0 2.027 1.113 3.269 2.912 3.269zm0-.908c-1.196 0-1.869-.867-1.869-2.361 0-1.5.673-2.362 1.869-2.362 1.195 0 1.869.862 1.869 2.362 0 1.494-.674 2.361-1.869 2.361zm4.916.797h1.008v-5.473h1.447v-.843h-1.447v-.674c0-.692.304-1.043 1.031-1.043.181 0 .351.006.474.029v-.82c-.211-.041-.433-.059-.679-.059-1.201 0-1.834.604-1.834 1.863v.704h-1.049v.843h1.049V126zm4.347 0h1.008v-5.473h1.447v-.843h-1.447v-.674c0-.692.305-1.043 1.031-1.043.182 0 .352.006.475.029v-.82c-.211-.041-.434-.059-.68-.059-1.201 0-1.834.604-1.834 1.863v.704h-1.048v.843h1.048V126zm4.758.059c.422 0 .762-.346.762-.762 0-.422-.34-.762-.762-.762-.416 0-.761.34-.761.762 0 .416.345.762.761.762zm0-4.506c.422 0 .762-.346.762-.762 0-.422-.34-.762-.762-.762-.416 0-.761.34-.761.762 0 .416.345.762.761.762zm8.133 4.447h1.055v-8.455h-1.049l-2.25 1.617v1.113l2.15-1.558h.094V126zm5.602 0h1.054v-8.455h-1.049l-2.25 1.617v1.113l2.151-1.558h.094V126zm3.527-6.076v.006h1.019v-.006c0-.996.668-1.658 1.659-1.658.931 0 1.652.65 1.652 1.494 0 .679-.264 1.136-1.353 2.32l-2.924 3.193V126h5.472v-.949h-3.961v-.094l2.034-2.186c1.388-1.488 1.787-2.173 1.787-3.052 0-1.342-1.16-2.373-2.678-2.373-1.57 0-2.707 1.078-2.707 2.578zM250.984 126v-8.455h-1.224l-2.895 6.996h-.094l-2.894-6.996h-1.225V126h.985v-6.457h.07l2.666 6.398h.891l2.666-6.398h.07V126h.984z"/>
    <path fill="#3E3E5F" d="M361.891 85.924v.006h1.019v-.006c0-.996.668-1.658 1.658-1.658.932 0 1.653.65 1.653 1.494 0 .68-.264 1.136-1.354 2.32l-2.924 3.193V92h5.473v-.95h-3.961v-.093l2.033-2.185c1.389-1.489 1.787-2.174 1.787-3.053 0-1.342-1.16-2.373-2.677-2.373-1.571 0-2.707 1.078-2.707 2.578zm10.195 6.275c1.793 0 3.047-1.013 3.047-2.46 0-1.102-.697-1.958-1.758-2.157v-.094c.873-.24 1.412-.96 1.412-1.886 0-1.319-1.119-2.256-2.701-2.256s-2.701.937-2.701 2.256c0 .92.551 1.652 1.412 1.886v.094c-1.061.2-1.758 1.055-1.758 2.156 0 1.448 1.254 2.461 3.047 2.461zm0-.902c-1.172 0-1.981-.668-1.981-1.635s.809-1.635 1.981-1.635c1.172 0 1.98.668 1.98 1.635s-.808 1.635-1.98 1.635zm0-4.16c-.996 0-1.664-.575-1.664-1.436 0-.873.662-1.453 1.664-1.453 1.002 0 1.664.58 1.664 1.453 0 .862-.668 1.436-1.664 1.436zm7.617 5.062c1.899 0 2.988-1.605 2.988-4.412 0-2.8-1.107-4.441-2.988-4.441-1.892 0-3 1.635-3 4.423 0 2.813 1.096 4.43 3 4.43zm0-.92c-1.248 0-1.939-1.248-1.939-3.51 0-2.232.703-3.498 1.939-3.498 1.236 0 1.928 1.254 1.928 3.498 0 2.268-.68 3.51-1.928 3.51zm13.184.721v-8.455h-1.225l-2.894 6.996h-.094l-2.895-6.996h-1.224V92h.984v-6.457h.07l2.666 6.398h.891l2.666-6.398h.07V92h.985zm1.968 1.799l3.106-10.623h-.891l-3.105 10.623h.89zm5.778-5.696h1.072c1.201 0 1.945.61 1.945 1.588 0 .926-.791 1.588-1.904 1.588-1.09 0-1.851-.58-1.945-1.482h-1.02c.076 1.447 1.26 2.402 2.977 2.402 1.67 0 2.976-1.084 2.976-2.478 0-1.155-.697-1.952-1.845-2.098v-.094c.925-.222 1.482-.96 1.482-1.968 0-1.23-1.178-2.215-2.654-2.215-1.612 0-2.66.902-2.766 2.367h1.026c.087-.908.726-1.447 1.699-1.447.972 0 1.623.574 1.623 1.435 0 .88-.68 1.5-1.641 1.5h-1.025v.903zm8.783 4.09c1.734 0 2.965-1.212 2.965-2.912 0-1.64-1.166-2.83-2.777-2.83-1.008 0-1.834.48-2.25 1.301h-.094c.058-2.25.838-3.469 2.215-3.469.832 0 1.47.48 1.699 1.272h1.084c-.27-1.36-1.336-2.21-2.772-2.21-2.068 0-3.252 1.665-3.252 4.571 0 .932.135 1.711.411 2.356.527 1.242 1.5 1.921 2.771 1.921zm-.012-.925c-1.084 0-1.91-.856-1.91-1.987 0-1.119.803-1.916 1.922-1.916 1.119 0 1.898.797 1.898 1.951 0 1.108-.826 1.952-1.91 1.952zm7.518.931c1.898 0 2.988-1.605 2.988-4.412 0-2.8-1.107-4.441-2.988-4.441-1.893 0-3 1.635-3 4.423 0 2.813 1.096 4.43 3 4.43zm0-.92c-1.248 0-1.94-1.248-1.94-3.51 0-2.232.704-3.498 1.94-3.498s1.928 1.254 1.928 3.498c0 2.268-.68 3.51-1.928 3.51zm13.183.721v-8.455h-1.224l-2.895 6.996h-.093l-2.895-6.996h-1.225V92h.985v-6.457h.07l2.666 6.398h.891l2.666-6.398h.07V92h.984z"/>
    <rect width="208" height="20" x="137" y="78" fill="#3E3E5F" fill-opacity=".12" rx="2"/>
    <rect width="156" height="20" x="137" y="78" fill="#FFB400" rx="2"/>
    <path stroke="#3E3E5F" d="M214.5 66.117L214.5 109.679"/>
    <g filter="url(#prefix__filter1_d)">
        <rect width="298" height="162" x="280" y="201" fill="#fff" rx="4"/>
    </g>
    <path fill="#3E3E5F" d="M313.313 242h1.569l-4.416-11.978h-1.477L304.573 242h1.569l1.203-3.428h4.765l1.203 3.428zm-3.652-10.044h.133l1.876 5.346h-3.885l1.876-5.346zm7.238-1.22v2.316h-1.444v1.195h1.444v5.429c0 1.71.739 2.39 2.582 2.39.282 0 .556-.033.838-.083v-1.203c-.265.025-.406.033-.664.033-.929 0-1.328-.448-1.328-1.502v-5.064h1.992v-1.195h-1.992v-2.316h-1.428zm6.176 0v2.316h-1.444v1.195h1.444v5.429c0 1.71.739 2.39 2.582 2.39.282 0 .556-.033.838-.083v-1.203c-.266.025-.407.033-.664.033-.93 0-1.328-.448-1.328-1.502v-5.064h1.992v-1.195h-1.992v-2.316h-1.428zm9.015 3.42c1.419 0 2.366 1.046 2.399 2.631h-4.931c.108-1.585 1.104-2.631 2.532-2.631zm2.357 5.528c-.373.789-1.154 1.212-2.307 1.212-1.519 0-2.507-1.121-2.582-2.889v-.066h6.433v-.548c0-2.781-1.469-4.499-3.885-4.499-2.457 0-4.034 1.826-4.034 4.64 0 2.831 1.553 4.624 4.034 4.624 1.959 0 3.337-.938 3.769-2.474h-1.428zm3.785 2.316h1.428v-5.545c0-1.262.905-2.274 2.075-2.274 1.129 0 1.868.68 1.868 1.743V242h1.428v-5.752c0-1.138.83-2.067 2.075-2.067 1.262 0 1.884.647 1.884 1.967V242h1.428v-6.184c0-1.876-1.021-2.922-2.847-2.922-1.237 0-2.258.623-2.739 1.569h-.133c-.415-.93-1.262-1.569-2.474-1.569-1.195 0-2.092.573-2.498 1.569h-.133v-1.411h-1.362V242zm19.15-9.106c-1.22 0-2.291.623-2.863 1.652h-.133v-1.494h-1.362v11.936h1.428v-4.333h.133c.49.947 1.519 1.503 2.797 1.503 2.275 0 3.761-1.835 3.761-4.632 0-2.814-1.478-4.632-3.761-4.632zm-.34 7.977c-1.61 0-2.631-1.295-2.631-3.345 0-2.059 1.021-3.345 2.639-3.345 1.636 0 2.615 1.253 2.615 3.345 0 2.092-.979 3.345-2.623 3.345zm6.939-10.135v2.316h-1.444v1.195h1.444v5.429c0 1.71.739 2.39 2.582 2.39.282 0 .556-.033.838-.083v-1.203c-.265.025-.406.033-.664.033-.929 0-1.328-.448-1.328-1.502v-5.064h1.992v-1.195h-1.992v-2.316h-1.428zM313.313 310h1.569l-4.416-11.978h-1.477L304.573 310h1.569l1.203-3.428h4.765l1.203 3.428zm-3.652-10.044h.133l1.876 5.346h-3.885l1.876-5.346zm14.045 3.835c-.249-1.594-1.577-2.897-3.752-2.897-2.507 0-4.1 1.81-4.1 4.599 0 2.847 1.602 4.665 4.108 4.665 2.15 0 3.487-1.212 3.744-2.856h-1.444c-.266 1.013-1.104 1.569-2.308 1.569-1.594 0-2.623-1.311-2.623-3.378 0-2.026 1.013-3.312 2.623-3.312 1.287 0 2.075.722 2.308 1.61h1.444zm9.513 0c-.249-1.594-1.577-2.897-3.752-2.897-2.507 0-4.101 1.81-4.101 4.599 0 2.847 1.602 4.665 4.109 4.665 2.15 0 3.486-1.212 3.744-2.856h-1.445c-.265 1.013-1.104 1.569-2.307 1.569-1.594 0-2.623-1.311-2.623-3.378 0-2.026 1.012-3.312 2.623-3.312 1.286 0 2.075.722 2.307 1.61h1.445zm9.346-2.739h-1.427v5.296c0 1.569-.864 2.506-2.441 2.506-1.427 0-2.025-.747-2.025-2.357v-5.445h-1.428v5.794c0 2.116 1.046 3.312 3.055 3.312 1.369 0 2.324-.565 2.772-1.561h.133V310h1.361v-8.948zm2.69 8.948h1.428v-5.545c0-1.262.987-2.175 2.349-2.175.282 0 .797.05.913.083v-1.427c-.183-.025-.482-.042-.714-.042-1.187 0-2.216.614-2.482 1.486h-.133v-1.328h-1.361V310zm9.23-1.096c-1.037 0-1.809-.531-1.809-1.444 0-.897.597-1.37 1.959-1.461l2.407-.158v.822c0 1.278-1.087 2.241-2.557 2.241zm-.265 1.254c1.195 0 2.175-.523 2.756-1.478h.132V310h1.362v-6.126c0-1.859-1.22-2.98-3.404-2.98-1.909 0-3.32.946-3.511 2.382H353c.199-.705.946-1.112 2.017-1.112 1.336 0 2.025.606 2.025 1.71v.814l-2.582.157c-2.083.125-3.262 1.046-3.262 2.648 0 1.635 1.287 2.665 3.022 2.665zm14.294-6.367c-.249-1.594-1.577-2.897-3.752-2.897-2.507 0-4.101 1.81-4.101 4.599 0 2.847 1.602 4.665 4.109 4.665 2.15 0 3.486-1.212 3.744-2.856h-1.445c-.265 1.013-1.104 1.569-2.307 1.569-1.594 0-2.623-1.311-2.623-3.378 0-2.026 1.012-3.312 2.623-3.312 1.286 0 2.075.722 2.307 1.61h1.445zm2.872 9.446c1.585 0 2.299-.614 3.063-2.689l3.494-9.496h-1.519l-2.448 7.363h-.133l-2.457-7.363h-1.544l3.312 8.956-.166.532c-.374 1.079-.822 1.469-1.644 1.469-.199 0-.423-.009-.597-.042v1.221c.199.033.448.049.639.049zM532.645 267.193c2.068 0 3.251-1.664 3.251-4.57 0-.932-.134-1.711-.41-2.355-.527-1.248-1.506-1.922-2.771-1.922-1.735 0-2.965 1.213-2.965 2.912 0 1.64 1.166 2.83 2.777 2.83 1.008 0 1.834-.481 2.25-1.301h.094c-.059 2.25-.838 3.469-2.215 3.469-.832 0-1.47-.481-1.699-1.272h-1.084c.27 1.36 1.336 2.209 2.772 2.209zm.07-4.019c-1.119 0-1.899-.797-1.899-1.951 0-1.108.827-1.952 1.911-1.952s1.91.856 1.91 1.987c0 1.119-.803 1.916-1.922 1.916zm7.723 4.025c1.898 0 2.988-1.605 2.988-4.412 0-2.801-1.108-4.441-2.988-4.441-1.893 0-3 1.634-3 4.424 0 2.812 1.095 4.429 3 4.429zm0-.92c-1.249 0-1.94-1.248-1.94-3.509 0-2.233.703-3.499 1.94-3.499 1.236 0 1.927 1.254 1.927 3.499 0 2.267-.679 3.509-1.927 3.509zm7.845-5.847c0-1.196-.744-2.034-1.799-2.034-1.054 0-1.804.844-1.804 2.034 0 1.195.75 2.039 1.804 2.039 1.055 0 1.799-.844 1.799-2.039zm-1.799 1.289c-.521 0-.867-.51-.867-1.289 0-.78.34-1.284.867-1.284.528 0 .862.493.862 1.284 0 .773-.346 1.289-.862 1.289zm-.093 5.279l2.9-3.967 3.281-4.488h-1.066l-2.965 4.049-3.229 4.406h1.079zm6.785-1.893c0-1.195-.744-2.033-1.799-2.033s-1.805.844-1.805 2.033c0 1.196.75 2.039 1.805 2.039s1.799-.843 1.799-2.039zm-1.799 1.289c-.522 0-.867-.509-.867-1.289 0-.779.34-1.283.867-1.283.527 0 .861.492.861 1.283 0 .774-.345 1.289-.861 1.289zM532.832 335.199c1.793 0 3.047-1.013 3.047-2.461 0-1.101-.697-1.957-1.758-2.156v-.094c.873-.24 1.412-.961 1.412-1.886 0-1.319-1.119-2.256-2.701-2.256s-2.701.937-2.701 2.256c0 .919.551 1.652 1.412 1.886v.094c-1.061.199-1.758 1.055-1.758 2.156 0 1.448 1.254 2.461 3.047 2.461zm0-.902c-1.172 0-1.98-.668-1.98-1.635s.808-1.635 1.98-1.635 1.98.668 1.98 1.635-.808 1.635-1.98 1.635zm0-4.16c-.996 0-1.664-.575-1.664-1.436 0-.873.662-1.453 1.664-1.453 1.002 0 1.664.58 1.664 1.453 0 .861-.668 1.436-1.664 1.436zm4.723-1.213v.006h1.019v-.006c0-.996.668-1.658 1.658-1.658.932 0 1.653.65 1.653 1.494 0 .679-.264 1.136-1.354 2.32l-2.924 3.193V335h5.473v-.949h-3.961v-.094l2.033-2.186c1.389-1.488 1.787-2.173 1.787-3.052 0-1.342-1.16-2.373-2.677-2.373-1.571 0-2.707 1.078-2.707 2.578zm10.435-.492c0-1.196-.744-2.034-1.799-2.034-1.054 0-1.804.844-1.804 2.034 0 1.195.75 2.039 1.804 2.039 1.055 0 1.799-.844 1.799-2.039zm-1.799 1.289c-.521 0-.867-.51-.867-1.289 0-.78.34-1.284.867-1.284.528 0 .862.493.862 1.284 0 .773-.346 1.289-.862 1.289zm-.093 5.279l2.9-3.967 3.281-4.488h-1.066l-2.965 4.049L545.02 335h1.078zm6.785-1.893c0-1.195-.744-2.033-1.799-2.033s-1.805.844-1.805 2.033c0 1.196.75 2.039 1.805 2.039s1.799-.843 1.799-2.039zm-1.799 1.289c-.522 0-.867-.509-.867-1.289 0-.779.34-1.283.867-1.283.527 0 .861.492.861 1.283 0 .774-.345 1.289-.861 1.289z"/>
    <rect width="208" height="12" x="305" y="257" fill="#3E3E5F" fill-opacity=".12" rx="2"/>
    <rect width="208" height="12" x="305" y="325" fill="#3E3E5F" fill-opacity=".12" rx="2"/>
    <rect width="191" height="12" x="305" y="257" fill="#3E3E5F" rx="2"/>
    <rect width="168" height="12" x="305" y="325" fill="#4CECC9" rx="2"/>
    <rect width="144" height="134" y="215" fill="#fff" fill-opacity=".2" rx="4"/>
    <rect width="143" height="133" x=".5" y="215.5" stroke="#FFB400" stroke-opacity=".2" rx="3.5"/>
    <rect width="144" height="134" x="100" y="215" fill="#fff" fill-opacity=".2" rx="4"/>
    <rect width="143" height="133" x="100.5" y="215.5" stroke="#EC4C6F" stroke-opacity=".2" rx="3.5"/>
    <path fill="#3E3E5F" fill-opacity=".5" d="M17.078 240.545V249h1.055v-3.018h2.127c1.588 0 2.718-1.119 2.718-2.701 0-1.611-1.107-2.736-2.707-2.736h-3.193zm1.055.937h1.863c1.225 0 1.899.639 1.899 1.799 0 1.119-.698 1.764-1.899 1.764h-1.863v-3.563zM24.637 249h1.008v-3.738c0-1.067.62-1.782 1.752-1.782.955 0 1.459.557 1.459 1.676V249h1.007v-4.09c0-1.482-.843-2.338-2.18-2.338-.966 0-1.628.41-1.945 1.108h-.093v-3.504h-1.008V249zm7.37 2.285c1.12 0 1.624-.433 2.163-1.898l2.467-6.703h-1.072l-1.73 5.197h-.093l-1.734-5.197h-1.09l2.338 6.322-.117.375c-.264.762-.58 1.037-1.16 1.037-.141 0-.3-.006-.422-.029v.861c.14.023.316.035.45.035zm5.655-6.873c0 .914.54 1.424 1.723 1.711l1.084.264c.674.164 1.002.457 1.002.89 0 .58-.61.985-1.46.985-.808 0-1.312-.34-1.482-.873h-1.037c.111 1.049 1.078 1.722 2.485 1.722 1.435 0 2.53-.779 2.53-1.91 0-.908-.573-1.424-1.763-1.711l-.972-.234c-.745-.182-1.096-.451-1.096-.885 0-.562.586-.943 1.336-.943.761 0 1.254.334 1.388.838h.997c-.135-1.037-1.055-1.694-2.38-1.694-1.341 0-2.355.791-2.355 1.84zM44.113 249h1.008v-6.316h-1.008V249zm.504-7.6c.387 0 .703-.316.703-.703 0-.386-.316-.703-.703-.703-.386 0-.703.317-.703.703 0 .387.316.703.703.703zm7.653 3.217c-.176-1.125-1.114-2.045-2.649-2.045-1.77 0-2.894 1.278-2.894 3.246 0 2.01 1.13 3.293 2.9 3.293 1.517 0 2.46-.855 2.642-2.015H51.25c-.188.715-.78 1.107-1.629 1.107-1.125 0-1.852-.926-1.852-2.385 0-1.429.715-2.338 1.852-2.338.908 0 1.465.51 1.629 1.137h1.02zm1.341-.205c0 .914.54 1.424 1.723 1.711l1.084.264c.674.164 1.002.457 1.002.89 0 .58-.61.985-1.46.985-.808 0-1.312-.34-1.482-.873h-1.037c.112 1.049 1.078 1.722 2.485 1.722 1.435 0 2.531-.779 2.531-1.91 0-.908-.574-1.424-1.764-1.711l-.972-.234c-.744-.182-1.096-.451-1.096-.885 0-.562.586-.943 1.336-.943.762 0 1.254.334 1.389.838h.996c-.135-1.037-1.055-1.694-2.38-1.694-1.341 0-2.355.791-2.355 1.84zM178.176 244.617c-.176-1.125-1.114-2.045-2.649-2.045-1.769 0-2.894 1.278-2.894 3.246 0 2.01 1.131 3.293 2.9 3.293 1.518 0 2.461-.855 2.643-2.015h-1.02c-.187.715-.779 1.107-1.629 1.107-1.125 0-1.851-.926-1.851-2.385 0-1.429.715-2.338 1.851-2.338.909 0 1.465.51 1.629 1.137h1.02zm1.547 4.383h1.007v-3.738c0-1.067.622-1.782 1.752-1.782.956 0 1.459.557 1.459 1.676V249h1.008v-4.09c0-1.482-.844-2.338-2.179-2.338-.967 0-1.629.41-1.946 1.108h-.094v-3.504h-1.007V249zm9.586-5.537c1.002 0 1.67.738 1.693 1.857h-3.481c.077-1.119.78-1.857 1.788-1.857zm1.664 3.902c-.264.557-.815.856-1.629.856-1.073 0-1.77-.791-1.823-2.039v-.047h4.541v-.387c0-1.963-1.037-3.176-2.742-3.176-1.734 0-2.847 1.289-2.847 3.276 0 1.998 1.095 3.263 2.847 3.263 1.383 0 2.356-.662 2.66-1.746h-1.007zm2.672 1.635h1.007v-3.914c0-.891.639-1.606 1.465-1.606.797 0 1.319.481 1.319 1.231V249h1.007v-4.061c0-.802.586-1.459 1.465-1.459.891 0 1.33.458 1.33 1.389V249h1.008v-4.365c0-1.324-.721-2.063-2.01-2.063-.873 0-1.593.44-1.933 1.108h-.094c-.293-.657-.891-1.108-1.746-1.108-.844 0-1.477.405-1.764 1.108h-.094v-.996h-.96V249zm10.464 0h1.008v-6.316h-1.008V249zm.504-7.6c.387 0 .703-.316.703-.703 0-.386-.316-.703-.703-.703-.386 0-.703.317-.703.703 0 .387.317.703.703.703zm2.28 3.012c0 .914.539 1.424 1.722 1.711l1.084.264c.674.164 1.002.457 1.002.89 0 .58-.609.985-1.459.985-.808 0-1.312-.34-1.482-.873h-1.037c.111 1.049 1.078 1.722 2.484 1.722 1.436 0 2.531-.779 2.531-1.91 0-.908-.574-1.424-1.763-1.711l-.973-.234c-.744-.182-1.096-.451-1.096-.885 0-.562.586-.943 1.336-.943.762 0 1.254.334 1.389.838h.996c-.135-1.037-1.055-1.694-2.379-1.694-1.342 0-2.355.791-2.355 1.84zm6.791-3.363v1.635h-1.02v.843h1.02v3.832c0 1.207.521 1.688 1.822 1.688.199 0 .392-.024.592-.059v-.849c-.188.017-.287.023-.469.023-.656 0-.938-.316-.938-1.06v-3.575h1.407v-.843h-1.407v-1.635h-1.007zm3.937 7.951h1.008v-3.914c0-.891.697-1.535 1.658-1.535.199 0 .563.035.645.058v-1.007c-.129-.018-.34-.03-.504-.03-.838 0-1.565.434-1.752 1.049h-.094v-.937h-.961V249zm5.109 2.285c1.12 0 1.624-.433 2.163-1.898l2.466-6.703h-1.072l-1.728 5.197h-.094l-1.735-5.197h-1.089l2.338 6.322-.118.375c-.263.762-.58 1.037-1.16 1.037-.14 0-.299-.006-.422-.029v.861c.141.023.317.035.451.035z"/>
    <g filter="url(#prefix__filter2_d)">
        <rect width="164" height="182" x="40" y="191" fill="#fff" rx="4"/>
        <rect width="163" height="181" x="40.5" y="191.5" stroke="#4DADF7" rx="3.5"/>
    </g>
    <path fill="#3E3E5F" d="M109.331 232v-11.978h-1.735l-4.1 9.911h-.133l-4.1-9.911h-1.736V232h1.395v-9.147h.1l3.776 9.064h1.262l3.777-9.064h.1V232h1.394zm5.628-1.096c-1.038 0-1.81-.531-1.81-1.444 0-.897.598-1.37 1.959-1.461l2.408-.158v.822c0 1.278-1.088 2.241-2.557 2.241zm-.266 1.254c1.196 0 2.175-.523 2.756-1.478h.133V232h1.361v-6.126c0-1.859-1.22-2.98-3.403-2.98-1.909 0-3.32.946-3.511 2.382h1.444c.199-.705.946-1.112 2.017-1.112 1.337 0 2.026.606 2.026 1.71v.814l-2.582.157c-2.083.125-3.262 1.046-3.262 2.648 0 1.635 1.286 2.665 3.021 2.665zm7.488-11.422v2.316h-1.445v1.195h1.445v5.429c0 1.71.738 2.39 2.581 2.39.282 0 .556-.033.839-.083v-1.203c-.266.025-.407.033-.664.033-.93 0-1.329-.448-1.329-1.502v-5.064h1.993v-1.195h-1.993v-2.316h-1.427zM127.842 232h1.428v-5.296c0-1.511.879-2.523 2.481-2.523 1.353 0 2.067.788 2.067 2.374V232h1.428v-5.794c0-2.1-1.195-3.312-3.088-3.312-1.369 0-2.307.581-2.756 1.569h-.132v-4.964h-1.428V232zm9.803-6.5c0 1.295.764 2.018 2.44 2.424l1.536.374c.955.232 1.42.647 1.42 1.262 0 .821-.864 1.394-2.067 1.394-1.146 0-1.86-.481-2.1-1.237h-1.47c.158 1.486 1.528 2.441 3.52 2.441 2.034 0 3.586-1.104 3.586-2.706 0-1.287-.814-2.017-2.499-2.424l-1.378-.332c-1.054-.258-1.552-.639-1.552-1.254 0-.796.83-1.336 1.893-1.336 1.079 0 1.776.473 1.967 1.187h1.411c-.191-1.469-1.494-2.399-3.37-2.399-1.901 0-3.337 1.121-3.337 2.606z"/>
    <circle cx="121" cy="301" r="47.5" fill="#fff" stroke="#4CECC9"/>
    <path fill="#3E3E5F" d="M109.403 306h1.2l4.075-8.1v-1.06h-6.062v1.022h4.9v.089L109.403 306zm9.928.216c1.898 0 3.199-1.27 3.199-3.13 0-1.802-1.219-3.065-2.958-3.065-.844 0-1.492.26-1.936.78h-.102l.26-2.939h4.215v-1.022h-5.11l-.501 5.193h1.073c.374-.654 1.06-1.029 1.891-1.029 1.2 0 2.025.857 2.025 2.114s-.819 2.095-2.044 2.095c-1.079 0-1.866-.66-1.968-1.651h-1.123c.102 1.581 1.346 2.654 3.079 2.654zm8.417-7.332c0-1.295-.807-2.202-1.949-2.202-1.143 0-1.955.914-1.955 2.202 0 1.295.812 2.209 1.955 2.209 1.142 0 1.949-.914 1.949-2.209zm-1.949 1.397c-.565 0-.94-.552-.94-1.397 0-.844.369-1.39.94-1.39s.933.533.933 1.39c0 .838-.375 1.397-.933 1.397zm-.102 5.719l3.142-4.297 3.555-4.863h-1.155l-3.212 4.387-3.498 4.773h1.168zm7.351-2.05c0-1.295-.806-2.203-1.949-2.203-1.142 0-1.955.914-1.955 2.203 0 1.295.813 2.209 1.955 2.209 1.143 0 1.949-.914 1.949-2.209zm-1.949 1.396c-.565 0-.939-.552-.939-1.396 0-.845.368-1.39.939-1.39s.933.533.933 1.39c0 .838-.374 1.396-.933 1.396z"/>
    <circle cx="121" cy="301" r="42" stroke="#4DADF7" stroke-width="12"/>
    <mask id="prefix__a" fill="#fff">
        <path d="M73 301c0-12.73 5.057-24.939 14.059-33.941C96.06 258.057 108.27 253 121 253v11.977c-9.554 0-18.716 3.795-25.472 10.551S84.977 291.446 84.977 301H73z"/>
    </mask>
    <path stroke="#F7F7F7" stroke-width="24" d="M73 301c0-12.73 5.057-24.939 14.059-33.941C96.06 258.057 108.27 253 121 253v11.977c-9.554 0-18.716 3.795-25.472 10.551S84.977 291.446 84.977 301H73z" mask="url(#prefix__a)"/>
    <defs>
        <filter id="prefix__filter0_d" width="428" height="198" x="77" y="0" color-interpolation-filters="sRGB" filterUnits="userSpaceOnUse">
            <feFlood flood-opacity="0" result="BackgroundImageFix"/>
            <feColorMatrix in="SourceAlpha" values="0 0 0 0 0 0 0 0 0 0 0 0 0 0 0 0 0 0 127 0"/>
            <feOffset dx="2" dy="16"/>
            <feGaussianBlur stdDeviation="16"/>
            <feColorMatrix values="0 0 0 0 0 0 0 0 0 0 0 0 0 0 0 0 0 0 0.12 0"/>
            <feBlend in2="BackgroundImageFix" result="effect1_dropShadow"/>
            <feBlend in="SourceGraphic" in2="effect1_dropShadow" result="shape"/>
        </filter>
        <filter id="prefix__filter1_d" width="362" height="226" x="250" y="185" color-interpolation-filters="sRGB" filterUnits="userSpaceOnUse">
            <feFlood flood-opacity="0" result="BackgroundImageFix"/>
            <feColorMatrix in="SourceAlpha" values="0 0 0 0 0 0 0 0 0 0 0 0 0 0 0 0 0 0 127 0"/>
            <feOffset dx="2" dy="16"/>
            <feGaussianBlur stdDeviation="16"/>
            <feColorMatrix values="0 0 0 0 0 0 0 0 0 0 0 0 0 0 0 0 0 0 0.12 0"/>
            <feBlend in2="BackgroundImageFix" result="effect1_dropShadow"/>
            <feBlend in="SourceGraphic" in2="effect1_dropShadow" result="shape"/>
        </filter>
        <filter id="prefix__filter2_d" width="228" height="246" x="10" y="175" color-interpolation-filters="sRGB" filterUnits="userSpaceOnUse">
            <feFlood flood-opacity="0" result="BackgroundImageFix"/>
            <feColorMatrix in="SourceAlpha" values="0 0 0 0 0 0 0 0 0 0 0 0 0 0 0 0 0 0 127 0"/>
            <feOffset dx="2" dy="16"/>
            <feGaussianBlur stdDeviation="16"/>
            <feColorMatrix values="0 0 0 0 0 0 0 0 0 0 0 0 0 0 0 0 0 0 0.12 0"/>
            <feBlend in2="BackgroundImageFix" result="effect1_dropShadow"/>
            <feBlend in="SourceGraphic" in2="effect1_dropShadow" result="shape"/>
        </filter>
    </defs>
</svg>
