<svg xmlns="http://www.w3.org/2000/svg" width="703" height="494" fill="none" viewBox="0 0 703 494">
    <rect width="296" height="128" x="407" y="38" fill="#fff" rx="4"/>
    <rect width="295" height="127" x="407.5" y="38.5" stroke="#3E3E5F" stroke-opacity=".12" rx="3.5"/>
    <rect width="40" height="40" x="483" y="102" fill="#7B6DFD" fill-opacity=".2" rx="4"/>
    <g clip-path="url(#prefix__clip0)">
        <path fill="#4CECC9" d="M457.343 114.328l-2.507-2.507-.836.836 3.343 3.343 7.164-7.164-.835-.836-6.329 6.328z"/>
    </g>
    <g clip-path="url(#prefix__clip1)">
        <path fill="#4CECC9" d="M509.343 114.328l-2.507-2.507-.836.836 3.343 3.343 7.164-7.164-.835-.836-6.329 6.328z"/>
    </g>
    <g clip-path="url(#prefix__clip2)">
        <path fill="#4CECC9" d="M613.343 114.328l-2.507-2.507-.836.836 3.343 3.343 7.164-7.164-.835-.836-6.329 6.328z"/>
    </g>
    <g clip-path="url(#prefix__clip3)">
        <path fill="#4CECC9" d="M665.343 114.328l-2.507-2.507-.836.836 3.343 3.343 7.164-7.164-.835-.836-6.329 6.328z"/>
    </g>
    <path fill="#D91414" d="M568 108.806l-.806-.806-3.194 3.194-3.194-3.194-.806.806 3.194 3.194-3.194 3.194.806.806 3.194-3.194 3.194 3.194.806-.806-3.194-3.194 3.194-3.194z"/>
    <path fill="#3E3E5F" d="M437.134 79V68.367h3.86v-1.345h-9.214v1.345h3.86V79h1.494zm4.74 0h1.428v-5.545c0-1.262.988-2.175 2.349-2.175.282 0 .797.05.913.083v-1.427c-.183-.025-.481-.042-.714-.042-1.187 0-2.216.614-2.482 1.486h-.133v-1.328h-1.361V79zm6.508 0h1.428v-8.948h-1.428V79zm.714-10.766c.548 0 .996-.448.996-.996s-.448-.996-.996-.996-.996.448-.996.996.448.996.996.996zm7.055 9.372c-1.66 0-2.589-1.262-2.589-3.213 0-1.95.929-3.212 2.589-3.212 1.652 0 2.657 1.261 2.657 3.212 0 1.95-.996 3.213-2.657 3.213zm.067 4.83c2.44 0 3.984-1.278 3.984-3.278v-9.106h-1.361v1.42h-.133c-.515-.964-1.619-1.578-2.872-1.578-2.299 0-3.752 1.818-3.752 4.5 0 2.68 1.436 4.473 3.752 4.473 1.228 0 2.241-.556 2.806-1.544h.132v1.76c0 1.32-.954 2.108-2.556 2.108-1.287 0-2.084-.473-2.241-1.203h-1.511c.216 1.477 1.594 2.448 3.752 2.448zm10.351-3.278c2.548 0 4.125-1.76 4.125-4.632 0-2.88-1.577-4.632-4.125-4.632s-4.126 1.751-4.126 4.632c0 2.872 1.578 4.632 4.126 4.632zm0-1.287c-1.694 0-2.648-1.228-2.648-3.345 0-2.125.954-3.345 2.648-3.345 1.693 0 2.648 1.22 2.648 3.345 0 2.117-.955 3.345-2.648 3.345zM472.936 79h1.427v-5.296c0-1.569.922-2.523 2.349-2.523 1.428 0 2.109.763 2.109 2.374V79h1.428v-5.794c0-2.125-1.121-3.312-3.13-3.312-1.369 0-2.241.581-2.689 1.569h-.133v-1.411h-1.361V79zm13.605.158c2.548 0 4.125-1.76 4.125-4.632 0-2.88-1.577-4.632-4.125-4.632-2.549 0-4.126 1.751-4.126 4.632 0 2.872 1.577 4.632 4.126 4.632zm0-1.287c-1.694 0-2.648-1.228-2.648-3.345 0-2.125.954-3.345 2.648-3.345 1.693 0 2.647 1.22 2.647 3.345 0 2.117-.954 3.345-2.647 3.345zM492.907 79h1.428v-5.545c0-1.262.905-2.274 2.075-2.274 1.129 0 1.868.68 1.868 1.743V79h1.428v-5.752c0-1.138.83-2.067 2.075-2.067 1.261 0 1.884.647 1.884 1.967V79h1.428v-6.184c0-1.876-1.021-2.922-2.847-2.922-1.237 0-2.258.623-2.74 1.569h-.132c-.416-.93-1.262-1.569-2.474-1.569-1.195 0-2.092.573-2.499 1.569h-.132v-1.411h-1.362V79zm18.362-7.844c1.419 0 2.365 1.046 2.398 2.631h-4.93c.108-1.585 1.104-2.631 2.532-2.631zm2.357 5.528c-.374.789-1.154 1.212-2.308 1.212-1.519 0-2.506-1.12-2.581-2.889v-.066h6.433v-.548c0-2.78-1.469-4.499-3.885-4.499-2.457 0-4.034 1.826-4.034 4.64 0 2.83 1.552 4.624 4.034 4.624 1.959 0 3.337-.938 3.769-2.474h-1.428zm4.383-8.948v2.316h-1.445v1.195h1.445v5.429c0 1.71.739 2.39 2.581 2.39.283 0 .556-.033.839-.083V77.78c-.266.025-.407.033-.664.033-.93 0-1.328-.448-1.328-1.502v-5.064h1.992v-1.195h-1.992v-2.316h-1.428zM523.587 79h1.428v-5.545c0-1.262.987-2.175 2.349-2.175.282 0 .797.05.913.083v-1.427c-.183-.025-.482-.042-.714-.042-1.187 0-2.216.614-2.482 1.486h-.133v-1.328h-1.361V79zm7.238 3.237c1.586 0 2.3-.614 3.063-2.69l3.495-9.495h-1.519l-2.449 7.363h-.133l-2.457-7.363h-1.544l3.312 8.956-.166.532c-.373 1.079-.822 1.469-1.643 1.469-.2 0-.424-.008-.598-.042v1.22c.199.034.448.05.639.05zm14.942-13.887h2.88c1.544 0 2.474.855 2.474 2.291 0 1.47-.872 2.291-2.408 2.291h-2.946V68.35zm0 5.91h2.946l2.565 4.74h1.752l-2.773-4.972c1.503-.473 2.408-1.768 2.408-3.437 0-2.158-1.511-3.569-3.819-3.569h-4.574V79h1.495v-4.74zm12.75-3.104c1.419 0 2.365 1.046 2.399 2.631h-4.931c.108-1.585 1.104-2.631 2.532-2.631zm2.357 5.528c-.374.789-1.154 1.212-2.308 1.212-1.519 0-2.506-1.12-2.581-2.889v-.066h6.433v-.548c0-2.78-1.469-4.499-3.885-4.499-2.457 0-4.034 1.826-4.034 4.64 0 2.83 1.552 4.624 4.034 4.624 1.959 0 3.337-.938 3.769-2.474h-1.428zm3.578-4.183c0 1.294.763 2.017 2.44 2.423l1.536.374c.954.232 1.419.647 1.419 1.262 0 .821-.863 1.394-2.067 1.394-1.145 0-1.859-.481-2.1-1.237h-1.469c.158 1.486 1.527 2.44 3.519 2.44 2.034 0 3.586-1.103 3.586-2.705 0-1.287-.813-2.017-2.498-2.424l-1.378-.332c-1.054-.257-1.552-.64-1.552-1.254 0-.796.83-1.336 1.892-1.336 1.079 0 1.777.473 1.968 1.187h1.411c-.191-1.47-1.494-2.399-3.37-2.399-1.901 0-3.337 1.12-3.337 2.606zm13.464-2.607c-1.221 0-2.291.623-2.864 1.652h-.133v-1.494h-1.361v11.936h1.427v-4.333h.133c.49.947 1.519 1.503 2.798 1.503 2.274 0 3.76-1.835 3.76-4.632 0-2.814-1.478-4.632-3.76-4.632zm-.341 7.977c-1.61 0-2.631-1.295-2.631-3.345 0-2.059 1.021-3.345 2.639-3.345 1.636 0 2.615 1.253 2.615 3.345 0 2.092-.979 3.345-2.623 3.345zm10.019 1.287c2.549 0 4.126-1.76 4.126-4.632 0-2.88-1.577-4.632-4.126-4.632-2.548 0-4.125 1.751-4.125 4.632 0 2.872 1.577 4.632 4.125 4.632zm0-1.287c-1.693 0-2.648-1.228-2.648-3.345 0-2.125.955-3.345 2.648-3.345 1.694 0 2.648 1.22 2.648 3.345 0 2.117-.954 3.345-2.648 3.345zM593.961 79h1.428v-5.296c0-1.569.921-2.523 2.349-2.523 1.428 0 2.108.763 2.108 2.374V79h1.428v-5.794c0-2.125-1.121-3.312-3.129-3.312-1.37 0-2.242.581-2.69 1.569h-.133v-1.411h-1.361V79zm9.72-6.5c0 1.295.764 2.018 2.441 2.424l1.535.374c.955.232 1.42.647 1.42 1.262 0 .821-.864 1.394-2.067 1.394-1.146 0-1.86-.481-2.1-1.237h-1.47c.158 1.486 1.528 2.44 3.52 2.44 2.034 0 3.586-1.103 3.586-2.705 0-1.287-.814-2.017-2.499-2.424l-1.378-.332c-1.054-.257-1.552-.64-1.552-1.254 0-.796.83-1.336 1.893-1.336 1.079 0 1.776.473 1.967 1.187h1.411c-.191-1.47-1.494-2.399-3.37-2.399-1.901 0-3.337 1.12-3.337 2.606zm12.675-1.344c1.42 0 2.366 1.046 2.399 2.631h-4.93c.108-1.585 1.104-2.631 2.531-2.631zm2.358 5.528c-.374.789-1.154 1.212-2.308 1.212-1.519 0-2.507-1.12-2.581-2.889v-.066h6.433v-.548c0-2.78-1.469-4.499-3.885-4.499-2.457 0-4.034 1.826-4.034 4.64 0 2.83 1.552 4.624 4.034 4.624 1.959 0 3.337-.938 3.769-2.474h-1.428zM442.212 132h1.142v-9.16h-1.136l-2.437 1.752v1.206l2.329-1.688h.102V132zM491.965 125.417v.007h1.104v-.007c0-1.079.724-1.796 1.797-1.796 1.009 0 1.79.705 1.79 1.619 0 .736-.286 1.231-1.467 2.513l-3.167 3.46V132h5.929v-1.028h-4.291v-.102l2.202-2.368c1.505-1.612 1.936-2.355 1.936-3.307 0-1.453-1.256-2.57-2.901-2.57-1.701 0-2.932 1.167-2.932 2.792zM545.895 127.779h1.161c1.301 0 2.108.66 2.108 1.72 0 1.003-.857 1.72-2.063 1.72-1.181 0-2.006-.628-2.108-1.606h-1.104c.082 1.568 1.364 2.603 3.224 2.603 1.809 0 3.225-1.174 3.225-2.685 0-1.251-.755-2.114-2-2.273v-.101c1.003-.241 1.606-1.041 1.606-2.133 0-1.333-1.276-2.399-2.875-2.399-1.746 0-2.882.977-2.996 2.564h1.111c.095-.984.787-1.568 1.84-1.568 1.054 0 1.759.622 1.759 1.555 0 .952-.737 1.625-1.778 1.625h-1.11v.978zM600.205 132h1.117v-1.898h1.302v-1.022h-1.302v-6.24h-1.656c-1.651 2.47-3.104 4.767-3.923 6.221v1.041h4.462V132zm-3.294-2.99c1.091-1.853 2.285-3.745 3.224-5.11h.076v5.186h-3.3v-.076zM651.043 132.216c1.898 0 3.2-1.27 3.2-3.13 0-1.802-1.219-3.065-2.958-3.065-.845 0-1.492.26-1.936.78h-.102l.26-2.939h4.215v-1.022h-5.11l-.501 5.193h1.073c.374-.654 1.06-1.029 1.891-1.029 1.2 0 2.025.857 2.025 2.114s-.819 2.095-2.044 2.095c-1.079 0-1.866-.66-1.968-1.651h-1.123c.101 1.581 1.346 2.654 3.078 2.654z"/>
    <rect width="39" height="39" x="431.5" y="102.5" stroke="#3E3E5F" stroke-opacity=".16" rx="3.5"/>
    <rect width="39" height="39" x="535.5" y="102.5" stroke="#3E3E5F" stroke-opacity=".16" rx="3.5"/>
    <rect width="39" height="39" x="587.5" y="102.5" stroke="#3E3E5F" stroke-opacity=".16" rx="3.5"/>
    <rect width="39" height="39" x="639.5" y="102.5" stroke="#3E3E5F" stroke-opacity=".16" rx="3.5"/>
    <g fill="#2EBF91" clip-path="url(#prefix__clip4)">
        <path d="M458.217 191.051c-.132 4.055-.912 9.926-3.64 16.522-4.631 11.2-16.013 26.606-43.933 36.402l-.59-1.631c27.181-9.537 38.224-24.448 42.702-35.278 4.844-11.715 3.281-21.261 3.265-21.356l1.926-.391c.033.185.382 2.314.27 5.732z"/>
        <path d="M465.518 193.218l-1.573 1.161-6.703-8.548-6.339 11.125-1.661-.73 7.84-13.763 8.436 10.755z"/>
    </g>
    <rect width="344" height="494" x="40" fill="#fff" rx="4"/>
    <rect width="343" height="493" x="40.5" y=".5" stroke="#3E3E5F" stroke-opacity=".12" rx="3.5"/>
    <path fill="#3E3E5F" d="M72.218 39h1.384l-3.896-10.569h-1.304L64.505 39h1.385l1.062-3.025h4.204L72.218 39zm-3.223-8.862h.117l1.656 4.716H67.34l1.655-4.716zM75.367 39h1.26V27.97h-1.26V39zm6.9-1.23c-1.465 0-2.286-1.114-2.286-2.835 0-1.721.82-2.834 2.286-2.834 1.457 0 2.343 1.113 2.343 2.834s-.879 2.834-2.343 2.834zm.058 4.262c2.153 0 3.516-1.128 3.516-2.893v-8.035H84.64v1.253h-.118c-.454-.85-1.428-1.392-2.534-1.392-2.028 0-3.31 1.604-3.31 3.97s1.267 3.948 3.31 3.948c1.084 0 1.978-.49 2.476-1.363h.117v1.553c0 1.165-.842 1.86-2.256 1.86-1.135 0-1.838-.417-1.977-1.061h-1.333c.19 1.303 1.406 2.16 3.31 2.16zm9.038-9.953c1.253 0 2.088.922 2.117 2.321h-4.35c.095-1.398.974-2.321 2.233-2.321zm2.08 4.877c-.33.696-1.018 1.07-2.036 1.07-1.34 0-2.212-.989-2.278-2.549v-.058h5.677v-.484c0-2.454-1.297-3.97-3.428-3.97-2.168 0-3.56 1.612-3.56 4.095 0 2.497 1.37 4.08 3.56 4.08 1.728 0 2.944-.828 3.325-2.184h-1.26zm7.266 2.183c1.999 0 3.311-1.619 3.311-4.087 0-2.483-1.304-4.087-3.311-4.087-1.084 0-2.044.535-2.476 1.385h-.117v-4.38h-1.26V39h1.202v-1.26h.117c.498.88 1.435 1.4 2.534 1.4zm-.293-7.038c1.443 0 2.3 1.105 2.3 2.951s-.857 2.952-2.3 2.952c-1.435 0-2.33-1.128-2.33-2.952s.895-2.951 2.33-2.951zM105.997 39h1.26v-4.893c0-1.113.871-1.919 2.073-1.919.249 0 .703.044.805.074v-1.26c-.161-.022-.425-.037-.63-.037-1.047 0-1.955.542-2.19 1.311h-.117v-1.172h-1.201V39zm8.145-.967c-.916 0-1.597-.468-1.597-1.274 0-.791.527-1.209 1.728-1.29l2.124-.138v.725c0 1.128-.959 1.977-2.255 1.977zm-.235 1.106c1.055 0 1.919-.461 2.432-1.304h.117V39h1.201v-5.405c0-1.64-1.076-2.63-3.003-2.63-1.684 0-2.929.835-3.098 2.102h1.275c.175-.622.835-.981 1.779-.981 1.18 0 1.787.535 1.787 1.509v.718l-2.277.139c-1.839.11-2.879.922-2.879 2.336 0 1.443 1.135 2.351 2.666 2.351zM74.217 112.913v-1.289h-4.284v1.157h2.973v.257c0 1.787-1.282 2.995-3.171 2.995-2.124 0-3.442-1.655-3.442-4.321 0-2.629 1.34-4.314 3.434-4.314 1.568 0 2.63.754 3.084 2.183h1.34c-.38-2.095-2.08-3.399-4.423-3.399-2.893 0-4.79 2.19-4.79 5.53 0 3.384 1.867 5.537 4.79 5.537 2.702 0 4.49-1.728 4.49-4.336zm5.325-2.834c1.252 0 2.087.922 2.117 2.321h-4.35c.094-1.399.973-2.321 2.233-2.321zm2.08 4.878c-.33.695-1.018 1.069-2.036 1.069-1.34 0-2.212-.989-2.278-2.549v-.059h5.676v-.483c0-2.454-1.296-3.97-3.427-3.97-2.168 0-3.56 1.612-3.56 4.095 0 2.497 1.37 4.079 3.56 4.079 1.728 0 2.944-.827 3.325-2.182h-1.26zm6.585 2.182c2.248 0 3.64-1.553 3.64-4.087 0-2.541-1.392-4.087-3.64-4.087-2.249 0-3.64 1.546-3.64 4.087 0 2.534 1.391 4.087 3.64 4.087zm0-1.135c-1.495 0-2.337-1.084-2.337-2.952 0-1.875.842-2.951 2.337-2.951 1.494 0 2.336 1.076 2.336 2.951 0 1.868-.842 2.952-2.337 2.952zm5.617.996h1.26v-4.893c0-1.113.798-2.006 1.831-2.006.996 0 1.648.6 1.648 1.538V117h1.26v-5.076c0-1.003.732-1.823 1.831-1.823 1.113 0 1.662.571 1.662 1.735V117h1.26v-5.457c0-1.655-.901-2.578-2.512-2.578-1.091 0-1.992.55-2.417 1.385h-.117c-.366-.821-1.114-1.385-2.183-1.385-1.054 0-1.846.506-2.204 1.385h-.118v-1.246h-1.2V117zm16.201-6.921c1.253 0 2.088.922 2.117 2.321h-4.35c.095-1.399.974-2.321 2.233-2.321zm2.08 4.878c-.329.695-1.018 1.069-2.036 1.069-1.34 0-2.212-.989-2.277-2.549v-.059h5.676v-.483c0-2.454-1.297-3.97-3.428-3.97-2.168 0-3.56 1.612-3.56 4.095 0 2.497 1.37 4.079 3.56 4.079 1.729 0 2.944-.827 3.325-2.182h-1.26zm3.868-7.896v2.043h-1.275v1.055h1.275v4.79c0 1.509.652 2.11 2.277 2.11.25 0 .491-.03.74-.074v-1.062c-.234.022-.359.03-.586.03-.82 0-1.172-.396-1.172-1.326v-4.468h1.758v-1.055h-1.758v-2.043h-1.259zm4.922 9.939h1.259v-4.893c0-1.113.872-1.919 2.073-1.919.249 0 .703.044.806.074v-1.26c-.161-.022-.425-.037-.63-.037-1.048 0-1.956.542-2.19 1.311h-.117v-1.172h-1.201V117zm6.386 2.856c1.399 0 2.029-.542 2.703-2.373l3.083-8.379h-1.34l-2.161 6.497h-.117l-2.168-6.497h-1.362l2.922 7.903-.146.469c-.33.952-.725 1.296-1.45 1.296-.176 0-.374-.007-.528-.036v1.076c.176.03.396.044.564.044zM64.603 353.249c2.249 0 3.919-1.252 4.27-3.193h-1.34c-.337 1.223-1.458 1.977-2.93 1.977-2.036 0-3.31-1.662-3.31-4.314 0-2.651 1.274-4.321 3.303-4.321 1.457 0 2.585.857 2.937 2.219h1.34c-.315-2.036-2.05-3.435-4.277-3.435-2.871 0-4.659 2.124-4.659 5.537 0 3.406 1.795 5.53 4.666 5.53zm8.753-1.216c-.916 0-1.597-.469-1.597-1.274 0-.791.527-1.209 1.728-1.289l2.124-.139v.725c0 1.128-.96 1.977-2.255 1.977zm-.235 1.106c1.055 0 1.919-.461 2.432-1.304h.117V353h1.201v-5.405c0-1.641-1.077-2.63-3.003-2.63-1.684 0-2.93.835-3.098 2.102h1.274c.176-.622.835-.981 1.78-.981 1.18 0 1.787.535 1.787 1.509v.717l-2.278.14c-1.838.11-2.878.923-2.878 2.336 0 1.443 1.135 2.351 2.666 2.351zm6.152-.139h1.26v-11.03h-1.26V353zm10.24-5.479c-.22-1.406-1.392-2.556-3.31-2.556-2.213 0-3.619 1.597-3.619 4.058 0 2.512 1.414 4.116 3.626 4.116 1.896 0 3.076-1.069 3.303-2.519h-1.275c-.234.893-.974 1.384-2.036 1.384-1.406 0-2.314-1.157-2.314-2.981 0-1.787.893-2.922 2.314-2.922 1.135 0 1.831.637 2.036 1.42h1.275zm8.247-2.417H96.5v4.673c0 1.385-.762 2.212-2.153 2.212-1.26 0-1.787-.659-1.787-2.08v-4.805H91.3v5.113c0 1.867.923 2.922 2.695 2.922 1.209 0 2.05-.498 2.446-1.377h.118V353h1.2v-7.896zm2.446 7.896h1.26v-11.03h-1.26V353zm10.093-7.896h-1.26v4.673c0 1.385-.762 2.212-2.153 2.212-1.26 0-1.787-.659-1.787-2.08v-4.805h-1.26v5.113c0 1.867.923 2.922 2.695 2.922 1.209 0 2.051-.498 2.446-1.377h.118V353h1.201v-7.896zm2.19 2.161c0 1.143.674 1.78 2.153 2.139l1.355.329c.842.205 1.253.572 1.253 1.114 0 .725-.762 1.23-1.824 1.23-1.011 0-1.641-.425-1.853-1.091h-1.297c.14 1.311 1.348 2.153 3.106 2.153 1.794 0 3.164-.974 3.164-2.388 0-1.135-.718-1.779-2.205-2.138l-1.216-.293c-.93-.227-1.369-.564-1.369-1.106 0-.703.732-1.179 1.67-1.179.952 0 1.567.417 1.736 1.047h1.245c-.169-1.296-1.319-2.117-2.974-2.117-1.677 0-2.944.989-2.944 2.3zM60.348 420.431V431h1.318v-3.772h2.659c1.985 0 3.398-1.399 3.398-3.376 0-2.015-1.384-3.421-3.384-3.421h-3.991zm1.318 1.172h2.33c1.53 0 2.372.798 2.372 2.249 0 1.398-.871 2.204-2.373 2.204h-2.329v-4.453zM69.723 431h1.26v-4.893c0-1.113.871-1.919 2.072-1.919.25 0 .703.044.806.074v-1.26c-.161-.022-.425-.037-.63-.037-1.047 0-1.956.542-2.19 1.311h-.117v-1.172h-1.201V431zm8.737.139c2.249 0 3.64-1.553 3.64-4.087 0-2.541-1.391-4.087-3.64-4.087-2.248 0-3.64 1.546-3.64 4.087 0 2.534 1.392 4.087 3.64 4.087zm0-1.135c-1.494 0-2.336-1.084-2.336-2.952 0-1.875.842-2.951 2.336-2.951 1.495 0 2.337 1.076 2.337 2.951 0 1.868-.842 2.952-2.337 2.952zm9.544 1.135c2 0 3.31-1.618 3.31-4.087 0-2.483-1.303-4.087-3.31-4.087-1.084 0-2.044.535-2.476 1.385h-.117v-4.38h-1.26V431h1.202v-1.26h.117c.498.879 1.435 1.399 2.534 1.399zm-.293-7.038c1.443 0 2.3 1.106 2.3 2.951 0 1.846-.857 2.952-2.3 2.952-1.436 0-2.33-1.128-2.33-2.952 0-1.823.894-2.951 2.33-2.951zm8.013 5.932c-.916 0-1.597-.469-1.597-1.274 0-.791.527-1.209 1.729-1.289l2.124-.139v.725c0 1.128-.96 1.977-2.256 1.977zm-.235 1.106c1.055 0 1.92-.461 2.432-1.304h.117V431h1.201v-5.405c0-1.641-1.076-2.63-3.003-2.63-1.684 0-2.93.835-3.098 2.102h1.275c.175-.622.835-.981 1.78-.981 1.179 0 1.787.535 1.787 1.509v.717l-2.278.14c-1.839.11-2.879.923-2.879 2.336 0 1.443 1.136 2.351 2.666 2.351zm10.005 0c2 0 3.311-1.618 3.311-4.087 0-2.483-1.304-4.087-3.311-4.087-1.084 0-2.043.535-2.475 1.385h-.118v-4.38h-1.259V431h1.201v-1.26h.117c.498.879 1.436 1.399 2.534 1.399zm-.293-7.038c1.443 0 2.3 1.106 2.3 2.951 0 1.846-.857 2.952-2.3 2.952-1.435 0-2.329-1.128-2.329-2.952 0-1.823.894-2.951 2.329-2.951zm5.611 6.899h1.259v-7.896h-1.259V431zm.629-9.5c.484 0 .879-.395.879-.878 0-.484-.395-.879-.879-.879-.483 0-.879.395-.879.879 0 .483.396.878.879.878zm3.106 9.5h1.26v-11.03h-1.26V431zm3.735 0h1.26v-7.896h-1.26V431zm.63-9.5c.484 0 .879-.395.879-.878 0-.484-.395-.879-.879-.879-.483 0-.879.395-.879.879 0 .483.396.878.879.878zm3.56-.439v2.043h-1.275v1.055h1.275v4.79c0 1.509.652 2.11 2.278 2.11.249 0 .49-.03.739-.074v-1.062c-.234.022-.359.03-.586.03-.82 0-1.172-.396-1.172-1.326v-4.468h1.758v-1.055h-1.758v-2.043h-1.259zm5.595 12.795c1.399 0 2.029-.542 2.703-2.373l3.084-8.379h-1.341l-2.16 6.497h-.118l-2.168-6.497h-1.362l2.922 7.903-.146.469c-.33.952-.725 1.296-1.45 1.296-.176 0-.374-.007-.528-.036v1.076c.176.03.396.044.564.044z"/>
    <rect width="275" height="16" x="65" y="62" fill="#3E3E5F" fill-opacity=".12" rx="2"/>
    <rect width="275" height="16" x="65" y="140" fill="#3E3E5F" fill-opacity=".12" rx="2"/>
    <rect width="275" height="16" x="60" y="376" fill="#3E3E5F" fill-opacity=".12" rx="2"/>
    <rect width="275" height="16" x="60" y="454" fill="#3E3E5F" fill-opacity=".12" rx="2"/>
    <rect width="156" height="16" x="64" y="62" fill="#3E3E5F" fill-opacity=".16" rx="2"/>
    <rect width="156" height="16" x="64" y="140" fill="#3E3E5F" fill-opacity=".16" rx="2"/>
    <rect width="67" height="16" x="60" y="376" fill="#3E3E5F" fill-opacity=".16" rx="2"/>
    <rect width="67" height="16" x="60" y="454" fill="#3E3E5F" fill-opacity=".16" rx="2"/>
    <g filter="url(#prefix__filter0_d)">
        <rect width="364" height="134" x="30" y="180" fill="#fff" rx="4"/>
        <rect width="363" height="133" x="30.5" y="180.5" stroke="#4CECC9" rx="3.5"/>
    </g>
    <path fill="#3E3E5F" d="M65.134 221v-10.633h3.86v-1.345H59.78v1.345h3.86V221h1.494zm4.74 0h1.428v-5.545c0-1.262.988-2.175 2.349-2.175.282 0 .797.05.913.083v-1.427c-.183-.025-.481-.042-.714-.042-1.187 0-2.216.614-2.482 1.486h-.133v-1.328h-1.361V221zm6.508 0h1.428v-8.948h-1.428V221zm.714-10.766c.548 0 .996-.448.996-.996s-.448-.996-.996-.996-.996.448-.996.996.448.996.996.996zm7.055 9.371c-1.66 0-2.59-1.261-2.59-3.212 0-1.951.93-3.212 2.59-3.212 1.652 0 2.657 1.261 2.657 3.212 0 1.951-.997 3.212-2.657 3.212zm.067 4.832c2.44 0 3.984-1.279 3.984-3.279v-9.106h-1.361v1.419h-.133c-.515-.963-1.619-1.577-2.872-1.577-2.3 0-3.752 1.818-3.752 4.499 0 2.681 1.436 4.474 3.752 4.474 1.228 0 2.241-.556 2.806-1.544h.132v1.76c0 1.32-.954 2.108-2.556 2.108-1.287 0-2.084-.473-2.241-1.203h-1.511c.216 1.477 1.594 2.449 3.752 2.449zm10.35-3.279c2.55 0 4.126-1.76 4.126-4.632 0-2.88-1.577-4.632-4.125-4.632-2.549 0-4.126 1.752-4.126 4.632 0 2.872 1.578 4.632 4.126 4.632zm0-1.287c-1.692 0-2.647-1.228-2.647-3.345 0-2.125.954-3.345 2.648-3.345 1.693 0 2.648 1.22 2.648 3.345 0 2.117-.955 3.345-2.648 3.345zm6.368 1.129h1.427v-5.296c0-1.569.922-2.523 2.349-2.523 1.428 0 2.109.763 2.109 2.374V221h1.428v-5.794c0-2.125-1.121-3.312-3.13-3.312-1.369 0-2.241.581-2.689 1.569h-.133v-1.411h-1.361V221zm13.605.158c2.548 0 4.125-1.76 4.125-4.632 0-2.88-1.577-4.632-4.125-4.632-2.549 0-4.126 1.752-4.126 4.632 0 2.872 1.577 4.632 4.126 4.632zm0-1.287c-1.694 0-2.648-1.228-2.648-3.345 0-2.125.954-3.345 2.648-3.345 1.693 0 2.647 1.22 2.647 3.345 0 2.117-.954 3.345-2.647 3.345zm6.366 1.129h1.428v-5.545c0-1.262.905-2.274 2.075-2.274 1.129 0 1.868.68 1.868 1.743V221h1.428v-5.752c0-1.138.83-2.067 2.075-2.067 1.261 0 1.884.647 1.884 1.967V221h1.428v-6.184c0-1.876-1.021-2.922-2.847-2.922-1.237 0-2.258.623-2.74 1.569h-.132c-.416-.93-1.262-1.569-2.474-1.569-1.195 0-2.092.573-2.499 1.569h-.132v-1.411h-1.362V221zm18.362-7.844c1.419 0 2.365 1.046 2.398 2.631h-4.93c.108-1.585 1.104-2.631 2.532-2.631zm2.357 5.528c-.374.789-1.154 1.212-2.308 1.212-1.519 0-2.506-1.121-2.581-2.889v-.066h6.433v-.548c0-2.781-1.469-4.499-3.885-4.499-2.457 0-4.034 1.826-4.034 4.64 0 2.831 1.552 4.624 4.034 4.624 1.959 0 3.337-.938 3.769-2.474h-1.428zm4.383-8.948v2.316h-1.445v1.195h1.445v5.429c0 1.71.739 2.39 2.581 2.39.283 0 .556-.033.839-.083v-1.203c-.266.025-.407.033-.664.033-.93 0-1.328-.448-1.328-1.502v-5.064h1.992v-1.195h-1.992v-2.316h-1.428zM151.587 221h1.428v-5.545c0-1.262.987-2.175 2.349-2.175.282 0 .797.05.913.083v-1.427c-.183-.025-.482-.042-.714-.042-1.187 0-2.216.614-2.482 1.486h-.133v-1.328h-1.361V221zm7.238 3.237c1.586 0 2.3-.614 3.063-2.689l3.495-9.496h-1.519l-2.449 7.363h-.133l-2.457-7.363h-1.544l3.312 8.956-.166.532c-.373 1.079-.822 1.469-1.643 1.469-.2 0-.424-.009-.598-.042v1.221c.199.033.448.049.639.049z"/>
    <path fill="#3E3E5F" fill-opacity=".5" d="M274.832 219.199c1.793 0 3.047-1.013 3.047-2.461 0-1.101-.697-1.957-1.758-2.156v-.094c.873-.24 1.412-.961 1.412-1.886 0-1.319-1.119-2.256-2.701-2.256s-2.701.937-2.701 2.256c0 .919.551 1.652 1.412 1.886v.094c-1.061.199-1.758 1.055-1.758 2.156 0 1.448 1.254 2.461 3.047 2.461zm0-.902c-1.172 0-1.98-.668-1.98-1.635s.808-1.635 1.98-1.635 1.98.668 1.98 1.635-.808 1.635-1.98 1.635zm0-4.16c-.996 0-1.664-.575-1.664-1.436 0-.873.662-1.453 1.664-1.453 1.002 0 1.664.58 1.664 1.453 0 .861-.668 1.436-1.664 1.436zM286.381 219v-7.506h2.724v-.949h-6.503v.949h2.724V219h1.055zm5.572-5.537c1.002 0 1.67.738 1.693 1.857h-3.48c.076-1.119.779-1.857 1.787-1.857zm1.664 3.902c-.263.557-.814.856-1.629.856-1.072 0-1.769-.791-1.822-2.039v-.047h4.541v-.387c0-1.963-1.037-3.176-2.742-3.176-1.735 0-2.848 1.289-2.848 3.276 0 1.998 1.096 3.263 2.848 3.263 1.383 0 2.355-.662 2.66-1.746h-1.008zm2.526-2.953c0 .914.539 1.424 1.722 1.711l1.084.264c.674.164 1.002.457 1.002.89 0 .58-.609.985-1.459.985-.808 0-1.312-.34-1.482-.873h-1.037c.111 1.049 1.078 1.722 2.484 1.722 1.436 0 2.531-.779 2.531-1.91 0-.908-.574-1.424-1.763-1.711l-.973-.234c-.744-.182-1.096-.451-1.096-.885 0-.562.586-.943 1.336-.943.762 0 1.254.334 1.389.838h.996c-.135-1.037-1.055-1.694-2.379-1.694-1.342 0-2.355.791-2.355 1.84zm6.791-3.363v1.635h-1.02v.843h1.02v3.832c0 1.207.521 1.688 1.822 1.688.199 0 .392-.024.592-.059v-.849c-.188.017-.287.023-.469.023-.656 0-.938-.316-.938-1.06v-3.575h1.407v-.843h-1.407v-1.635h-1.007zm3.673 3.363c0 .914.539 1.424 1.723 1.711l1.084.264c.674.164 1.002.457 1.002.89 0 .58-.609.985-1.459.985-.809 0-1.312-.34-1.482-.873h-1.037c.111 1.049 1.078 1.722 2.484 1.722 1.435 0 2.531-.779 2.531-1.91 0-.908-.574-1.424-1.764-1.711l-.972-.234c-.744-.182-1.096-.451-1.096-.885 0-.562.586-.943 1.336-.943.762 0 1.254.334 1.389.838h.996c-.135-1.037-1.055-1.694-2.379-1.694-1.342 0-2.356.791-2.356 1.84zm11.291 6.387v-10.623h-.855v10.623h.855zM327.66 219h1.031v-1.752h1.202v-.943h-1.202v-5.76h-1.529c-1.523 2.279-2.865 4.4-3.621 5.742v.961h4.119V219zm-3.041-2.76c1.008-1.711 2.11-3.457 2.977-4.717h.07v4.788h-3.047v-.071zm9.744 2.959c1.899 0 2.989-1.605 2.989-4.412 0-2.801-1.108-4.441-2.989-4.441-1.892 0-3 1.634-3 4.424 0 2.812 1.096 4.429 3 4.429zm0-.92c-1.248 0-1.939-1.248-1.939-3.509 0-2.233.703-3.499 1.939-3.499 1.237 0 1.928 1.254 1.928 3.499 0 2.267-.68 3.509-1.928 3.509zm11.795.92c.545 0 1.061-.088 1.512-.258l.744 1.014h1.184l-1.073-1.488c.961-.692 1.5-2.01 1.5-3.692 0-2.724-1.488-4.429-3.867-4.429-2.39 0-3.885 1.699-3.885 4.429 0 2.743 1.477 4.424 3.885 4.424zm.006-.972c-1.734 0-2.807-1.319-2.807-3.452 0-2.127 1.079-3.457 2.801-3.457 1.711 0 2.783 1.336 2.783 3.457 0 1.289-.369 2.297-1.031 2.825l-.767-1.02h-1.196l1.119 1.518c-.293.088-.591.129-.902.129zm5.42-3.815c0 .914.539 1.424 1.723 1.711l1.084.264c.673.164 1.002.457 1.002.89 0 .58-.61.985-1.459.985-.809 0-1.313-.34-1.483-.873h-1.037c.111 1.049 1.078 1.722 2.484 1.722 1.436 0 2.532-.779 2.532-1.91 0-.908-.575-1.424-1.764-1.711l-.973-.234c-.744-.182-1.095-.451-1.095-.885 0-.562.586-.943 1.336-.943.761 0 1.254.334 1.388.838h.996c-.134-1.037-1.054-1.694-2.379-1.694-1.341 0-2.355.791-2.355 1.84zm7.26 4.647c.422 0 .761-.346.761-.762 0-.422-.339-.762-.761-.762-.416 0-.762.34-.762.762 0 .416.346.762.762.762zM66.574 286h1.108l-3.118-8.455h-1.042L60.404 286h1.108l.85-2.42h3.363l.85 2.42zm-2.578-7.09h.094l1.324 3.774h-2.742l1.324-3.774zm5.11-.861v1.635h-1.02v.843h1.02v3.832c0 1.207.521 1.688 1.822 1.688.199 0 .392-.024.591-.059v-.849c-.187.017-.287.023-.468.023-.657 0-.938-.316-.938-1.06v-3.575h1.406v-.843h-1.406v-1.635h-1.007zm4.359 0v1.635h-1.02v.843h1.02v3.832c0 1.207.521 1.688 1.822 1.688.2 0 .393-.024.592-.059v-.849c-.188.017-.287.023-.469.023-.656 0-.937-.316-.937-1.06v-3.575h1.406v-.843h-1.406v-1.635h-1.008zm6.363 2.414c1.002 0 1.67.738 1.694 1.857H78.04c.076-1.119.78-1.857 1.787-1.857zm1.664 3.902c-.264.557-.814.856-1.629.856-1.072 0-1.77-.791-1.822-2.039v-.047h4.541v-.387c0-1.963-1.037-3.176-2.742-3.176-1.734 0-2.848 1.289-2.848 3.276 0 1.998 1.096 3.263 2.848 3.263 1.383 0 2.355-.662 2.66-1.746h-1.008zM84.164 286h1.008v-3.914c0-.891.639-1.606 1.465-1.606.797 0 1.318.481 1.318 1.231V286h1.008v-4.061c0-.802.586-1.459 1.465-1.459.89 0 1.33.458 1.33 1.389V286h1.008v-4.365c0-1.324-.721-2.063-2.01-2.063-.873 0-1.594.44-1.934 1.108h-.094c-.292-.657-.89-1.108-1.746-1.108-.843 0-1.476.405-1.763 1.108h-.094v-.996h-.96V286zm13.518-6.428c-.862 0-1.618.44-2.022 1.166h-.094v-1.054h-.96v8.425h1.007v-3.058h.094c.346.668 1.072 1.06 1.975 1.06 1.605 0 2.654-1.295 2.654-3.269 0-1.987-1.043-3.27-2.654-3.27zm-.24 5.631c-1.137 0-1.858-.914-1.858-2.361 0-1.453.72-2.362 1.863-2.362 1.155 0 1.846.885 1.846 2.362 0 1.476-.691 2.361-1.852 2.361zm4.898-7.154v1.635h-1.02v.843h1.02v3.832c0 1.207.521 1.688 1.822 1.688.199 0 .393-.024.592-.059v-.849c-.188.017-.287.023-.469.023-.656 0-.937-.316-.937-1.06v-3.575h1.406v-.843h-1.406v-1.635h-1.008zm4.769 8.01c.422 0 .762-.346.762-.762 0-.422-.34-.762-.762-.762-.416 0-.761.34-.761.762 0 .416.345.762.761.762zm0-4.506c.422 0 .762-.346.762-.762 0-.422-.34-.762-.762-.762-.416 0-.761.34-.761.762 0 .416.345.762.761.762zm9.1 4.64c1.734 0 2.965-1.213 2.965-2.912 0-1.64-1.166-2.83-2.778-2.83-1.007 0-1.834.481-2.25 1.301h-.093c.058-2.25.838-3.469 2.215-3.469.832 0 1.47.481 1.699 1.272h1.084c-.27-1.36-1.336-2.209-2.772-2.209-2.068 0-3.252 1.664-3.252 4.57 0 .932.135 1.711.411 2.355.527 1.243 1.5 1.922 2.771 1.922zm-.012-.925c-1.084 0-1.91-.856-1.91-1.987 0-1.119.803-1.916 1.922-1.916 1.119 0 1.898.797 1.898 1.951 0 1.108-.826 1.952-1.91 1.952zm7.518.931c1.898 0 2.988-1.605 2.988-4.412 0-2.801-1.107-4.441-2.988-4.441-1.893 0-3 1.634-3 4.424 0 2.812 1.096 4.429 3 4.429zm0-.92c-1.248 0-1.94-1.248-1.94-3.509 0-2.233.704-3.499 1.94-3.499s1.928 1.254 1.928 3.499c0 2.267-.68 3.509-1.928 3.509zm7.846-5.847c0-1.196-.745-2.034-1.799-2.034-1.055 0-1.805.844-1.805 2.034 0 1.195.75 2.039 1.805 2.039 1.054 0 1.799-.844 1.799-2.039zm-1.799 1.289c-.522 0-.867-.51-.867-1.289 0-.78.339-1.284.867-1.284.527 0 .861.493.861 1.284 0 .773-.346 1.289-.861 1.289zm-.094 5.279l2.9-3.967 3.282-4.488h-1.067l-2.965 4.049L128.59 286h1.078zm6.785-1.893c0-1.195-.744-2.033-1.799-2.033-1.054 0-1.804.844-1.804 2.033 0 1.196.75 2.039 1.804 2.039 1.055 0 1.799-.843 1.799-2.039zm-1.799 1.289c-.521 0-.867-.509-.867-1.289 0-.779.34-1.283.867-1.283.528 0 .862.492.862 1.283 0 .774-.346 1.289-.862 1.289zM155.574 286h1.108l-3.118-8.455h-1.043L149.404 286h1.108l.849-2.42h3.364l.849 2.42zm-2.578-7.09h.094l1.324 3.774h-2.742l1.324-3.774zm9.914 2.707c-.176-1.125-1.113-2.045-2.648-2.045-1.77 0-2.895 1.278-2.895 3.246 0 2.01 1.131 3.293 2.901 3.293 1.517 0 2.461-.855 2.642-2.015h-1.019c-.188.715-.78 1.107-1.629 1.107-1.125 0-1.852-.926-1.852-2.385 0-1.429.715-2.338 1.852-2.338.908 0 1.465.51 1.629 1.137h1.019zm6.715 0c-.176-1.125-1.113-2.045-2.648-2.045-1.77 0-2.895 1.278-2.895 3.246 0 2.01 1.131 3.293 2.9 3.293 1.518 0 2.461-.855 2.643-2.015h-1.02c-.187.715-.779 1.107-1.628 1.107-1.125 0-1.852-.926-1.852-2.385 0-1.429.715-2.338 1.852-2.338.908 0 1.464.51 1.628 1.137h1.02zm6.598-1.933h-1.008v3.738c0 1.107-.61 1.769-1.723 1.769-1.008 0-1.43-.527-1.43-1.664v-3.843h-1.007v4.089c0 1.495.738 2.338 2.156 2.338.967 0 1.641-.398 1.957-1.101h.094v.99h.961v-6.316zm1.898 6.316h1.008v-3.914c0-.891.697-1.535 1.658-1.535.199 0 .563.035.645.058v-1.007c-.129-.018-.34-.03-.504-.03-.838 0-1.565.434-1.752 1.049h-.094v-.937h-.961V286zm6.516-.773c-.733 0-1.278-.375-1.278-1.02 0-.633.422-.967 1.383-1.031l1.699-.112v.581c0 .902-.767 1.582-1.804 1.582zm-.188.884c.844 0 1.535-.369 1.946-1.043h.093V286h.961v-4.324c0-1.313-.861-2.104-2.402-2.104-1.348 0-2.344.668-2.479 1.682h1.02c.141-.498.668-.785 1.424-.785.943 0 1.429.427 1.429 1.207v.574l-1.822.111c-1.471.088-2.303.739-2.303 1.869 0 1.155.909 1.881 2.133 1.881zm10.09-4.494c-.176-1.125-1.113-2.045-2.648-2.045-1.77 0-2.895 1.278-2.895 3.246 0 2.01 1.131 3.293 2.9 3.293 1.518 0 2.461-.855 2.643-2.015h-1.019c-.188.715-.78 1.107-1.629 1.107-1.125 0-1.852-.926-1.852-2.385 0-1.429.715-2.338 1.852-2.338.908 0 1.464.51 1.629 1.137h1.019zm2.027 6.668c1.12 0 1.623-.433 2.163-1.898l2.466-6.703h-1.072l-1.728 5.197h-.094l-1.735-5.197h-1.089l2.337 6.322-.117.375c-.263.762-.58 1.037-1.16 1.037-.141 0-.299-.006-.422-.029v.861c.141.023.317.035.451.035zm6.809-2.226c.422 0 .762-.346.762-.762 0-.422-.34-.762-.762-.762-.416 0-.762.34-.762.762 0 .416.346.762.762.762zm0-4.506c.422 0 .762-.346.762-.762 0-.422-.34-.762-.762-.762-.416 0-.762.34-.762.762 0 .416.346.762.762.762zm9.1 4.64c1.734 0 2.964-1.213 2.964-2.912 0-1.64-1.166-2.83-2.777-2.83-1.008 0-1.834.481-2.25 1.301h-.094c.059-2.25.838-3.469 2.215-3.469.832 0 1.471.481 1.699 1.272h1.084c-.269-1.36-1.336-2.209-2.771-2.209-2.068 0-3.252 1.664-3.252 4.57 0 .932.135 1.711.41 2.355.527 1.243 1.5 1.922 2.772 1.922zm-.012-.925c-1.084 0-1.91-.856-1.91-1.987 0-1.119.802-1.916 1.922-1.916 1.119 0 1.898.797 1.898 1.951 0 1.108-.826 1.952-1.91 1.952zm7.517.931c1.899 0 2.989-1.605 2.989-4.412 0-2.801-1.108-4.441-2.989-4.441-1.892 0-3 1.634-3 4.424 0 2.812 1.096 4.429 3 4.429zm0-.92c-1.248 0-1.939-1.248-1.939-3.509 0-2.233.703-3.499 1.939-3.499 1.237 0 1.928 1.254 1.928 3.499 0 2.267-.679 3.509-1.928 3.509zm7.846-5.847c0-1.196-.744-2.034-1.799-2.034-1.054 0-1.804.844-1.804 2.034 0 1.195.75 2.039 1.804 2.039 1.055 0 1.799-.844 1.799-2.039zm-1.799 1.289c-.521 0-.867-.51-.867-1.289 0-.78.34-1.284.867-1.284.528 0 .862.493.862 1.284 0 .773-.346 1.289-.862 1.289zm-.093 5.279l2.9-3.967 3.281-4.488h-1.066l-2.965 4.049-3.229 4.406h1.079zm6.785-1.893c0-1.195-.744-2.033-1.799-2.033s-1.805.844-1.805 2.033c0 1.196.75 2.039 1.805 2.039s1.799-.843 1.799-2.039zm-1.799 1.289c-.522 0-.867-.509-.867-1.289 0-.779.34-1.283.867-1.283.527 0 .861.492.861 1.283 0 .774-.345 1.289-.861 1.289z"/>
    <path fill="#3E3E5F" d="M296.965 256h1.055v-8.455h-1.049l-2.25 1.617v1.113l2.15-1.558h.094V256zm3.527-6.076v.006h1.02v-.006c0-.996.668-1.658 1.658-1.658.932 0 1.652.65 1.652 1.494 0 .679-.263 1.136-1.353 2.32l-2.924 3.193V256h5.473v-.949h-3.961v-.094l2.033-2.186c1.389-1.488 1.787-2.173 1.787-3.052 0-1.342-1.16-2.373-2.678-2.373-1.57 0-2.707 1.078-2.707 2.578zm10.149 6.275c1.898 0 2.988-1.605 2.988-4.412 0-2.801-1.108-4.441-2.988-4.441-1.893 0-3 1.634-3 4.424 0 2.812 1.095 4.429 3 4.429zm0-.92c-1.248 0-1.94-1.248-1.94-3.509 0-2.233.703-3.499 1.94-3.499 1.236 0 1.927 1.254 1.927 3.499 0 2.267-.679 3.509-1.927 3.509zm13.183.721v-8.455H322.6l-2.895 6.996h-.094l-2.894-6.996h-1.225V256h.985v-6.457h.07l2.666 6.398h.891l2.666-6.398h.07V256h.984zm1.969 1.799l3.105-10.623h-.89l-3.106 10.623h.891zm6.07-1.799h1.055v-8.455h-1.049l-2.25 1.617v1.113l2.151-1.558h.093V256zm6.569.193c1.734 0 2.964-1.213 2.964-2.912 0-1.64-1.166-2.83-2.777-2.83-1.008 0-1.834.481-2.25 1.301h-.094c.059-2.25.838-3.469 2.215-3.469.832 0 1.471.481 1.699 1.272h1.084c-.269-1.36-1.335-2.209-2.771-2.209-2.068 0-3.252 1.664-3.252 4.57 0 .932.135 1.711.41 2.355.528 1.243 1.5 1.922 2.772 1.922zm-.012-.925c-1.084 0-1.91-.856-1.91-1.987 0-1.119.802-1.916 1.922-1.916 1.119 0 1.898.797 1.898 1.951 0 1.108-.826 1.952-1.91 1.952zm7.518.931c1.898 0 2.988-1.605 2.988-4.412 0-2.801-1.108-4.441-2.988-4.441-1.893 0-3 1.634-3 4.424 0 2.812 1.095 4.429 3 4.429zm0-.92c-1.249 0-1.94-1.248-1.94-3.509 0-2.233.703-3.499 1.94-3.499 1.236 0 1.927 1.254 1.927 3.499 0 2.267-.679 3.509-1.927 3.509zm13.183.721v-8.455h-1.225l-2.894 6.996h-.094l-2.894-6.996h-1.225V256h.984v-6.457h.071l2.666 6.398h.89l2.666-6.398h.071V256h.984z"/>
    <rect width="208" height="20" x="60" y="242" fill="#3E3E5F" fill-opacity=".12" rx="2"/>
    <rect width="156" height="20" x="60" y="242" fill="#FFB400" rx="2"/>
    <rect width="208" height="42" x="443" y="263" fill="#fff" rx="4"/>
    <rect width="207" height="41" x="443.5" y="263.5" stroke="#3E3E5F" stroke-opacity=".12" rx="3.5"/>
    <g clip-path="url(#prefix__clip5)">
        <path fill="#4CECC9" d="M471.343 287.328l-2.507-2.507-.836.836 3.343 3.343 7.164-7.164-.835-.836-6.329 6.328z"/>
    </g>
    <path fill="#3E3E5F" fill-opacity=".6" d="M483.295 288h1.107l3.762-7.477v-.978h-5.596v.943h4.524v.082l-3.797 7.43zm9.158.199c1.899 0 2.988-1.605 2.988-4.412 0-2.801-1.107-4.441-2.988-4.441-1.892 0-3 1.634-3 4.424 0 2.812 1.096 4.429 3 4.429zm0-.92c-1.248 0-1.939-1.248-1.939-3.509 0-2.233.703-3.499 1.939-3.499 1.236 0 1.928 1.254 1.928 3.499 0 2.267-.68 3.509-1.928 3.509zm7.846-5.847c0-1.196-.744-2.034-1.799-2.034s-1.805.844-1.805 2.034c0 1.195.75 2.039 1.805 2.039s1.799-.844 1.799-2.039zm-1.799 1.289c-.521 0-.867-.51-.867-1.289 0-.78.34-1.284.867-1.284.527 0 .861.493.861 1.284 0 .773-.345 1.289-.861 1.289zm-.094 5.279l2.901-3.967 3.281-4.488h-1.067l-2.964 4.049-3.229 4.406h1.078zm6.785-1.893c0-1.195-.744-2.033-1.798-2.033-1.055 0-1.805.844-1.805 2.033 0 1.196.75 2.039 1.805 2.039 1.054 0 1.798-.843 1.798-2.039zm-1.798 1.289c-.522 0-.868-.509-.868-1.289 0-.779.34-1.283.868-1.283.527 0 .861.492.861 1.283 0 .774-.346 1.289-.861 1.289z"/>
    <path fill="#D91414" d="M524 281.806l-.806-.806-3.194 3.194-3.194-3.194-.806.806 3.194 3.194-3.194 3.194.806.806 3.194-3.194 3.194 3.194.806-.806-3.194-3.194 3.194-3.194z"/>
    <path fill="#3E3E5F" fill-opacity=".6" d="M527.891 281.924v.006h1.019v-.006c0-.996.668-1.658 1.658-1.658.932 0 1.653.65 1.653 1.494 0 .679-.264 1.136-1.354 2.32l-2.924 3.193V288h5.473v-.949h-3.961v-.094l2.033-2.186c1.389-1.488 1.787-2.173 1.787-3.052 0-1.342-1.16-2.373-2.677-2.373-1.571 0-2.707 1.078-2.707 2.578zm10.148 6.275c1.899 0 2.988-1.605 2.988-4.412 0-2.801-1.107-4.441-2.988-4.441-1.893 0-3 1.634-3 4.424 0 2.812 1.096 4.429 3 4.429zm0-.92c-1.248 0-1.939-1.248-1.939-3.509 0-2.233.703-3.499 1.939-3.499 1.236 0 1.928 1.254 1.928 3.499 0 2.267-.68 3.509-1.928 3.509zm7.846-5.847c0-1.196-.744-2.034-1.799-2.034s-1.805.844-1.805 2.034c0 1.195.75 2.039 1.805 2.039s1.799-.844 1.799-2.039zm-1.799 1.289c-.522 0-.867-.51-.867-1.289 0-.78.34-1.284.867-1.284.527 0 .861.493.861 1.284 0 .773-.345 1.289-.861 1.289zm-.094 5.279l2.901-3.967 3.281-4.488h-1.067l-2.964 4.049-3.229 4.406h1.078zm6.785-1.893c0-1.195-.744-2.033-1.798-2.033-1.055 0-1.805.844-1.805 2.033 0 1.196.75 2.039 1.805 2.039 1.054 0 1.798-.843 1.798-2.039zm-1.798 1.289c-.522 0-.868-.509-.868-1.289 0-.779.34-1.283.868-1.283.527 0 .861.492.861 1.283 0 .774-.346 1.289-.861 1.289zM575.965 288h1.055v-8.455h-1.049l-2.25 1.617v1.113l2.15-1.558h.094V288zm6.422.199c1.898 0 2.988-1.605 2.988-4.412 0-2.801-1.107-4.441-2.988-4.441-1.893 0-3 1.634-3 4.424 0 2.812 1.095 4.429 3 4.429zm0-.92c-1.248 0-1.94-1.248-1.94-3.509 0-2.233.703-3.499 1.94-3.499 1.236 0 1.927 1.254 1.927 3.499 0 2.267-.679 3.509-1.927 3.509zm7.845-5.847c0-1.196-.744-2.034-1.798-2.034-1.055 0-1.805.844-1.805 2.034 0 1.195.75 2.039 1.805 2.039 1.054 0 1.798-.844 1.798-2.039zm-1.798 1.289c-.522 0-.868-.51-.868-1.289 0-.78.34-1.284.868-1.284.527 0 .861.493.861 1.284 0 .773-.346 1.289-.861 1.289zM588.34 288l2.9-3.967 3.281-4.488h-1.066l-2.965 4.049-3.228 4.406h1.078zm6.785-1.893c0-1.195-.744-2.033-1.799-2.033s-1.805.844-1.805 2.033c0 1.196.75 2.039 1.805 2.039s1.799-.843 1.799-2.039zm-1.799 1.289c-.521 0-.867-.509-.867-1.289 0-.779.34-1.283.867-1.283.528 0 .862.492.862 1.283 0 .774-.346 1.289-.862 1.289z"/>
    <circle cx="566" cy="285" r="4" fill="#3E3E5F" fill-opacity=".3"/>
    <rect width="100" height="95" x="443" y="321" fill="#FFB400" fill-opacity=".12" rx="4"/>
    <path fill="#3E3E5F" d="M467.966 382h1.318v-10.569h-1.311l-2.812 2.022v1.391l2.688-1.948h.117V382zm5.156.073c.527 0 .952-.432.952-.952 0-.527-.425-.952-.952-.952-.52 0-.952.425-.952.952 0 .52.432.952.952.952zm6.409.176c2.19 0 3.691-1.465 3.691-3.611 0-2.08-1.406-3.537-3.413-3.537-.974 0-1.721.3-2.234.9h-.117l.3-3.391h4.864v-1.179h-5.896l-.579 5.991h1.238c.432-.754 1.223-1.186 2.182-1.186 1.385 0 2.337.989 2.337 2.439 0 1.45-.945 2.417-2.359 2.417-1.245 0-2.153-.762-2.27-1.904h-1.296c.117 1.823 1.552 3.061 3.552 3.061zm10.041-.249h1.26v-4.893c0-1.113.798-2.006 1.831-2.006.996 0 1.648.6 1.648 1.538V382h1.26v-5.076c0-1.003.732-1.823 1.831-1.823 1.113 0 1.662.571 1.662 1.735V382h1.26v-5.457c0-1.655-.901-2.578-2.512-2.578-1.091 0-1.992.55-2.417 1.385h-.117c-.366-.821-1.113-1.385-2.183-1.385-1.054 0-1.845.506-2.204 1.385h-.118v-1.246h-1.201V382zm13.081 0h1.26v-7.896h-1.26V382zm.63-9.5c.484 0 .879-.395.879-.878 0-.484-.395-.879-.879-.879-.483 0-.879.395-.879.879 0 .483.396.878.879.878zm3.032 9.5h1.26v-4.673c0-1.384.813-2.226 2.073-2.226s1.86.673 1.86 2.094V382h1.26v-5.112c0-1.875-.989-2.923-2.761-2.923-1.209 0-1.978.513-2.373 1.385h-.117v-1.246h-1.202V382zm8.577-5.735c0 1.143.674 1.78 2.153 2.139l1.355.329c.843.205 1.253.572 1.253 1.114 0 .725-.762 1.23-1.824 1.23-1.011 0-1.641-.425-1.853-1.091h-1.296c.139 1.311 1.347 2.153 3.105 2.153 1.795 0 3.164-.974 3.164-2.388 0-1.135-.718-1.779-2.204-2.138l-1.216-.293c-.93-.227-1.37-.564-1.37-1.106 0-.703.733-1.179 1.67-1.179.952 0 1.567.417 1.736 1.047h1.245c-.168-1.296-1.318-2.117-2.974-2.117-1.677 0-2.944.989-2.944 2.3z"/>
    <path fill="#3E3E5F" fill-opacity=".4" d="M469.629 403v-3.639l3-4.816h-1.201l-2.28 3.756h-.093l-2.28-3.756h-1.201l3 4.816V403h1.055zm5.959.111c1.799 0 2.912-1.242 2.912-3.269 0-2.033-1.113-3.27-2.912-3.27s-2.912 1.237-2.912 3.27c0 2.027 1.113 3.269 2.912 3.269zm0-.908c-1.195 0-1.869-.867-1.869-2.361 0-1.5.674-2.362 1.869-2.362 1.195 0 1.869.862 1.869 2.362 0 1.494-.674 2.361-1.869 2.361zm9.603-5.519h-1.007v3.738c0 1.107-.61 1.769-1.723 1.769-1.008 0-1.43-.527-1.43-1.664v-3.843h-1.008v4.089c0 1.495.739 2.338 2.157 2.338.966 0 1.64-.398 1.957-1.101h.093v.99h.961v-6.316zM487.09 403h1.008v-3.914c0-.891.697-1.535 1.658-1.535.199 0 .562.035.644.058v-1.007c-.129-.018-.339-.03-.504-.03-.837 0-1.564.434-1.751 1.049h-.094v-.937h-.961V403zm11.338 0v-7.506h2.724v-.949h-6.504v.949h2.725V403h1.055zm4.131 0h1.007v-6.316h-1.007V403zm.503-7.6c.387 0 .704-.316.704-.703 0-.386-.317-.703-.704-.703-.386 0-.703.317-.703.703 0 .387.317.703.703.703zm2.426 7.6h1.008v-3.914c0-.891.639-1.606 1.465-1.606.797 0 1.318.481 1.318 1.231V403h1.008v-4.061c0-.802.586-1.459 1.465-1.459.891 0 1.33.458 1.33 1.389V403h1.008v-4.365c0-1.324-.721-2.063-2.01-2.063-.873 0-1.594.44-1.934 1.108h-.093c-.293-.657-.891-1.108-1.746-1.108-.844 0-1.477.405-1.764 1.108h-.094v-.996h-.961V403zm12.961-5.537c1.002 0 1.67.738 1.694 1.857h-3.481c.076-1.119.779-1.857 1.787-1.857zm1.664 3.902c-.263.557-.814.856-1.629.856-1.072 0-1.769-.791-1.822-2.039v-.047h4.541v-.387c0-1.963-1.037-3.176-2.742-3.176-1.734 0-2.848 1.289-2.848 3.276 0 1.998 1.096 3.263 2.848 3.263 1.383 0 2.355-.662 2.66-1.746h-1.008z"/>
    <path fill="#FFB400" d="M496 334h-6v2h6v-2zm-4 13h2v-6h-2v6zm8.03-6.61l1.42-1.42c-.43-.51-.9-.99-1.41-1.41l-1.42 1.42c-1.55-1.24-3.5-1.98-5.62-1.98-4.97 0-9 4.03-9 9s4.02 9 9 9 9-4.03 9-9c0-2.12-.74-4.07-1.97-5.61zM493 353c-3.87 0-7-3.13-7-7s3.13-7 7-7 7 3.13 7 7-3.13 7-7 7z"/>
    <rect width="100" height="95" x="551" y="321" fill="#4CECC9" fill-opacity=".16" rx="4"/>
    <path fill="#3E3E5F" d="M573.424 374.405v.007h1.275v-.007c0-1.245.835-2.073 2.072-2.073 1.165 0 2.066.813 2.066 1.868 0 .849-.33 1.421-1.692 2.9l-3.655 3.992V382h6.841v-1.187h-4.951v-.117l2.541-2.732c1.736-1.86 2.234-2.717 2.234-3.816 0-1.677-1.45-2.966-3.347-2.966-1.963 0-3.384 1.348-3.384 3.223zm9.961 7.668c.528 0 .952-.432.952-.952 0-.527-.424-.952-.952-.952-.52 0-.952.425-.952.952 0 .52.432.952.952.952zm5.42-.073h1.319v-10.569h-1.312L586 373.453v1.391l2.688-1.948h.117V382zm8.716 0h1.26v-4.893c0-1.113.798-2.006 1.831-2.006.996 0 1.648.6 1.648 1.538V382h1.26v-5.076c0-1.003.732-1.823 1.831-1.823 1.113 0 1.662.571 1.662 1.735V382h1.26v-5.457c0-1.655-.901-2.578-2.512-2.578-1.092 0-1.992.55-2.417 1.385h-.117c-.367-.821-1.114-1.385-2.183-1.385-1.055 0-1.846.506-2.205 1.385h-.117v-1.246h-1.201V382zm13.081 0h1.26v-7.896h-1.26V382zm.63-9.5c.483 0 .879-.395.879-.878 0-.484-.396-.879-.879-.879s-.879.395-.879.879c0 .483.396.878.879.878zm3.032 9.5h1.26v-4.673c0-1.384.813-2.226 2.073-2.226 1.259 0 1.86.673 1.86 2.094V382h1.26v-5.112c0-1.875-.989-2.923-2.761-2.923-1.209 0-1.978.513-2.373 1.385h-.118v-1.246h-1.201V382zm8.577-5.735c0 1.143.674 1.78 2.153 2.139l1.355.329c.842.205 1.253.572 1.253 1.114 0 .725-.762 1.23-1.824 1.23-1.011 0-1.641-.425-1.853-1.091h-1.297c.14 1.311 1.348 2.153 3.106 2.153 1.794 0 3.164-.974 3.164-2.388 0-1.135-.718-1.779-2.205-2.138l-1.215-.293c-.931-.227-1.37-.564-1.37-1.106 0-.703.732-1.179 1.67-1.179.952 0 1.567.417 1.736 1.047h1.245c-.169-1.296-1.319-2.117-2.974-2.117-1.677 0-2.944.989-2.944 2.3z"/>
    <path fill="#3E3E5F" fill-opacity=".4" d="M579.807 403h1.107l-3.117-8.455h-1.043L573.637 403h1.107l.85-2.42h3.363l.85 2.42zm-2.578-7.09h.093l1.324 3.774h-2.742l1.325-3.774zm9.375.774h-1.079l-1.728 5.203h-.094l-1.728-5.203h-1.079l2.338 6.316h1.032l2.338-6.316zm3.667 5.332c-1.171 0-1.828-.891-1.828-2.268 0-1.377.657-2.268 1.828-2.268 1.167 0 1.875.891 1.875 2.268 0 1.377-.703 2.268-1.875 2.268zm.047 3.41c1.723 0 2.813-.903 2.813-2.315v-6.427h-.961v1.002h-.094c-.363-.68-1.142-1.114-2.027-1.114-1.623 0-2.649 1.283-2.649 3.176 0 1.893 1.014 3.158 2.649 3.158.867 0 1.582-.392 1.98-1.09h.094v1.243c0 .931-.674 1.488-1.805 1.488-.908 0-1.47-.334-1.582-.85h-1.066c.152 1.043 1.125 1.729 2.648 1.729zm5.543-2.367c.422 0 .762-.346.762-.762 0-.422-.34-.762-.762-.762-.416 0-.761.34-.761.762 0 .416.345.762.761.762zm9.498-.059v-7.506h2.725v-.949h-6.504v.949h2.725V403h1.054zm4.131 0h1.008v-6.316h-1.008V403zm.504-7.6c.387 0 .703-.316.703-.703 0-.386-.316-.703-.703-.703-.387 0-.703.317-.703.703 0 .387.316.703.703.703zm2.426 7.6h1.008v-3.914c0-.891.638-1.606 1.465-1.606.796 0 1.318.481 1.318 1.231V403h1.008v-4.061c0-.802.586-1.459 1.465-1.459.89 0 1.33.458 1.33 1.389V403h1.007v-4.365c0-1.324-.72-2.063-2.009-2.063-.873 0-1.594.44-1.934 1.108h-.094c-.293-.657-.89-1.108-1.746-1.108-.843 0-1.476.405-1.763 1.108h-.094v-.996h-.961V403zm12.961-5.537c1.002 0 1.67.738 1.693 1.857h-3.48c.076-1.119.779-1.857 1.787-1.857zm1.664 3.902c-.264.557-.815.856-1.629.856-1.072 0-1.77-.791-1.822-2.039v-.047h4.541v-.387c0-1.963-1.037-3.176-2.742-3.176-1.735 0-2.848 1.289-2.848 3.276 0 1.998 1.096 3.263 2.848 3.263 1.382 0 2.355-.662 2.66-1.746h-1.008z"/>
    <path fill="#4CECC9" d="M604 334h-6v2h6v-2zm-4 13h2v-6h-2v6zm8.03-6.61l1.42-1.42c-.43-.51-.9-.99-1.41-1.41l-1.42 1.42c-1.55-1.24-3.5-1.98-5.62-1.98-4.97 0-9 4.03-9 9s4.02 9 9 9 9-4.03 9-9c0-2.12-.74-4.07-1.97-5.61zM601 353c-3.87 0-7-3.13-7-7s3.13-7 7-7 7 3.13 7 7-3.13 7-7 7z"/>
    <g fill="#2EBF91" clip-path="url(#prefix__clip6)">
        <path d="M558.22 236.224c-3.912-45.768-31.747-74.262-57.22-78.752l.437-2.472c26.416 4.659 55.264 33.98 59.284 81.011l-2.501.213z"/>
        <path d="M559.507 238.999l-9.55-10.467 2.226-2.03 6.739 7.388 4.676-8.328 2.626 1.475-6.717 11.962z"/>
    </g>
    <defs>
        <clipPath id="prefix__clip0">
            <path fill="#fff" d="M454 108H464.508V116H454z"/>
        </clipPath>
        <clipPath id="prefix__clip1">
            <path fill="#fff" d="M506 108H516.508V116H506z"/>
        </clipPath>
        <clipPath id="prefix__clip2">
            <path fill="#fff" d="M610 108H620.508V116H610z"/>
        </clipPath>
        <clipPath id="prefix__clip3">
            <path fill="#fff" d="M662 108H672.508V116H662z"/>
        </clipPath>
        <clipPath id="prefix__clip4">
            <path fill="#fff" d="M410 244H472V300H410z" transform="rotate(-90 410 244)"/>
        </clipPath>
        <clipPath id="prefix__clip5">
            <path fill="#fff" d="M468 281H478.508V289H468z"/>
        </clipPath>
        <clipPath id="prefix__clip6">
            <path fill="#fff" d="M501 155H566.224V239H501z"/>
        </clipPath>
        <filter id="prefix__filter0_d" width="428" height="198" x="0" y="164" color-interpolation-filters="sRGB" filterUnits="userSpaceOnUse">
            <feFlood flood-opacity="0" result="BackgroundImageFix"/>
            <feColorMatrix in="SourceAlpha" values="0 0 0 0 0 0 0 0 0 0 0 0 0 0 0 0 0 0 127 0"/>
            <feOffset dx="2" dy="16"/>
            <feGaussianBlur stdDeviation="16"/>
            <feColorMatrix values="0 0 0 0 0 0 0 0 0 0 0 0 0 0 0 0 0 0 0.12 0"/>
            <feBlend in2="BackgroundImageFix" result="effect1_dropShadow"/>
            <feBlend in="SourceGraphic" in2="effect1_dropShadow" result="shape"/>
        </filter>
    </defs>
</svg>
