<svg xmlns="http://www.w3.org/2000/svg" xmlns:xlink="http://www.w3.org/1999/xlink" width="530" height="421" fill="none" viewBox="0 0 530 421">
    <path fill="#fff" d="M313 199H530V416H313z"/>
    <path fill="url(#prefix__pattern0)" fill-opacity=".3" d="M313 199H530V416H313z"/>
    <path fill="#3E3E5F" fill-opacity=".5" d="M192.41 259v-8.455h-1.224l-2.895 6.996h-.094l-2.894-6.996h-1.225V259h.984v-6.457h.071l2.666 6.398h.89l2.666-6.398h.071V259h.984zm3.973-.773c-.733 0-1.278-.375-1.278-1.02 0-.633.422-.967 1.383-1.031l1.7-.112v.581c0 .902-.768 1.582-1.805 1.582zm-.188.884c.844 0 1.535-.369 1.946-1.043h.093V259h.961v-4.324c0-1.313-.861-2.104-2.402-2.104-1.348 0-2.344.668-2.479 1.682h1.02c.141-.498.668-.785 1.424-.785.943 0 1.43.427 1.43 1.207v.574l-1.823.111c-1.47.088-2.303.739-2.303 1.869 0 1.155.909 1.881 2.133 1.881zm4.864-.111h1.007v-3.914c0-.891.698-1.535 1.659-1.535.199 0 .562.035.644.058v-1.007c-.129-.018-.34-.03-.504-.03-.838 0-1.564.434-1.752 1.049h-.093v-.937h-.961V259zm5.73-3.557h-.094v-5.267h-1.007V259h1.007v-2.396l.604-.563 2.367 2.959h1.283l-2.9-3.609 2.719-2.707h-1.237l-2.742 2.759zm4.975-1.031c0 .914.539 1.424 1.722 1.711l1.084.264c.674.164 1.002.457 1.002.89 0 .58-.609.985-1.459.985-.808 0-1.312-.34-1.482-.873h-1.037c.111 1.049 1.078 1.722 2.484 1.722 1.436 0 2.531-.779 2.531-1.91 0-.908-.574-1.424-1.763-1.711l-.973-.234c-.744-.182-1.096-.451-1.096-.885 0-.562.586-.943 1.336-.943.762 0 1.254.334 1.389.838h.996c-.135-1.037-1.055-1.694-2.379-1.694-1.342 0-2.355.791-2.355 1.84zM224.959 259v-7.506h2.725v-.949h-6.504v.949h2.724V259h1.055zm3.346 0h1.007v-3.914c0-.891.698-1.535 1.659-1.535.199 0 .562.035.644.058v-1.007c-.129-.018-.34-.03-.504-.03-.838 0-1.564.434-1.752 1.049h-.093v-.937h-.961V259zm6.914-5.537c1.002 0 1.67.738 1.693 1.857h-3.48c.076-1.119.779-1.857 1.787-1.857zm1.664 3.902c-.264.557-.815.856-1.629.856-1.072 0-1.77-.791-1.822-2.039v-.047h4.541v-.387c0-1.963-1.037-3.176-2.743-3.176-1.734 0-2.847 1.289-2.847 3.276 0 1.998 1.096 3.263 2.847 3.263 1.383 0 2.356-.662 2.661-1.746h-1.008zm2.672 1.635h1.007v-3.738c0-1.108.651-1.782 1.659-1.782s1.488.54 1.488 1.676V259h1.008v-4.09c0-1.5-.791-2.338-2.209-2.338-.967 0-1.582.41-1.899 1.108h-.093v-.996h-.961V259zm9.345.111c.873 0 1.623-.416 2.022-1.119h.094V259h.961v-8.824h-1.008v3.504h-.088c-.358-.692-1.102-1.108-1.981-1.108-1.605 0-2.654 1.289-2.654 3.27 0 1.986 1.037 3.269 2.654 3.269zm.235-5.631c1.142 0 1.857.915 1.857 2.362 0 1.459-.709 2.361-1.857 2.361-1.155 0-1.846-.885-1.846-2.361 0-1.471.697-2.362 1.846-2.362z"/>
    <g filter="url(#prefix__filter0_d)">
        <rect width="377" height="80" x="30" y="293" fill="#fff" rx="4"/>
    </g>
    <path fill="#3E3E5F" d="M106.714 323.203c0 1.834 1.411 3.079 3.42 3.079 2.166 0 3.486-1.336 3.486-3.619v-8.641h-1.494v8.633c0 1.469-.722 2.249-2.001 2.249-1.128 0-1.892-.697-1.925-1.701h-1.486zm17.382 1.452h-5.927v-4.117h5.62v-1.328h-5.62v-3.843h5.927v-1.345h-7.421V326h7.421v-1.345zm10.127 0h-5.927v-4.117h5.62v-1.328h-5.62v-3.843h5.927v-1.345h-7.421V326h7.421v-1.345zM153.53 326v-11.978h-1.735l-4.1 9.911h-.133l-4.101-9.911h-1.734V326h1.394v-9.147h.1l3.777 9.064h1.261l3.777-9.064h.1V326h1.394zm5.628-1.096c-1.037 0-1.809-.531-1.809-1.444 0-.897.597-1.37 1.959-1.461l2.407-.158v.822c0 1.278-1.088 2.241-2.557 2.241zm-.265 1.254c1.195 0 2.174-.523 2.755-1.478h.133V326h1.362v-6.126c0-1.859-1.221-2.98-3.404-2.98-1.909 0-3.32.946-3.511 2.382h1.444c.2-.705.947-1.112 2.017-1.112 1.337 0 2.026.606 2.026 1.71v.814l-2.582.157c-2.083.125-3.262 1.046-3.262 2.648 0 1.635 1.287 2.665 3.022 2.665zm6.922-.158h1.428v-8.948h-1.428V326zm.714-10.766c.548 0 .996-.448.996-.996s-.448-.996-.996-.996-.996.448-.996.996.448.996.996.996zM169.966 326h1.428v-5.296c0-1.569.921-2.523 2.349-2.523 1.427 0 2.108.763 2.108 2.374V326h1.428v-5.794c0-2.125-1.121-3.312-3.13-3.312-1.369 0-2.241.581-2.689 1.569h-.133v-1.411h-1.361V326zm9.72-6.5c0 1.295.764 2.018 2.44 2.424l1.536.374c.955.232 1.42.647 1.42 1.262 0 .821-.864 1.394-2.067 1.394-1.146 0-1.86-.481-2.1-1.237h-1.47c.158 1.486 1.528 2.441 3.52 2.441 2.034 0 3.586-1.104 3.586-2.706 0-1.287-.814-2.017-2.499-2.424l-1.378-.332c-1.054-.258-1.552-.639-1.552-1.254 0-.796.83-1.336 1.893-1.336 1.079 0 1.776.473 1.967 1.187h1.411c-.191-1.469-1.494-2.399-3.37-2.399-1.901 0-3.337 1.121-3.337 2.606zm18.693 6.5v-10.633h3.86v-1.345h-9.214v1.345h3.86V326h1.494zm7.894-7.844c1.42 0 2.366 1.046 2.399 2.631h-4.93c.108-1.585 1.104-2.631 2.531-2.631zm2.358 5.528c-.374.789-1.154 1.212-2.308 1.212-1.519 0-2.507-1.121-2.581-2.889v-.066h6.433v-.548c0-2.781-1.469-4.499-3.885-4.499-2.457 0-4.034 1.826-4.034 4.64 0 2.831 1.552 4.624 4.034 4.624 1.959 0 3.337-.938 3.769-2.474h-1.428zm3.577-4.184c0 1.295.764 2.018 2.441 2.424l1.536.374c.954.232 1.419.647 1.419 1.262 0 .821-.863 1.394-2.067 1.394-1.145 0-1.859-.481-2.1-1.237h-1.469c.157 1.486 1.527 2.441 3.519 2.441 2.034 0 3.586-1.104 3.586-2.706 0-1.287-.813-2.017-2.498-2.424l-1.378-.332c-1.054-.258-1.552-.639-1.552-1.254 0-.796.83-1.336 1.892-1.336 1.079 0 1.776.473 1.967 1.187h1.412c-.191-1.469-1.495-2.399-3.371-2.399-1.9 0-3.337 1.121-3.337 2.606zm9.621-4.764v2.316h-1.444v1.195h1.444v5.429c0 1.71.739 2.39 2.582 2.39.282 0 .556-.033.838-.083v-1.203c-.266.025-.407.033-.664.033-.93 0-1.328-.448-1.328-1.502v-5.064h1.992v-1.195h-1.992v-2.316h-1.428zm15.763 7.122v-1.353h-5.445v1.353h5.445zM247.877 326h1.494v-11.978h-1.486l-3.187 2.291v1.577l3.046-2.208h.133V326zm10.542 0h1.461v-2.482h1.702v-1.336h-1.702v-8.16h-2.167c-2.158 3.229-4.059 6.234-5.13 8.135v1.361h5.836V326zm-4.308-3.91c1.428-2.423 2.988-4.897 4.217-6.682h.099v6.782h-4.316v-.1z"/>
    <path fill="#FFB400" d="M291 293h112c2.209 0 4 1.791 4 4v20H291v-24z"/>
    <path fill="#3E3E5F" d="M301.162 300.545h-1.055v5.549c0 1.804 1.26 3.105 3.358 3.105 2.097 0 3.357-1.301 3.357-3.105v-5.549h-1.054v5.478c0 1.278-.838 2.204-2.303 2.204-1.465 0-2.303-.926-2.303-2.204v-5.478zm7.846 0V309h1.054v-3.018h2.127c1.588 0 2.719-1.119 2.719-2.701 0-1.611-1.107-2.736-2.707-2.736h-3.193zm1.054.937h1.864c1.224 0 1.898.639 1.898 1.799 0 1.119-.697 1.764-1.898 1.764h-1.864v-3.563zm9.979 7.717c1.799 0 3.135-1.002 3.416-2.554h-1.072c-.27.978-1.166 1.582-2.344 1.582-1.629 0-2.648-1.331-2.648-3.452s1.019-3.457 2.642-3.457c1.166 0 2.069.686 2.35 1.776h1.072c-.252-1.629-1.641-2.748-3.422-2.748-2.297 0-3.726 1.699-3.726 4.429 0 2.725 1.435 4.424 3.732 4.424zm8.742-8.853c-2.39 0-3.885 1.705-3.885 4.424 0 2.707 1.459 4.429 3.885 4.429 2.414 0 3.867-1.728 3.867-4.429 0-2.713-1.464-4.424-3.867-4.424zm0 .972c1.729 0 2.783 1.336 2.783 3.452 0 2.097-1.048 3.457-2.783 3.457-1.758 0-2.801-1.36-2.801-3.457 0-2.116 1.079-3.452 2.801-3.452zM342.816 309v-8.455h-1.224l-2.895 6.996h-.093l-2.895-6.996h-1.225V309h.985v-6.457h.07l2.666 6.398h.891l2.666-6.398h.07V309h.984zm3.211 0v-8.455h-1.054V309h1.054zm3.2 0v-6.557h.093l4.588 6.557h1.026v-8.455h-1.043v6.58h-.094l-4.588-6.58h-1.025V309h1.043zm14.959-3.27v-1.031h-3.428v.926h2.379v.205c0 1.43-1.026 2.397-2.537 2.397-1.7 0-2.754-1.325-2.754-3.457 0-2.104 1.072-3.452 2.748-3.452 1.254 0 2.103.604 2.467 1.746h1.072c-.305-1.675-1.664-2.718-3.539-2.718-2.315 0-3.832 1.752-3.832 4.424 0 2.707 1.494 4.429 3.832 4.429 2.162 0 3.592-1.383 3.592-3.469zm8.507 3.27v-7.506h2.725v-.949h-6.504v.949h2.725V309h1.054zm9.592-.949h-4.183v-2.906h3.966v-.938h-3.966v-2.713h4.183v-.949h-5.238V309h5.238v-.949zm1.506-1.26c.111 1.459 1.348 2.408 3.141 2.408 1.933 0 3.158-.99 3.158-2.543 0-1.242-.703-1.922-2.455-2.361l-.885-.234c-1.166-.299-1.629-.68-1.629-1.342 0-.856.744-1.418 1.869-1.418 1.055 0 1.77.515 1.916 1.383h1.061c-.088-1.366-1.307-2.338-2.942-2.338-1.787 0-2.988.972-2.988 2.408 0 1.201.662 1.892 2.192 2.279l1.083.281c1.167.293 1.694.75 1.694 1.471 0 .838-.838 1.453-1.975 1.453-1.201 0-2.045-.562-2.174-1.447h-1.066zM395.1 309v-7.506h2.724v-.949h-6.504v.949h2.725V309h1.055z"/>
    <path fill="#3E3E5F" fill-opacity=".5" d="M109.645 351.193c2.068 0 3.251-1.664 3.251-4.57 0-.932-.134-1.711-.41-2.355-.527-1.248-1.506-1.922-2.771-1.922-1.735 0-2.965 1.213-2.965 2.912 0 1.64 1.166 2.83 2.777 2.83 1.008 0 1.834-.481 2.25-1.301h.094c-.059 2.25-.838 3.469-2.215 3.469-.832 0-1.47-.481-1.699-1.272h-1.084c.27 1.36 1.336 2.209 2.772 2.209zm.07-4.019c-1.119 0-1.899-.797-1.899-1.951 0-1.108.827-1.952 1.911-1.952s1.91.856 1.91 1.987c0 1.119-.803 1.916-1.922 1.916zm7.723 4.025c1.898 0 2.988-1.605 2.988-4.412 0-2.801-1.108-4.441-2.988-4.441-1.893 0-3 1.634-3 4.424 0 2.812 1.095 4.429 3 4.429zm0-.92c-1.249 0-1.94-1.248-1.94-3.509 0-2.233.703-3.499 1.94-3.499 1.236 0 1.927 1.254 1.927 3.499 0 2.267-.679 3.509-1.927 3.509zm8.408.92c.545 0 1.06-.088 1.511-.258l.745 1.014h1.183l-1.072-1.488c.961-.692 1.5-2.01 1.5-3.692 0-2.724-1.488-4.429-3.867-4.429-2.391 0-3.885 1.699-3.885 4.429 0 2.743 1.477 4.424 3.885 4.424zm.006-.972c-1.735 0-2.807-1.319-2.807-3.452 0-2.127 1.078-3.457 2.801-3.457 1.711 0 2.783 1.336 2.783 3.457 0 1.289-.369 2.297-1.031 2.825l-.768-1.02h-1.195l1.119 1.518c-.293.088-.592.129-.902.129zM141.672 347.104h1.072c1.201 0 1.945.609 1.945 1.587 0 .926-.791 1.588-1.904 1.588-1.09 0-1.851-.58-1.945-1.482h-1.02c.076 1.447 1.26 2.402 2.977 2.402 1.67 0 2.976-1.084 2.976-2.478 0-1.155-.697-1.951-1.845-2.098v-.094c.926-.222 1.482-.961 1.482-1.968 0-1.231-1.178-2.215-2.654-2.215-1.611 0-2.66.902-2.766 2.367h1.026c.088-.908.726-1.447 1.699-1.447.973 0 1.623.574 1.623 1.435 0 .879-.68 1.5-1.641 1.5h-1.025v.903zm8.783 4.089c1.734 0 2.965-1.213 2.965-2.912 0-1.64-1.166-2.83-2.777-2.83-1.008 0-1.834.481-2.25 1.301h-.094c.058-2.25.838-3.469 2.215-3.469.832 0 1.47.481 1.699 1.272h1.084c-.27-1.36-1.336-2.209-2.772-2.209-2.068 0-3.252 1.664-3.252 4.57 0 .932.135 1.711.411 2.355.527 1.243 1.5 1.922 2.771 1.922zm-.012-.925c-1.084 0-1.91-.856-1.91-1.987 0-1.119.803-1.916 1.922-1.916 1.119 0 1.899.797 1.899 1.951 0 1.108-.827 1.952-1.911 1.952zm7.518.931c1.898 0 2.988-1.605 2.988-4.412 0-2.801-1.107-4.441-2.988-4.441-1.893 0-3 1.634-3 4.424 0 2.812 1.096 4.429 3 4.429zm0-.92c-1.248 0-1.94-1.248-1.94-3.509 0-2.233.704-3.499 1.94-3.499s1.928 1.254 1.928 3.499c0 2.267-.68 3.509-1.928 3.509zm13.184.721v-8.455h-1.225l-2.895 6.996h-.093l-2.895-6.996h-1.225V351h.985v-6.457h.07l2.666 6.398h.891l2.666-6.398h.07V351h.985zM183.965 351h1.055v-8.455h-1.049l-2.25 1.617v1.113l2.15-1.558h.094V351zm6.469.199c1.793 0 3.046-1.013 3.046-2.461 0-1.101-.697-1.957-1.757-2.156v-.094c.873-.24 1.412-.961 1.412-1.886 0-1.319-1.119-2.256-2.701-2.256s-2.702.937-2.702 2.256c0 .919.551 1.652 1.413 1.886v.094c-1.061.199-1.758 1.055-1.758 2.156 0 1.448 1.254 2.461 3.047 2.461zm0-.902c-1.172 0-1.981-.668-1.981-1.635s.809-1.635 1.981-1.635c1.171 0 1.98.668 1.98 1.635s-.809 1.635-1.98 1.635zm0-4.16c-.996 0-1.664-.575-1.664-1.436 0-.873.662-1.453 1.664-1.453 1.002 0 1.664.58 1.664 1.453 0 .861-.668 1.436-1.664 1.436zm7.617 5.062c1.898 0 2.988-1.605 2.988-4.412 0-2.801-1.107-4.441-2.988-4.441-1.893 0-3 1.634-3 4.424 0 2.812 1.095 4.429 3 4.429zm0-.92c-1.248 0-1.94-1.248-1.94-3.509 0-2.233.703-3.499 1.94-3.499 1.236 0 1.928 1.254 1.928 3.499 0 2.267-.68 3.509-1.928 3.509zm4.722.721h1.008v-3.914c0-.891.639-1.606 1.465-1.606.797 0 1.318.481 1.318 1.231V351h1.008v-4.061c0-.802.586-1.459 1.465-1.459.891 0 1.33.458 1.33 1.389V351h1.008v-4.365c0-1.324-.721-2.063-2.01-2.063-.873 0-1.594.44-1.933 1.108h-.094c-.293-.657-.891-1.108-1.746-1.108-.844 0-1.477.405-1.764 1.108h-.094v-.996h-.961V351zm10.465 0h1.008v-6.316h-1.008V351zm.504-7.6c.387 0 .703-.316.703-.703 0-.386-.316-.703-.703-.703-.387 0-.703.317-.703.703 0 .387.316.703.703.703zm2.426 7.6h1.008v-3.738c0-1.108.65-1.782 1.658-1.782s1.488.54 1.488 1.676V351h1.008v-4.09c0-1.5-.791-2.338-2.209-2.338-.967 0-1.582.41-1.898 1.108h-.094v-.996h-.961V351z"/>
    <rect width="48" height="48" x="46" y="309" fill="#3E3E5F" fill-opacity=".12" rx="4"/>
    <path fill="#3E3E5F" d="M60.262 322.392v.008h1.444v-.008c0-1.411.946-2.349 2.35-2.349 1.319 0 2.34.921 2.34 2.117 0 .963-.374 1.61-1.918 3.287l-4.142 4.524V331h7.753v-1.345h-5.611v-.133l2.88-3.096c1.968-2.108 2.532-3.079 2.532-4.324 0-1.901-1.643-3.362-3.793-3.362-2.225 0-3.835 1.527-3.835 3.652zm14.443 8.89c2.54 0 4.317-1.436 4.317-3.486 0-1.561-.988-2.773-2.49-3.055v-.133c1.236-.34 2-1.361 2-2.672 0-1.868-1.586-3.196-3.827-3.196-2.241 0-3.827 1.328-3.827 3.196 0 1.303.78 2.34 2 2.672v.133c-1.502.282-2.49 1.494-2.49 3.055 0 2.05 1.777 3.486 4.317 3.486zm0-1.278c-1.66 0-2.806-.946-2.806-2.316 0-1.37 1.146-2.316 2.806-2.316 1.66 0 2.806.946 2.806 2.316 0 1.37-1.146 2.316-2.806 2.316zm0-5.894c-1.411 0-2.357-.813-2.357-2.033 0-1.237.938-2.059 2.357-2.059 1.42 0 2.358.822 2.358 2.059 0 1.22-.947 2.033-2.358 2.033z"/>
    <path fill="#3E3E5F" fill-opacity=".5" d="M61.133 348v-3.662h3.744v-.938h-3.744v-2.906h4.078v-.949h-5.133V348h1.055zm11.05-.949H68v-2.906h3.967v-.938H68v-2.713h4.184v-.949h-5.239V348h5.239v-.949zm5.21.949c1.798 0 2.865-.885 2.865-2.373 0-1.119-.733-1.91-1.887-2.057v-.093c.815-.147 1.46-.944 1.46-1.823 0-1.295-.95-2.109-2.503-2.109h-3.234V348h3.299zm-2.245-7.523h1.958c1.048 0 1.658.498 1.658 1.359 0 .896-.65 1.353-1.928 1.353h-1.688v-2.712zm0 6.591v-2.97h1.987c1.347 0 2.039.498 2.039 1.476 0 .979-.668 1.494-1.94 1.494h-2.086z"/>
    <g clip-path="url(#prefix__clip0)">
        <path fill="#F2F2F2" d="M115.742 222.391s129.729-108.269 204.445 0H115.742z"/>
        <path fill="#000" d="M380.5 221.905c-6.036.049-14.025.99-15.633.011-1.225-.746-1.713-3.423-1.876-4.658l-.179.007s.339 4.312 1.947 5.291c1.608.98 9.597.038 15.633-.01 1.743-.015 2.345-.634 2.312-1.553-.242.555-.907.902-2.204.912z" opacity=".2"/>
        <path fill="#6C63FF" d="M130.821 160.941h-14.162c-2.554 0-4.624 2.07-4.624 4.624v52.398c0 2.554 2.07 4.624 4.624 4.624h14.162c2.554 0 4.624-2.07 4.624-4.624v-52.398c0-2.554-2.07-4.624-4.624-4.624zM175.298 123.875h-14.163c-2.553 0-4.623 2.07-4.623 4.624v89.463c0 2.554 2.07 4.624 4.623 4.624h14.163c2.553 0 4.623-2.07 4.623-4.624v-89.463c0-2.554-2.07-4.624-4.623-4.624zM219.778 98.127h-14.162c-2.554 0-4.624 2.07-4.624 4.624v115.214c0 2.553 2.07 4.623 4.624 4.623h14.162c2.554 0 4.624-2.07 4.624-4.623V102.751c0-2.554-2.07-4.624-4.624-4.624zM264.259 73.545h-14.163c-2.553 0-4.623 2.07-4.623 4.623v139.795c0 2.553 2.07 4.623 4.623 4.623h14.163c2.553 0 4.623-2.07 4.623-4.623V78.169c0-2.554-2.07-4.624-4.623-4.624zM308.735 30.627h-14.162c-2.554 0-4.624 2.07-4.624 4.624v182.712c0 2.553 2.07 4.623 4.624 4.623h14.162c2.554 0 4.624-2.07 4.624-4.623V35.251c0-2.554-2.07-4.624-4.624-4.624z"/>
        <path stroke="#3F3D56" stroke-miterlimit="10" d="M133.942 157.82H119.78c-2.554 0-4.624 2.07-4.624 4.624v52.398c0 2.554 2.07 4.624 4.624 4.624h14.162c2.554 0 4.624-2.07 4.624-4.624v-52.398c0-2.554-2.07-4.624-4.624-4.624zM178.423 120.756H164.26c-2.553 0-4.623 2.07-4.623 4.623v89.464c0 2.554 2.07 4.624 4.623 4.624h14.163c2.553 0 4.623-2.07 4.623-4.624v-89.464c0-2.553-2.07-4.623-4.623-4.623zM222.899 95.004h-14.162c-2.554 0-4.624 2.07-4.624 4.623v115.215c0 2.553 2.07 4.623 4.624 4.623h14.162c2.554 0 4.624-2.07 4.624-4.623V99.627c0-2.553-2.07-4.623-4.624-4.623zM267.376 70.424h-14.163c-2.553 0-4.623 2.07-4.623 4.623v139.795c0 2.553 2.07 4.623 4.623 4.623h14.163c2.553 0 4.624-2.07 4.624-4.623V75.047c0-2.553-2.071-4.623-4.624-4.623zM311.856 27.506h-14.162c-2.554 0-4.624 2.07-4.624 4.623v182.712c0 2.554 2.07 4.624 4.624 4.624h14.162c2.554 0 4.624-2.07 4.624-4.624V32.129c0-2.553-2.07-4.623-4.624-4.623zM385.929 222.781H50M126.664 134.217l44.478-37.066 44.869-25.36 44.478-24.58 44.479-42.918"/>
        <path fill="#F2F2F2" d="M125.495 140.459c2.37 0 4.292-1.922 4.292-4.292 0-2.371-1.922-4.292-4.292-4.292s-4.292 1.921-4.292 4.292c0 2.37 1.922 4.292 4.292 4.292zM169.975 103.392c2.371 0 4.292-1.921 4.292-4.292 0-2.37-1.921-4.291-4.292-4.291-2.37 0-4.291 1.921-4.291 4.291 0 2.371 1.921 4.292 4.291 4.292zM214.843 78.03c2.37 0 4.291-1.92 4.291-4.291 0-2.37-1.921-4.292-4.291-4.292-2.371 0-4.292 1.922-4.292 4.292s1.921 4.292 4.292 4.292zM259.323 53.453c2.37 0 4.292-1.922 4.292-4.292s-1.922-4.292-4.292-4.292-4.292 1.922-4.292 4.292 1.922 4.292 4.292 4.292zM303.8 10.535c2.37 0 4.291-1.922 4.291-4.292S306.17 1.95 303.8 1.95c-2.371 0-4.292 1.922-4.292 4.292s1.921 4.292 4.292 4.292z"/>
        <path stroke="#3F3D56" stroke-miterlimit="10" d="M126.667 138.507c2.37 0 4.292-1.921 4.292-4.291 0-2.371-1.922-4.292-4.292-4.292-2.371 0-4.292 1.921-4.292 4.292 0 2.37 1.921 4.291 4.292 4.291zM171.143 101.441c2.371 0 4.292-1.922 4.292-4.292s-1.921-4.292-4.292-4.292c-2.37 0-4.291 1.922-4.291 4.292s1.921 4.292 4.291 4.292zM216.014 76.082c2.371 0 4.292-1.922 4.292-4.292s-1.921-4.292-4.292-4.292c-2.37 0-4.291 1.921-4.291 4.292 0 2.37 1.921 4.292 4.291 4.292zM260.491 51.502c2.37 0 4.292-1.922 4.292-4.292s-1.922-4.292-4.292-4.292-4.292 1.922-4.292 4.292 1.922 4.291 4.292 4.291zM304.971 8.584c2.371 0 4.292-1.922 4.292-4.292S307.342 0 304.971 0c-2.37 0-4.291 1.921-4.291 4.292 0 2.37 1.921 4.292 4.291 4.292z"/>
        <g clip-path="url(#prefix__clip1)">
            <rect width="52" height="32" x="127" y="53" fill="#4CECC9" rx="2"/>
            <path fill="#fff" d="M137.924 73h1.512v-8.455h-1.506l-2.209 1.547v1.453l2.103-1.477h.1V73zm7.066.21c1.951 0 3.287-1.007 3.287-2.478 0-1.09-.726-1.945-1.828-2.15v-.1c.908-.228 1.483-.949 1.483-1.857 0-1.336-1.219-2.291-2.936-2.291-1.717 0-2.941.955-2.941 2.291 0 .902.586 1.635 1.488 1.857v.1c-1.107.234-1.828 1.084-1.828 2.156 0 1.465 1.336 2.473 3.275 2.473zm.006-1.177c-1.019 0-1.723-.58-1.723-1.424 0-.843.704-1.423 1.723-1.423 1.014 0 1.717.58 1.717 1.423 0 .844-.697 1.424-1.717 1.424zm0-4.008c-.861 0-1.453-.51-1.453-1.254 0-.755.586-1.277 1.453-1.277.861 0 1.447.522 1.447 1.278 0 .744-.591 1.253-1.447 1.253zm7.998 5.186c2.022 0 3.223-1.64 3.223-4.436 0-2.806-1.219-4.441-3.223-4.441-2.01 0-3.228 1.635-3.228 4.43 0 2.806 1.201 4.447 3.228 4.447zm0-1.254c-1.072 0-1.699-1.113-1.699-3.193 0-2.063.639-3.17 1.699-3.17 1.061 0 1.694 1.101 1.694 3.17 0 2.08-.622 3.193-1.694 3.193zM169.957 73v-8.455h-1.769l-2.543 6.158h-.106l-2.543-6.158h-1.769V73h1.406v-5.947h.082l2.338 5.619h1.078l2.338-5.62h.082V73h1.406z"/>
            <path fill="#4CECC9" d="M163 80.473l6.718 7.962 6.717-7.962H163z"/>
        </g>
    </g>
    <defs>
        <clipPath id="prefix__clip0">
            <path fill="#fff" d="M50 0H385.929V223H50z"/>
        </clipPath>
        <clipPath id="prefix__clip1">
            <path fill="#fff" d="M127 53H179V88.435H127z"/>
        </clipPath>
        <pattern id="prefix__pattern0" width=".147" height=".147" patternContentUnits="objectBoundingBox">
            <use transform="scale(.00184)" xlink:href="#prefix__image0"/>
        </pattern>
        <filter id="prefix__filter0_d" width="441" height="144" x="0" y="277" color-interpolation-filters="sRGB" filterUnits="userSpaceOnUse">
            <feFlood flood-opacity="0" result="BackgroundImageFix"/>
            <feColorMatrix in="SourceAlpha" values="0 0 0 0 0 0 0 0 0 0 0 0 0 0 0 0 0 0 127 0"/>
            <feOffset dx="2" dy="16"/>
            <feGaussianBlur stdDeviation="16"/>
            <feColorMatrix values="0 0 0 0 0 0 0 0 0 0 0 0 0 0 0 0 0 0 0.12 0"/>
            <feBlend in2="BackgroundImageFix" result="effect1_dropShadow"/>
            <feBlend in="SourceGraphic" in2="effect1_dropShadow" result="shape"/>
        </filter>
    </defs>
</svg>
