<svg xmlns="http://www.w3.org/2000/svg" width="560" height="341" fill="none" viewBox="0 0 560 341">
    <rect width="60" height="24" x="365" y="65" fill="#FFB400" fill-opacity=".2" rx="4"/>
    <rect width="60" height="24" x="477" y="65" fill="#2EBF91" fill-opacity=".2" rx="4"/>
    <path fill="#FFB400" fill-opacity=".24" d="M53.61 127.519c.838.534 1.774.898 2.754 1.07.98.172 1.983.15 2.954-.066.971-.216 1.89-.621 2.705-1.192.814-.571 1.508-1.297 2.041-2.136l46.325-72.791 12.87 22.073-71.921 110.656c-.574.833-.976 1.772-1.18 2.762-.206.99-.21 2.012-.014 3.004.196.992.59 1.935 1.156 2.772.567.838 1.295 1.554 2.143 2.105.848.551 1.798.927 2.793 1.106.996.178 2.017.155 3.004-.068.986-.223 1.918-.642 2.74-1.231.822-.589 1.518-1.336 2.047-2.199l67.787-104.267 25.309 43.368c.653 1.132 1.589 2.076 2.715 2.739 1.127.663 2.405 1.023 3.712 1.046h.114c1.284 0 2.547-.327 3.67-.949 1.123-.623 2.069-1.52 2.75-2.609l16.852-26.956 15.611 26.729c.703 1.112 1.666 2.038 2.805 2.697 1.139.659 2.421 1.032 3.736 1.088 1.326-.003 2.629-.354 3.777-1.018 1.148-.664 2.101-1.619 2.764-2.767l30.283-52.989c.521-.864.864-1.824 1.009-2.822.145-.999.089-2.017-.165-2.993-.254-.977-.7-1.893-1.314-2.694-.613-.802-1.38-1.473-2.257-1.974-.876-.5-1.843-.82-2.845-.942-1.002-.121-2.018-.041-2.989.236-.97.277-1.876.745-2.663 1.377-.786.632-1.439 1.415-1.919 2.303L209.02 113.56l-13.014-22.316 49.785-79.65c.527-.844.882-1.785 1.045-2.767.164-.982.132-1.987-.093-2.957-.225-.97-.639-1.886-1.218-2.697-.579-.81-1.312-1.498-2.157-2.025-1.707-1.064-3.766-1.406-5.725-.952-1.96.454-3.658 1.668-4.722 3.375l-45.538 72.897-24.749-42.39c-.647-1.123-1.572-2.06-2.685-2.723-1.114-.663-2.379-1.029-3.674-1.063-1.294-.047-2.578.246-3.723.85-1.145.605-2.112 1.5-2.803 2.595L132.503 60.23 117.21 34.077c-.65-1.127-1.579-2.067-2.698-2.73-1.12-.663-2.391-1.026-3.691-1.055-1.291.018-2.559.346-3.698.956-1.138.61-2.113 1.484-2.843 2.549l-52.995 83.268c-.534.839-.898 1.775-1.07 2.754-.173.98-.15 1.984.066 2.955.216.97.62 1.889 1.192 2.704.57.814 1.297 1.507 2.136 2.041zM155.744 52.29l22.568 38.682-14.429 23.088-22.841-39.159 14.702-22.61z"/>
    <path fill="#3E3E5F" d="M486.658 57v-7.148h2.608v-1.307h-6.721v1.307h2.601V57h1.512zm7.524-8.666c-2.455 0-4.008 1.705-4.008 4.435 0 2.731 1.523 4.442 4.008 4.442 2.466 0 3.99-1.717 3.99-4.441 0-2.73-1.535-4.436-3.99-4.436zm0 1.342c1.5 0 2.443 1.201 2.443 3.093 0 1.887-.937 3.1-2.443 3.1-1.53 0-2.461-1.213-2.461-3.1 0-1.892.955-3.093 2.461-3.093zm5.724-1.131V57h1.512v-2.772h1.834c1.711 0 2.906-1.148 2.906-2.824 0-1.705-1.154-2.86-2.842-2.86h-3.41zm1.512 1.265h1.5c1.09 0 1.705.557 1.705 1.594 0 1.008-.633 1.57-1.711 1.57h-1.494v-3.163zm6.41-1.265V57h1.512v-2.772h1.834c1.711 0 2.906-1.148 2.906-2.824 0-1.705-1.154-2.86-2.842-2.86h-3.41zm1.512 1.265h1.5c1.09 0 1.705.557 1.705 1.594 0 1.008-.633 1.57-1.711 1.57h-1.494v-3.163zm11.883 5.883h-3.961v-2.367h3.744v-1.23h-3.744v-2.244h3.961v-1.307h-5.473V57h5.473v-1.307zm3.386-5.894h1.711c.961 0 1.547.539 1.547 1.418 0 .896-.551 1.412-1.512 1.412h-1.746v-2.83zm0 4.031h1.676l1.658 3.17h1.729l-1.846-3.404c1.008-.364 1.594-1.295 1.594-2.408 0-1.623-1.113-2.643-2.889-2.643h-3.433V57h1.511v-3.17z"/>
    <path fill="#2EBF91" d="M484.672 77.103h1.072c1.201 0 1.945.61 1.945 1.588 0 .926-.791 1.588-1.904 1.588-1.09 0-1.851-.58-1.945-1.482h-1.02c.076 1.447 1.26 2.402 2.977 2.402 1.67 0 2.976-1.084 2.976-2.478 0-1.155-.697-1.952-1.845-2.098v-.094c.926-.222 1.482-.96 1.482-1.968 0-1.23-1.178-2.215-2.654-2.215-1.611 0-2.66.902-2.766 2.367h1.026c.088-.908.726-1.447 1.699-1.447.973 0 1.623.574 1.623 1.435 0 .88-.68 1.5-1.641 1.5h-1.025v.903zm5.742-2.18v.007h1.02v-.006c0-.996.668-1.658 1.658-1.658.931 0 1.652.65 1.652 1.494 0 .68-.264 1.136-1.353 2.32l-2.924 3.193V81h5.472v-.95h-3.96v-.093l2.033-2.185c1.388-1.489 1.787-2.174 1.787-3.053 0-1.342-1.16-2.373-2.678-2.373-1.57 0-2.707 1.078-2.707 2.578zm10.148 6.276c1.899 0 2.989-1.605 2.989-4.412 0-2.8-1.108-4.441-2.989-4.441-1.892 0-3 1.635-3 4.423 0 2.813 1.096 4.43 3 4.43zm0-.92c-1.248 0-1.939-1.248-1.939-3.51 0-2.232.703-3.498 1.939-3.498 1.237 0 1.928 1.254 1.928 3.498 0 2.268-.679 3.51-1.928 3.51zm4.665 2.52l3.105-10.623h-.891l-3.105 10.623h.891zm5.777-5.696h1.072c1.201 0 1.945.61 1.945 1.588 0 .926-.791 1.588-1.904 1.588-1.09 0-1.851-.58-1.945-1.482h-1.02c.077 1.447 1.26 2.402 2.977 2.402 1.67 0 2.976-1.084 2.976-2.478 0-1.155-.697-1.952-1.845-2.098v-.094c.926-.222 1.482-.96 1.482-1.968 0-1.23-1.178-2.215-2.654-2.215-1.611 0-2.66.902-2.766 2.367h1.026c.088-.908.726-1.447 1.699-1.447.973 0 1.623.574 1.623 1.435 0 .88-.68 1.5-1.641 1.5h-1.025v.903zm8.783 4.09c1.734 0 2.965-1.212 2.965-2.912 0-1.64-1.166-2.83-2.777-2.83-1.008 0-1.834.48-2.25 1.301h-.094c.058-2.25.838-3.469 2.215-3.469.832 0 1.47.48 1.699 1.272h1.084c-.27-1.36-1.336-2.21-2.772-2.21-2.068 0-3.252 1.665-3.252 4.571 0 .932.135 1.711.411 2.356.527 1.242 1.5 1.921 2.771 1.921zm-.012-.925c-1.084 0-1.91-.856-1.91-1.987 0-1.119.803-1.916 1.922-1.916 1.119 0 1.899.797 1.899 1.951 0 1.108-.827 1.952-1.911 1.952zm7.518.931c1.898 0 2.988-1.605 2.988-4.412 0-2.8-1.107-4.441-2.988-4.441-1.893 0-3 1.635-3 4.423 0 2.813 1.096 4.43 3 4.43zm0-.92c-1.248 0-1.939-1.248-1.939-3.51 0-2.232.703-3.498 1.939-3.498 1.236 0 1.928 1.254 1.928 3.498 0 2.268-.68 3.51-1.928 3.51z"/>
    <path fill="#3E3E5F" fill-opacity=".3" d="M327.965 298h1.055v-8.455h-1.049l-2.25 1.617v1.113l2.15-1.558h.094V298zM324.891 255.924v.006h1.019v-.006c0-.996.668-1.658 1.658-1.658.932 0 1.653.65 1.653 1.494 0 .679-.264 1.136-1.354 2.32l-2.924 3.193V262h5.473v-.949h-3.961v-.094l2.033-2.186c1.389-1.488 1.787-2.173 1.787-3.052 0-1.342-1.16-2.373-2.677-2.373-1.571 0-2.707 1.078-2.707 2.578zM326.672 222.104h1.072c1.201 0 1.945.609 1.945 1.587 0 .926-.791 1.588-1.904 1.588-1.09 0-1.851-.58-1.945-1.482h-1.02c.076 1.447 1.26 2.402 2.977 2.402 1.67 0 2.976-1.084 2.976-2.478 0-1.155-.697-1.951-1.845-2.098v-.094c.926-.222 1.482-.961 1.482-1.968 0-1.231-1.178-2.215-2.654-2.215-1.611 0-2.66.902-2.766 2.367h1.026c.088-.908.726-1.447 1.699-1.447.973 0 1.623.574 1.623 1.435 0 .879-.68 1.5-1.641 1.5h-1.025v.903zM328.805 190h1.031v-1.752h1.201v-.943h-1.201v-5.76h-1.529c-1.524 2.279-2.866 4.4-3.621 5.742v.961h4.119V190zm-3.041-2.76c1.007-1.711 2.109-3.457 2.976-4.717h.071v4.788h-3.047v-.071zM327.732 154.199c1.752 0 2.954-1.172 2.954-2.888 0-1.665-1.125-2.831-2.731-2.831-.779 0-1.377.241-1.787.721h-.094l.24-2.713h3.891v-.943h-4.717l-.463 4.793h.991c.345-.604.978-.949 1.746-.949 1.107 0 1.869.791 1.869 1.951 0 1.16-.756 1.933-1.887 1.933-.996 0-1.723-.609-1.816-1.523h-1.037c.093 1.459 1.242 2.449 2.841 2.449z"/>
    <rect width="220" height="180" x="340" y="137" fill="#fff" rx="4"/>
    <rect width="219" height="179" x="340.5" y="137.5" stroke="#3E3E5F" stroke-opacity=".12" rx="3.5"/>
    <path fill="#3E3E5F" d="M385.893 57v-3.305l2.964-5.15h-1.658l-2.01 3.615h-.099l-2.016-3.615h-1.658l2.965 5.15V57h1.512zm7.605-8.666c-2.455 0-4.008 1.705-4.008 4.435 0 2.731 1.524 4.442 4.008 4.442 2.467 0 3.99-1.717 3.99-4.441 0-2.73-1.535-4.436-3.99-4.436zm0 1.342c1.5 0 2.443 1.201 2.443 3.093 0 1.887-.937 3.1-2.443 3.1-1.529 0-2.461-1.213-2.461-3.1 0-1.892.955-3.093 2.461-3.093zm7.254-1.131h-1.506v5.543c0 1.846 1.336 3.123 3.475 3.123 2.138 0 3.474-1.277 3.474-3.123v-5.543h-1.511v5.402c0 1.143-.709 1.91-1.963 1.91s-1.969-.767-1.969-1.91v-5.402z"/>
    <path fill="#FFB400" d="M373.965 81h1.055v-8.455h-1.049l-2.25 1.617v1.113l2.15-1.558h.094V81zm6.281.193c2.068 0 3.252-1.664 3.252-4.57 0-.932-.135-1.71-.41-2.355-.527-1.249-1.506-1.922-2.772-1.922-1.734 0-2.964 1.213-2.964 2.912 0 1.64 1.166 2.83 2.777 2.83 1.008 0 1.834-.48 2.25-1.3h.094c-.059 2.25-.838 3.468-2.215 3.468-.832 0-1.471-.48-1.699-1.272h-1.084c.269 1.36 1.336 2.21 2.771 2.21zm.07-4.02c-1.119 0-1.898-.796-1.898-1.95 0-1.108.826-1.951 1.91-1.951s1.91.855 1.91 1.986c0 1.119-.802 1.916-1.922 1.916zm7.723 4.026c1.899 0 2.988-1.605 2.988-4.412 0-2.8-1.107-4.441-2.988-4.441-1.893 0-3 1.635-3 4.423 0 2.813 1.096 4.43 3 4.43zm0-.92c-1.248 0-1.939-1.248-1.939-3.51 0-2.232.703-3.498 1.939-3.498 1.236 0 1.928 1.254 1.928 3.498 0 2.268-.68 3.51-1.928 3.51zm4.664 2.52l3.106-10.623h-.891l-3.106 10.623h.891zm5.777-5.696h1.073c1.201 0 1.945.61 1.945 1.588 0 .926-.791 1.588-1.904 1.588-1.09 0-1.852-.58-1.946-1.482h-1.019c.076 1.447 1.26 2.402 2.976 2.402 1.67 0 2.977-1.084 2.977-2.478 0-1.155-.697-1.952-1.846-2.098v-.094c.926-.222 1.483-.96 1.483-1.968 0-1.23-1.178-2.215-2.655-2.215-1.611 0-2.66.902-2.765 2.367h1.025c.088-.908.727-1.447 1.699-1.447.973 0 1.623.574 1.623 1.435 0 .88-.679 1.5-1.64 1.5h-1.026v.903zm8.784 4.09c1.734 0 2.965-1.212 2.965-2.912 0-1.64-1.167-2.83-2.778-2.83-1.008 0-1.834.48-2.25 1.301h-.094c.059-2.25.838-3.469 2.215-3.469.832 0 1.471.48 1.699 1.272h1.084c-.269-1.36-1.335-2.21-2.771-2.21-2.068 0-3.252 1.665-3.252 4.571 0 .932.135 1.711.41 2.356.528 1.242 1.5 1.921 2.772 1.921zm-.012-.925c-1.084 0-1.91-.856-1.91-1.987 0-1.119.803-1.916 1.922-1.916 1.119 0 1.898.797 1.898 1.951 0 1.108-.826 1.952-1.91 1.952zm7.518.931c1.898 0 2.988-1.605 2.988-4.412 0-2.8-1.108-4.441-2.988-4.441-1.893 0-3 1.635-3 4.423 0 2.813 1.095 4.43 3 4.43zm0-.92c-1.249 0-1.94-1.248-1.94-3.51 0-2.232.703-3.498 1.94-3.498 1.236 0 1.927 1.254 1.927 3.498 0 2.268-.679 3.51-1.927 3.51z"/>
    <path fill="#3E3E5F" fill-opacity=".5" d="M415.785 340.199c1.899 0 2.988-1.605 2.988-4.412 0-2.801-1.107-4.441-2.988-4.441-1.892 0-3 1.634-3 4.424 0 2.812 1.096 4.429 3 4.429zm0-.92c-1.248 0-1.939-1.248-1.939-3.509 0-2.233.703-3.499 1.939-3.499 1.236 0 1.928 1.254 1.928 3.499 0 2.267-.68 3.509-1.928 3.509zm8.526-2.203v-.955h-3.844v.955h3.844zm3.58-.972h1.072c1.201 0 1.945.609 1.945 1.587 0 .926-.791 1.588-1.904 1.588-1.09 0-1.852-.58-1.945-1.482h-1.02c.076 1.447 1.26 2.402 2.977 2.402 1.67 0 2.976-1.084 2.976-2.478 0-1.155-.697-1.951-1.846-2.098v-.094c.926-.222 1.483-.961 1.483-1.968 0-1.231-1.178-2.215-2.654-2.215-1.612 0-2.661.902-2.766 2.367h1.025c.088-.908.727-1.447 1.7-1.447.972 0 1.623.574 1.623 1.435 0 .879-.68 1.5-1.641 1.5h-1.025v.903zm8.636 4.095c1.899 0 2.989-1.605 2.989-4.412 0-2.801-1.108-4.441-2.989-4.441-1.892 0-3 1.634-3 4.424 0 2.812 1.096 4.429 3 4.429zm0-.92c-1.248 0-1.939-1.248-1.939-3.509 0-2.233.703-3.499 1.939-3.499 1.237 0 1.928 1.254 1.928 3.499 0 2.267-.68 3.509-1.928 3.509zm8.11.721h1.008v-3.914c0-.891.638-1.606 1.464-1.606.797 0 1.319.481 1.319 1.231V340h1.008v-4.061c0-.802.585-1.459 1.464-1.459.891 0 1.33.458 1.33 1.389V340h1.008v-4.365c0-1.324-.72-2.063-2.009-2.063-.874 0-1.594.44-1.934 1.108h-.094c-.293-.657-.89-1.108-1.746-1.108-.844 0-1.476.405-1.764 1.108h-.093v-.996h-.961V340zm10.465 0h1.007v-6.316h-1.007V340zm.503-7.6c.387 0 .704-.316.704-.703 0-.386-.317-.703-.704-.703-.386 0-.703.317-.703.703 0 .387.317.703.703.703zm2.426 7.6h1.008v-3.738c0-1.108.65-1.782 1.658-1.782s1.489.54 1.489 1.676V340h1.007v-4.09c0-1.5-.791-2.338-2.209-2.338-.966 0-1.582.41-1.898 1.108h-.094v-.996h-.961V340zm12.117-6.316h-1.007v3.738c0 1.107-.61 1.769-1.723 1.769-1.008 0-1.43-.527-1.43-1.664v-3.843h-1.008v4.089c0 1.495.739 2.338 2.157 2.338.967 0 1.64-.398 1.957-1.101h.094v.99h.96v-6.316zm2.321-1.635v1.635h-1.02v.843h1.02v3.832c0 1.207.521 1.688 1.822 1.688.199 0 .393-.024.592-.059v-.849c-.188.017-.287.023-.469.023-.656 0-.937-.316-.937-1.06v-3.575h1.406v-.843h-1.406v-1.635h-1.008zm6.363 2.414c1.002 0 1.67.738 1.693 1.857h-3.48c.076-1.119.779-1.857 1.787-1.857zm1.664 3.902c-.264.557-.814.856-1.629.856-1.072 0-1.769-.791-1.822-2.039v-.047h4.541v-.387c0-1.963-1.037-3.176-2.742-3.176-1.735 0-2.848 1.289-2.848 3.276 0 1.998 1.096 3.263 2.848 3.263 1.383 0 2.355-.662 2.66-1.746h-1.008zm2.525-2.953c0 .914.54 1.424 1.723 1.711l1.084.264c.674.164 1.002.457 1.002.89 0 .58-.609.985-1.459.985-.809 0-1.312-.34-1.482-.873h-1.037c.111 1.049 1.078 1.722 2.484 1.722 1.435 0 2.531-.779 2.531-1.91 0-.908-.574-1.424-1.763-1.711l-.973-.234c-.744-.182-1.096-.451-1.096-.885 0-.562.586-.943 1.336-.943.762 0 1.254.334 1.389.838h.996c-.135-1.037-1.055-1.694-2.379-1.694-1.342 0-2.356.791-2.356 1.84z"/>
    <circle cx="359" cy="182" r="8" fill="#C2D3FF"/>
    <path fill="#2EBF91" d="M357.545 183.818l-1.909-1.909-.636.636 2.545 2.546 5.455-5.455-.636-.636-4.819 4.818z"/>
    <circle cx="522" cy="280" r="8" fill="#FFBFF0"/>
    <path fill="#2EBF91" d="M520.545 281.818l-1.909-1.909-.636.636 2.545 2.546 5.455-5.455-.636-.636-4.819 4.818z"/>
    <circle cx="466" cy="271" r="8" fill="#C2D3FF"/>
    <path fill="#2EBF91" d="M464.545 272.818l-1.909-1.909-.636.636 2.545 2.546 5.455-5.455-.636-.636-4.819 4.818z"/>
    <circle cx="489" cy="258" r="8" fill="#C2D3FF"/>
    <path fill="#2EBF91" d="M487.545 259.818l-1.909-1.909-.636.636 2.545 2.546 5.455-5.455-.636-.636-4.819 4.818z"/>
    <circle cx="476" cy="294" r="8" fill="#FFD99A"/>
    <path fill="#2EBF91" d="M474.545 295.818l-1.909-1.909-.636.636 2.545 2.546 5.455-5.455-.636-.636-4.819 4.818z"/>
    <circle cx="467" cy="244" r="8" fill="#FFD99A"/>
    <path fill="#2EBF91" d="M465.545 245.818l-1.909-1.909-.636.636 2.545 2.546 5.455-5.455-.636-.636-4.819 4.818z"/>
    <circle cx="404" cy="193" r="8" fill="#C2D3FF"/>
    <path fill="#2EBF91" d="M402.545 194.818l-1.909-1.909-.636.636 2.545 2.546 5.455-5.455-.636-.636-4.819 4.818z"/>
    <circle cx="527" cy="242" r="8" fill="#C2D3FF"/>
    <path fill="#2EBF91" d="M525.545 243.818l-1.909-1.909-.636.636 2.545 2.546 5.455-5.455-.636-.636-4.819 4.818z"/>
    <circle cx="507" cy="231" r="8" fill="#FFBFF0"/>
    <path fill="#2EBF91" d="M505.545 232.818l-1.909-1.909-.636.636 2.545 2.546 5.455-5.455-.636-.636-4.819 4.818z"/>
    <circle cx="544" cy="288" r="8" fill="#C2D3FF"/>
    <path fill="#2EBF91" d="M542.545 289.818l-1.909-1.909-.636.636 2.545 2.546 5.455-5.455-.636-.636-4.819 4.818z"/>
    <circle cx="547" cy="247" r="8" fill="#C2D3FF"/>
    <path fill="#2EBF91" d="M545.545 248.818l-1.909-1.909-.636.636 2.545 2.546 5.455-5.455-.636-.636-4.819 4.818z"/>
    <circle cx="539" cy="266" r="8" fill="#FFD99A"/>
    <path fill="#2EBF91" d="M537.545 267.818l-1.909-1.909-.636.636 2.545 2.546 5.455-5.455-.636-.636-4.819 4.818z"/>
    <circle cx="412" cy="286" r="8" fill="#C2D3FF"/>
    <path fill="#2EBF91" d="M410.545 287.818l-1.909-1.909-.636.636 2.545 2.546 5.455-5.455-.636-.636-4.819 4.818z"/>
    <circle cx="499" cy="286" r="8" fill="#C2D3FF"/>
    <path fill="#2EBF91" d="M497.545 287.818l-1.909-1.909-.636.636 2.545 2.546 5.455-5.455-.636-.636-4.819 4.818z"/>
    <circle cx="381" cy="214" r="8" fill="#C2D3FF"/>
    <path fill="#D91414" d="M384 211.604l-.604-.604-2.396 2.396-2.396-2.396-.604.604 2.396 2.396-2.396 2.396.604.604 2.396-2.396 2.396 2.396.604-.604-2.396-2.396 2.396-2.396z"/>
    <circle cx="424" cy="242" r="8" fill="#FFBFF0"/>
    <path fill="#D91414" d="M427 239.604l-.604-.604-2.396 2.396-2.396-2.396-.604.604 2.396 2.396-2.396 2.396.604.604 2.396-2.396 2.396 2.396.604-.604-2.396-2.396 2.396-2.396z"/>
    <circle cx="512" cy="258" r="8" fill="#C2D3FF"/>
    <path fill="#D91414" d="M515 255.604l-.604-.604-2.396 2.396-2.396-2.396-.604.604 2.396 2.396-2.396 2.396.604.604 2.396-2.396 2.396 2.396.604-.604-2.396-2.396 2.396-2.396z"/>
    <circle cx="440" cy="194" r="8" fill="#C2D3FF"/>
    <path fill="#D91414" d="M443 191.604l-.604-.604-2.396 2.396-2.396-2.396-.604.604 2.396 2.396-2.396 2.396.604.604 2.396-2.396 2.396 2.396.604-.604-2.396-2.396 2.396-2.396z"/>
    <circle cx="371" cy="266" r="8" fill="#C2D3FF"/>
    <path fill="#D91414" d="M374 263.604l-.604-.604-2.396 2.396-2.396-2.396-.604.604 2.396 2.396-2.396 2.396.604.604 2.396-2.396 2.396 2.396.604-.604-2.396-2.396 2.396-2.396z"/>
    <path stroke="#3E3E5F" stroke-opacity=".12" d="M450.5 137L450.5 317"/>
    <g clip-path="url(#prefix__clip0)">
        <path fill="#4CECC9" d="M51.16 62.797h-2.425c-1.873.002-3.67.746-4.995 2.07-1.327 1.323-2.074 3.117-2.08 4.99v11.59H30.084c-1.87.007-3.663.752-4.986 2.075-1.323 1.323-2.069 3.116-2.075 4.987v2.424c.006 1.871.752 3.664 2.075 4.987 1.323 1.323 3.116 2.068 4.986 2.074H41.66v11.59c.006 1.871.751 3.664 2.074 4.987s3.116 2.068 4.987 2.074h2.424c1.871-.006 3.664-.751 4.987-2.074s2.069-3.116 2.074-4.987v-11.59h11.59c1.871-.006 3.664-.751 4.987-2.074s2.069-3.116 2.074-4.987V88.51c-.005-1.871-.751-3.664-2.074-4.987s-3.116-2.069-4.987-2.074H58.221v-11.59c-.006-1.871-.752-3.664-2.075-4.987-1.323-1.323-3.115-2.068-4.986-2.074z"/>
        <path fill="#EC4C6F" d="M211.951 81.445h-39.722c-3.9 0-7.061 3.162-7.061 7.061v2.425c0 3.9 3.161 7.06 7.061 7.06h39.722c3.9 0 7.061-3.16 7.061-7.06v-2.425c0-3.9-3.161-7.06-7.061-7.06z"/>
        <path fill="#3E3E5F" fill-opacity=".2" d="M8.857 190.712h2.424c2.348-.003 4.6-.937 6.26-2.598 1.66-1.66 2.594-3.911 2.597-6.259v-2.428c-.003-2.348-.937-4.599-2.597-6.259-1.66-1.661-3.912-2.595-6.26-2.598H8.857c-2.348.003-4.6.937-6.26 2.598-1.66 1.66-2.594 3.911-2.597 6.259v2.428c.003 2.348.937 4.599 2.597 6.259 1.66 1.661 3.912 2.595 6.26 2.598zm-5.265-11.285c0-1.396.556-2.735 1.543-3.722.987-.987 2.326-1.542 3.722-1.543h2.424c1.396.001 2.735.556 3.722 1.543.987.987 1.542 2.326 1.543 3.722v2.428c0 1.396-.556 2.735-1.543 3.722-.987.987-2.326 1.542-3.722 1.543H8.857c-1.396-.001-2.735-.556-3.722-1.543-.987-.987-1.542-2.326-1.543-3.722v-2.428zM30.031 175.382c0 .476.19.933.526 1.27.337.336.794.525 1.27.525h66.275c.476 0 .933-.189 1.27-.525.337-.337.526-.794.526-1.27 0-.477-.19-.933-.526-1.27-.337-.337-.794-.526-1.27-.526H31.827c-.476 0-.933.189-1.27.526-.337.337-.526.793-.526 1.27zM31.827 187.699h36.82c.477 0 .934-.189 1.27-.526.337-.337.526-.794.526-1.27s-.189-.933-.526-1.27c-.336-.336-.793-.526-1.27-.526h-36.82c-.476 0-.933.19-1.27.526-.337.337-.526.794-.526 1.27s.19.933.526 1.27c.337.337.794.526 1.27.526zM8.857 230.276h2.424c2.348-.002 4.6-.936 6.26-2.597 1.66-1.66 2.594-3.911 2.597-6.259v-2.425c-.003-2.348-.937-4.599-2.597-6.259-1.66-1.66-3.912-2.594-6.26-2.597H8.857c-2.349.003-4.6.937-6.261 2.598C.936 214.398.002 216.65 0 218.999v2.424c.004 2.348.938 4.598 2.599 6.258 1.66 1.659 3.91 2.593 6.258 2.595zm-5.265-11.277c0-1.396.556-2.735 1.543-3.722.987-.987 2.326-1.542 3.722-1.543h2.424c1.396.001 2.735.556 3.722 1.543.987.987 1.542 2.326 1.543 3.722v2.424c0 1.396-.556 2.735-1.543 3.722-.987.988-2.326 1.543-3.722 1.544H8.857c-1.397-.001-2.736-.557-3.724-1.545-.987-.988-1.541-2.328-1.541-3.724v-2.421zM98.102 213.156H31.827c-.476 0-.933.189-1.27.526-.337.337-.526.794-.526 1.27s.19.933.526 1.27c.337.337.794.526 1.27.526h66.275c.476 0 .933-.189 1.27-.526.337-.337.526-.794.526-1.27s-.19-.933-.526-1.27c-.337-.337-.794-.526-1.27-.526zM31.827 227.263h36.82c.477 0 .934-.189 1.27-.526.337-.336.526-.793.526-1.269 0-.477-.189-.933-.526-1.27-.336-.337-.793-.526-1.27-.526h-36.82c-.476 0-.933.189-1.27.526-.337.337-.526.793-.526 1.27 0 .476.19.933.526 1.269.337.337.794.526 1.27.526zM8.857 269.849h2.424c2.348-.003 4.6-.937 6.26-2.597 1.66-1.661 2.594-3.912 2.597-6.26v-2.424c-.003-2.348-.937-4.599-2.597-6.26-1.66-1.66-3.912-2.594-6.26-2.597H8.857c-2.348.003-4.6.937-6.26 2.597-1.66 1.661-2.594 3.912-2.597 6.26v2.424c.003 2.348.937 4.599 2.597 6.26 1.66 1.66 3.912 2.594 6.26 2.597zm-5.265-11.281c0-1.396.556-2.735 1.543-3.722.987-.988 2.326-1.543 3.722-1.544h2.424c1.396.001 2.735.556 3.722 1.544.987.987 1.542 2.326 1.543 3.722v2.424c0 1.396-.556 2.735-1.543 3.722-.987.987-2.326 1.542-3.722 1.543H8.857c-1.396-.001-2.735-.556-3.722-1.543-.987-.987-1.542-2.326-1.543-3.722v-2.424zM98.102 252.723H31.827c-.476 0-.933.189-1.27.526-.337.336-.526.793-.526 1.269 0 .477.19.933.526 1.27.337.337.794.526 1.27.526h66.275c.476 0 .933-.189 1.27-.526.337-.337.526-.793.526-1.27 0-.476-.19-.933-.526-1.269-.337-.337-.794-.526-1.27-.526zM31.827 266.832h36.82c.477 0 .934-.189 1.27-.526.337-.337.526-.794.526-1.27s-.189-.933-.526-1.27c-.336-.337-.793-.526-1.27-.526h-36.82c-.476 0-.933.189-1.27.526-.337.337-.526.794-.526 1.27s.19.933.526 1.27c.337.337.794.526 1.27.526zM8.857 309.417h2.424c2.348-.004 4.598-.938 6.257-2.599 1.66-1.66 2.593-3.911 2.596-6.258v-2.424c-.002-2.349-.935-4.601-2.596-6.262-1.66-1.661-3.912-2.596-6.26-2.599H8.852c-2.349.004-4.6.94-6.26 2.601-1.66 1.662-2.592 3.915-2.593 6.263v2.421c.003 2.348.937 4.599 2.597 6.26 1.66 1.66 3.912 2.594 6.26 2.597zm-5.265-11.278c0-1.396.555-2.735 1.543-3.723.987-.988 2.325-1.544 3.722-1.545h2.424c1.396.001 2.735.557 3.722 1.545.987.988 1.542 2.327 1.543 3.723v2.421c0 1.396-.556 2.735-1.543 3.722-.987.987-2.326 1.542-3.722 1.543H8.857c-1.396-.001-2.735-.556-3.722-1.543-.987-.987-1.542-2.326-1.543-3.722v-2.421zM99.898 294.093c0-.477-.19-.933-.526-1.27-.337-.337-.794-.526-1.27-.526H31.827c-.476 0-.933.189-1.27.526-.337.337-.526.793-.526 1.27 0 .476.19.933.526 1.269.337.337.794.526 1.27.526h66.275c.476 0 .933-.189 1.27-.526.337-.336.526-.793.526-1.269zM31.827 302.805c-.476 0-.933.189-1.27.526-.337.336-.526.793-.526 1.269 0 .477.19.933.526 1.27.337.337.794.526 1.27.526h36.82c.477 0 .934-.189 1.27-.526.337-.337.526-.793.526-1.27 0-.476-.189-.933-.526-1.269-.336-.337-.793-.526-1.27-.526h-36.82zM175.239 179.427c-.002-2.348-.937-4.599-2.597-6.259-1.66-1.661-3.911-2.595-6.259-2.598h-2.425c-2.348.003-4.599.937-6.259 2.598-1.661 1.66-2.595 3.911-2.597 6.259v2.428c.002 2.348.936 4.599 2.597 6.259 1.66 1.661 3.911 2.595 6.259 2.598h2.425c2.348-.003 4.599-.937 6.259-2.598 1.66-1.66 2.595-3.911 2.597-6.259v-2.428zm-3.591 2.428c-.001 1.396-.556 2.735-1.543 3.722-.988.987-2.326 1.542-3.722 1.543h-2.425c-1.396-.001-2.734-.556-3.722-1.543-.987-.987-1.542-2.326-1.543-3.722v-2.428c.001-1.396.556-2.735 1.543-3.722.988-.987 2.326-1.542 3.722-1.543h2.425c1.396.001 2.734.556 3.722 1.543.987.987 1.542 2.326 1.543 3.722v2.428zM253.203 173.586h-66.278c-.477 0-.933.189-1.27.526-.337.337-.526.793-.526 1.27 0 .476.189.933.526 1.27.337.336.793.525 1.27.525h66.278c.476 0 .933-.189 1.27-.525.337-.337.526-.794.526-1.27 0-.477-.189-.933-.526-1.27-.337-.337-.794-.526-1.27-.526zM186.925 187.699h36.827c.477 0 .933-.189 1.27-.526.337-.337.526-.794.526-1.27s-.189-.933-.526-1.27c-.337-.336-.793-.526-1.27-.526h-36.827c-.477 0-.933.19-1.27.526-.337.337-.526.794-.526 1.27s.189.933.526 1.27c.337.337.793.526 1.27.526zM175.239 218.995c-.002-2.348-.937-4.599-2.597-6.259-1.66-1.66-3.911-2.594-6.259-2.597h-2.425c-2.348.003-4.599.937-6.259 2.597-1.661 1.66-2.595 3.911-2.597 6.259v2.425c.002 2.348.936 4.599 2.597 6.259 1.66 1.661 3.911 2.595 6.259 2.597h2.425c2.348-.002 4.599-.936 6.259-2.597 1.66-1.66 2.595-3.911 2.597-6.259v-2.425zm-3.591 2.425c-.001 1.396-.556 2.735-1.543 3.722-.988.987-2.326 1.542-3.722 1.543h-2.425c-1.396-.001-2.734-.556-3.722-1.543-.987-.987-1.542-2.326-1.543-3.722v-2.425c.001-1.396.556-2.734 1.543-3.722.988-.987 2.326-1.542 3.722-1.543h2.425c1.396.001 2.734.556 3.722 1.543.987.988 1.542 2.326 1.543 3.722v2.425zM253.203 213.156h-66.278c-.477 0-.933.189-1.27.526-.337.337-.526.794-.526 1.27s.189.933.526 1.27c.337.337.793.526 1.27.526h66.278c.476 0 .933-.189 1.27-.526.337-.337.526-.794.526-1.27s-.189-.933-.526-1.27c-.337-.337-.794-.526-1.27-.526zM186.925 227.263h36.827c.477 0 .933-.189 1.27-.526.337-.336.526-.793.526-1.269 0-.477-.189-.933-.526-1.27-.337-.337-.793-.526-1.27-.526h-36.827c-.477 0-.933.189-1.27.526-.337.337-.526.793-.526 1.27 0 .476.189.933.526 1.269.337.337.793.526 1.27.526zM175.239 258.568c-.002-2.348-.937-4.599-2.597-6.26-1.66-1.66-3.911-2.594-6.259-2.597h-2.425c-2.348.003-4.599.937-6.259 2.597-1.661 1.661-2.595 3.912-2.597 6.26v2.424c.002 2.348.936 4.599 2.597 6.26 1.66 1.66 3.911 2.594 6.259 2.597h2.425c2.348-.003 4.599-.937 6.259-2.597 1.66-1.661 2.595-3.912 2.597-6.26v-2.424zm-3.591 2.424c-.001 1.396-.556 2.735-1.543 3.722-.988.987-2.326 1.542-3.722 1.543h-2.425c-1.396-.001-2.734-.556-3.722-1.543-.987-.987-1.542-2.326-1.543-3.722v-2.424c.001-1.396.556-2.735 1.543-3.722.988-.988 2.326-1.543 3.722-1.544h2.425c1.396.001 2.734.556 3.722 1.544.987.987 1.542 2.326 1.543 3.722v2.424zM253.203 252.723h-66.278c-.477 0-.933.189-1.27.526-.337.336-.526.793-.526 1.269 0 .477.189.933.526 1.27.337.337.793.526 1.27.526h66.278c.476 0 .933-.189 1.27-.526.337-.337.526-.793.526-1.27 0-.476-.189-.933-.526-1.269-.337-.337-.794-.526-1.27-.526zM186.925 266.832h36.827c.477 0 .933-.189 1.27-.526.337-.337.526-.794.526-1.27s-.189-.933-.526-1.27c-.337-.337-.793-.526-1.27-.526h-36.827c-.477 0-.933.189-1.27.526-.337.337-.526.794-.526 1.27s.189.933.526 1.27c.337.337.793.526 1.27.526zM166.383 289.275h-2.425c-2.348.003-4.6.938-6.26 2.599-1.661 1.661-2.595 3.913-2.596 6.262v2.42c.002 2.349.936 4.6 2.597 6.26 1.66 1.66 3.911 2.594 6.259 2.597h2.425c2.348-.003 4.599-.937 6.259-2.597 1.66-1.66 2.595-3.911 2.597-6.26v-2.424c-.002-2.348-.937-4.599-2.597-6.259-1.66-1.661-3.911-2.595-6.259-2.598zm5.265 11.281c-.001 1.397-.556 2.735-1.543 3.722-.988.988-2.326 1.543-3.722 1.544h-2.425c-1.395-.002-2.733-.558-3.719-1.545-.987-.987-1.541-2.325-1.542-3.721v-2.424c.001-1.396.556-2.735 1.543-3.723.987-.988 2.325-1.544 3.722-1.546h2.424c1.397.002 2.735.558 3.722 1.546.988.988 1.542 2.327 1.543 3.723l-.003 2.424zM254.999 294.093c0-.477-.189-.933-.526-1.27-.337-.337-.794-.526-1.27-.526h-66.278c-.477 0-.933.189-1.27.526-.337.337-.526.793-.526 1.27 0 .476.189.933.526 1.269.337.337.793.526 1.27.526h66.278c.476 0 .933-.189 1.27-.526.337-.336.526-.793.526-1.269zM223.752 306.396c.477 0 .933-.189 1.27-.526.337-.337.526-.793.526-1.27 0-.476-.189-.933-.526-1.269-.337-.337-.793-.526-1.27-.526h-36.827c-.477 0-.933.189-1.27.526-.337.336-.526.793-.526 1.269 0 .477.189.933.526 1.27.337.337.793.526 1.27.526h36.827zM175.984 138.155c0 .476.19.933.526 1.27.337.337.794.526 1.27.526.474-.007.927-.199 1.262-.534.335-.335.527-.788.534-1.262 0-.476-.189-.933-.526-1.27-.337-.336-.794-.526-1.27-.526s-.933.19-1.27.526c-.336.337-.526.794-.526 1.27zM229.857 138.155c0-.476-.189-.933-.526-1.27-.337-.336-.793-.526-1.27-.526-.476 0-.933.19-1.269.526-.337.337-.526.794-.526 1.27s.189.933.526 1.27c.336.337.793.526 1.269.526.474-.007.927-.199 1.262-.534.335-.335.527-.788.534-1.262zM25.14 138.155c0 .476.19.933.527 1.27.336.337.793.526 1.27.526.473-.007.926-.199 1.261-.534.335-.335.527-.788.534-1.262 0-.476-.189-.933-.526-1.27-.337-.336-.793-.526-1.27-.526-.476 0-.933.19-1.27.526-.336.337-.525.794-.525 1.27zM201.125 138.155c0 .476.189.933.526 1.27.337.337.794.526 1.27.526.474-.007.926-.199 1.261-.534.336-.335.527-.788.535-1.262 0-.476-.19-.933-.526-1.27-.337-.336-.794-.526-1.27-.526s-.933.19-1.27.526c-.337.337-.526.794-.526 1.27zM77.218 136.359c-.477 0-.933.19-1.27.526-.337.337-.526.794-.526 1.27s.19.933.526 1.27c.337.337.793.526 1.27.526.474-.007.926-.199 1.261-.534.335-.335.527-.788.534-1.262 0-.476-.189-.933-.526-1.27-.336-.336-.793-.526-1.27-.526zM253.202 136.359c-.476 0-.933.19-1.27.526-.337.337-.526.794-.526 1.27s.189.933.526 1.27c.337.337.794.526 1.27.526.474-.007.926-.199 1.262-.534.335-.335.526-.788.534-1.262 0-.476-.189-.933-.526-1.27-.337-.336-.794-.526-1.27-.526zM150.844 138.155c0 .476.189.933.526 1.27.336.337.793.526 1.27.526.473-.007.926-.199 1.261-.534.335-.335.527-.788.534-1.262 0-.476-.189-.933-.526-1.27-.336-.336-.793-.526-1.269-.526-.477 0-.934.19-1.27.526-.337.337-.526.794-.526 1.27zM1.796 139.951c.476 0 .933-.189 1.27-.526.336-.337.526-.794.526-1.27s-.19-.933-.526-1.27c-.337-.336-.794-.526-1.27-.526s-.933.19-1.27.526c-.337.337-.526.794-.526 1.27s.19.933.526 1.27c.337.337.794.526 1.27.526zM53.873 138.155c0-.476-.19-.933-.526-1.27-.337-.336-.794-.526-1.27-.526s-.933.19-1.27.526c-.337.337-.526.794-.526 1.27s.19.933.526 1.27c.337.337.794.526 1.27.526.474-.007.927-.199 1.262-.534.335-.335.526-.788.534-1.262zM127.499 136.359c-.476 0-.933.19-1.27.526-.337.337-.526.794-.526 1.27v.072c0 .476.189.933.526 1.27.337.337.794.526 1.27.526s.933-.189 1.27-.526c.336-.337.526-.794.526-1.27V138.152c-.001-.476-.191-.932-.528-1.268-.336-.336-.792-.525-1.268-.525zM100.562 138.155c0 .476.19.933.526 1.27.337.337.794.526 1.27.526.474-.007.927-.199 1.262-.534.335-.335.527-.788.534-1.262 0-.476-.189-.933-.526-1.27-.337-.336-.793-.526-1.27-.526-.476 0-.933.19-1.27.526-.336.337-.526.794-.526 1.27zM127.499 312.408c-.476 0-.933.189-1.27.526-.337.337-.526.794-.526 1.27s.189.933.526 1.27c.337.337.794.526 1.27.526s.933-.189 1.27-.526c.336-.337.526-.794.526-1.27s-.19-.933-.526-1.27c-.337-.337-.794-.526-1.27-.526zM127.499 262.129c-.476 0-.933.189-1.27.526-.337.337-.526.793-.526 1.27 0 .476.189.933.526 1.269.337.337.794.526 1.27.526s.933-.189 1.27-.526c.336-.336.526-.793.526-1.269 0-.477-.19-.933-.526-1.27-.337-.337-.794-.526-1.27-.526zM127.499 287.268c-.234-.004-.466.039-.683.126-.217.087-.415.216-.582.38-.167.163-.299.358-.391.573-.091.216-.138.447-.14.681 0 .476.189.933.526 1.269.337.337.794.526 1.27.526s.933-.189 1.27-.526c.336-.336.526-.793.526-1.269-.002-.234-.049-.465-.141-.681-.091-.215-.224-.41-.391-.573-.167-.164-.364-.293-.581-.38-.217-.087-.449-.13-.683-.126zM127.499 211.844c-.476 0-.933.189-1.27.526-.337.336-.526.793-.526 1.27 0 .476.189.933.526 1.269.337.337.794.526 1.27.526s.933-.189 1.27-.526c.336-.336.526-.793.526-1.269 0-.477-.19-.934-.526-1.27-.337-.337-.794-.526-1.27-.526zM127.499 236.984c-.476 0-.933.19-1.27.526-.337.337-.526.794-.526 1.27s.189.933.526 1.27c.337.337.794.526 1.27.526s.933-.189 1.27-.526c.336-.337.526-.794.526-1.27s-.19-.933-.526-1.27c-.337-.336-.794-.526-1.27-.526zM127.499 186.703c-.234-.003-.466.04-.683.127-.217.087-.415.216-.582.379-.167.164-.299.359-.391.574-.091.215-.138.446-.14.68 0 .476.189.933.526 1.27.337.337.794.526 1.27.526s.933-.189 1.27-.526c.336-.337.526-.794.526-1.27-.002-.234-.049-.465-.141-.68-.091-.215-.224-.41-.391-.574-.167-.163-.364-.292-.581-.379-.217-.087-.449-.13-.683-.127zM127.499 61c-.476 0-.933.19-1.27.526-.337.337-.526.793-.526 1.27 0 .476.189.933.526 1.27.337.336.794.525 1.27.525s.933-.189 1.27-.525c.336-.337.526-.794.526-1.27 0-.477-.19-.933-.526-1.27-.337-.337-.794-.526-1.27-.526zM127.499 111.279c-.476 0-.933.189-1.27.526-.337.337-.526.794-.526 1.27s.189.933.526 1.27c.337.337.794.526 1.27.526s.933-.189 1.27-.526c.336-.337.526-.794.526-1.27s-.19-.933-.526-1.27c-.337-.337-.794-.526-1.27-.526zM127.499 161.564c-.476 0-.933.19-1.27.526-.337.337-.526.794-.526 1.27s.189.933.526 1.27c.337.337.794.526 1.27.526s.933-.189 1.27-.526c.336-.337.526-.794.526-1.27s-.19-.933-.526-1.27c-.337-.336-.794-.526-1.27-.526zM127.499 86.14c-.234-.002-.466.04-.683.127-.217.087-.415.216-.582.38-.167.163-.299.358-.391.573-.091.216-.138.447-.14.68 0 .477.189.934.526 1.27.337.337.794.526 1.27.526s.933-.189 1.27-.525c.336-.337.526-.794.526-1.27-.002-.234-.049-.465-.141-.68-.091-.216-.224-.41-.391-.574-.167-.164-.364-.293-.581-.38-.217-.087-.449-.13-.683-.126z"/>
    </g>
    <g clip-path="url(#prefix__clip1)">
        <path fill="#4CECC9" d="M349.343 120.328l-2.507-2.507-.836.836 3.343 3.343 7.164-7.164-.835-.836-6.329 6.328z"/>
    </g>
    <path fill="#3E3E5F" fill-opacity=".6" d="M363.732 121.199c1.752 0 2.954-1.172 2.954-2.888 0-1.665-1.125-2.831-2.731-2.831-.779 0-1.377.241-1.787.721h-.094l.24-2.713h3.891v-.943h-4.717l-.463 4.793h.991c.345-.604.978-.949 1.746-.949 1.107 0 1.869.791 1.869 1.951 0 1.16-.756 1.933-1.887 1.933-.996 0-1.723-.609-1.816-1.523h-1.037c.093 1.459 1.242 2.449 2.841 2.449zm7.483 0c1.898 0 2.988-1.605 2.988-4.412 0-2.801-1.107-4.441-2.988-4.441-1.893 0-3 1.634-3 4.424 0 2.812 1.096 4.429 3 4.429zm0-.92c-1.248 0-1.94-1.248-1.94-3.509 0-2.233.704-3.499 1.94-3.499s1.928 1.254 1.928 3.499c0 2.267-.68 3.509-1.928 3.509z"/>
    <path fill="#D91414" d="M391 114.806l-.806-.806-3.194 3.194-3.194-3.194-.806.806 3.194 3.194-3.194 3.194.806.806 3.194-3.194 3.194 3.194.806-.806-3.194-3.194 3.194-3.194z"/>
    <path fill="#3E3E5F" fill-opacity=".6" d="M396.965 121h1.055v-8.455h-1.049l-2.25 1.617v1.113l2.15-1.558h.094V121zm6.422.199c1.898 0 2.988-1.605 2.988-4.412 0-2.801-1.107-4.441-2.988-4.441-1.893 0-3 1.634-3 4.424 0 2.812 1.095 4.429 3 4.429zm0-.92c-1.248 0-1.94-1.248-1.94-3.509 0-2.233.703-3.499 1.94-3.499 1.236 0 1.927 1.254 1.927 3.499 0 2.267-.679 3.509-1.927 3.509zM429.672 117.104h1.072c1.201 0 1.945.609 1.945 1.587 0 .926-.791 1.588-1.904 1.588-1.09 0-1.851-.58-1.945-1.482h-1.02c.076 1.447 1.26 2.402 2.977 2.402 1.67 0 2.976-1.084 2.976-2.478 0-1.155-.697-1.951-1.845-2.098v-.094c.926-.222 1.482-.961 1.482-1.968 0-1.231-1.178-2.215-2.654-2.215-1.611 0-2.66.902-2.766 2.367h1.026c.088-.908.726-1.447 1.699-1.447.973 0 1.623.574 1.623 1.435 0 .879-.68 1.5-1.641 1.5h-1.025v.903zm8.637 4.095c1.898 0 2.988-1.605 2.988-4.412 0-2.801-1.108-4.441-2.988-4.441-1.893 0-3 1.634-3 4.424 0 2.812 1.095 4.429 3 4.429zm0-.92c-1.248 0-1.94-1.248-1.94-3.509 0-2.233.703-3.499 1.94-3.499 1.236 0 1.927 1.254 1.927 3.499 0 2.267-.679 3.509-1.927 3.509z"/>
    <circle cx="420" cy="118" r="4" fill="#3E3E5F" fill-opacity=".3"/>
    <g clip-path="url(#prefix__clip2)">
        <path fill="#4CECC9" d="M461.343 120.328l-2.507-2.507-.836.836 3.343 3.343 7.164-7.164-.835-.836-6.329 6.328z"/>
    </g>
    <path fill="#3E3E5F" fill-opacity=".6" d="M475.832 121.199c1.793 0 3.047-1.013 3.047-2.461 0-1.101-.697-1.957-1.758-2.156v-.094c.873-.24 1.412-.961 1.412-1.886 0-1.319-1.119-2.256-2.701-2.256s-2.701.937-2.701 2.256c0 .919.551 1.652 1.412 1.886v.094c-1.061.199-1.758 1.055-1.758 2.156 0 1.448 1.254 2.461 3.047 2.461zm0-.902c-1.172 0-1.98-.668-1.98-1.635s.808-1.635 1.98-1.635 1.98.668 1.98 1.635-.808 1.635-1.98 1.635zm0-4.16c-.996 0-1.664-.575-1.664-1.436 0-.873.662-1.453 1.664-1.453 1.002 0 1.664.58 1.664 1.453 0 .861-.668 1.436-1.664 1.436zm6.797 4.863h1.055v-8.455h-1.049l-2.25 1.617v1.113l2.15-1.558h.094V121z"/>
    <path fill="#D91414" d="M502 114.806l-.806-.806-3.194 3.194-3.194-3.194-.806.806 3.194 3.194-3.194 3.194.806.806 3.194-3.194 3.194 3.194.806-.806-3.194-3.194 3.194-3.194z"/>
    <path fill="#3E3E5F" fill-opacity=".6" d="M508.785 121.199c1.899 0 2.988-1.605 2.988-4.412 0-2.801-1.107-4.441-2.988-4.441-1.892 0-3 1.634-3 4.424 0 2.812 1.096 4.429 3 4.429zm0-.92c-1.248 0-1.939-1.248-1.939-3.509 0-2.233.703-3.499 1.939-3.499 1.236 0 1.928 1.254 1.928 3.499 0 2.267-.68 3.509-1.928 3.509zm8.578.721h1.032v-1.752h1.201v-.943h-1.201v-5.76h-1.53c-1.523 2.279-2.865 4.4-3.621 5.742v.961h4.119V121zm-3.041-2.76c1.008-1.711 2.11-3.457 2.977-4.717h.07v4.788h-3.047v-.071zM543.785 121.199c1.899 0 2.988-1.605 2.988-4.412 0-2.801-1.107-4.441-2.988-4.441-1.892 0-3 1.634-3 4.424 0 2.812 1.096 4.429 3 4.429zm0-.92c-1.248 0-1.939-1.248-1.939-3.509 0-2.233.703-3.499 1.939-3.499 1.236 0 1.928 1.254 1.928 3.499 0 2.267-.68 3.509-1.928 3.509zm7.506.92c1.752 0 2.953-1.172 2.953-2.888 0-1.665-1.125-2.831-2.73-2.831-.78 0-1.377.241-1.787.721h-.094l.24-2.713h3.891v-.943h-4.717l-.463 4.793h.99c.346-.604.979-.949 1.746-.949 1.108 0 1.869.791 1.869 1.951 0 1.16-.755 1.933-1.886 1.933-.996 0-1.723-.609-1.817-1.523h-1.037c.094 1.459 1.242 2.449 2.842 2.449z"/>
    <circle cx="533" cy="118" r="4" fill="#3E3E5F" fill-opacity=".3"/>
    <defs>
        <clipPath id="prefix__clip0">
            <path fill="#fff" d="M0 61H255V316H0z"/>
        </clipPath>
        <clipPath id="prefix__clip1">
            <path fill="#fff" d="M346 114H356.508V122H346z"/>
        </clipPath>
        <clipPath id="prefix__clip2">
            <path fill="#fff" d="M458 114H468.508V122H458z"/>
        </clipPath>
    </defs>
</svg>
