<svg xmlns="http://www.w3.org/2000/svg" width="649" height="579" fill="none" viewBox="0 0 649 579">
    <circle cx="497.399" cy="371.298" r="32.026" fill="#C2D3FF"/>
    <circle cx="557.447" cy="311.25" r="28.023" fill="#FFD99A"/>
    <circle cx="553.444" cy="427.343" r="24.019" fill="#C2D3FF"/>
    <circle cx="449.36" cy="408.327" r="16.013" fill="#FFD99A"/>
    <circle cx="597.479" cy="404.324" r="16.013" fill="#FFD99A"/>
    <circle cx="493.396" cy="436.35" r="20.016" fill="#FFD99A"/>
    <circle cx="457.367" cy="332.266" r="16.013" fill="#FFBFF0"/>
    <circle cx="625.501" cy="372.298" r="12.01" fill="#FFBFF0"/>
    <circle cx="405.325" cy="416.334" r="12.01" fill="#C2D3FF"/>
    <circle cx="597.479" cy="339.272" r="12.01" fill="#FFD99A"/>
    <circle cx="381.306" cy="386.31" r="12.01" fill="#FFBFF0"/>
    <circle cx="386.31" cy="348.279" r="12.01" fill="#C2D3FF"/>
    <circle cx="421.338" cy="367.294" r="20.016" fill="#C2D3FF"/>
    <circle cx="501.402" cy="306.246" r="20.016" fill="#FFBFF0"/>
    <circle cx="561.45" cy="371.298" r="24.019" fill="#FFD99A"/>
    <path fill="#fff" d="M489.027 375.5c.545 0 1.061-.088 1.513-.258l.744 1.015h1.185l-1.073-1.49c.962-.692 1.501-2.011 1.501-3.694 0-2.727-1.489-4.433-3.87-4.433-2.393 0-3.888 1.7-3.888 4.433 0 2.744 1.478 4.427 3.888 4.427zm.006-.973c-1.736 0-2.809-1.32-2.809-3.454 0-2.129 1.079-3.46 2.803-3.46 1.712 0 2.785 1.337 2.785 3.46 0 1.29-.369 2.299-1.032 2.826l-.768-1.02h-1.196l1.12 1.519c-.293.088-.593.129-.903.129zm5.875.833c.423 0 .763-.346.763-.763 0-.422-.34-.762-.763-.762-.416 0-.762.34-.762.762 0 .417.346.763.762.763zm3.079-.059h1.108l3.765-7.483v-.979h-5.6v.944h4.527v.082l-3.8 7.436zm9.172.199c1.753 0 2.955-1.173 2.955-2.891 0-1.665-1.126-2.832-2.733-2.832-.78 0-1.378.24-1.788.721h-.094l.24-2.715h3.894v-.944h-4.72l-.464 4.797h.991c.346-.604.98-.95 1.748-.95 1.108 0 1.87.791 1.87 1.953 0 1.161-.756 1.935-1.888 1.935-.997 0-1.724-.61-1.818-1.525h-1.038c.094 1.46 1.244 2.451 2.845 2.451zM548.074 315.452c.546 0 1.062-.088 1.513-.258l.745 1.015h1.184l-1.073-1.49c.962-.692 1.501-2.011 1.501-3.694 0-2.727-1.489-4.434-3.87-4.434-2.392 0-3.888 1.701-3.888 4.434 0 2.744 1.478 4.427 3.888 4.427zm.006-.973c-1.736 0-2.809-1.32-2.809-3.454 0-2.129 1.079-3.46 2.803-3.46 1.712 0 2.786 1.337 2.786 3.46 0 1.29-.37 2.298-1.032 2.826l-.769-1.02h-1.196l1.12 1.519c-.293.088-.592.129-.903.129zm5.876.832c.422 0 .762-.346.762-.762 0-.422-.34-.762-.762-.762-.417 0-.763.34-.763.762 0 .416.346.762.763.762zm5.248.135c1.736 0 2.967-1.214 2.967-2.914 0-1.642-1.167-2.833-2.779-2.833-1.009 0-1.836.481-2.252 1.302h-.094c.059-2.252.839-3.471 2.217-3.471.833 0 1.472.481 1.7 1.272h1.085c-.27-1.36-1.337-2.211-2.773-2.211-2.07 0-3.255 1.666-3.255 4.574 0 .933.135 1.713.41 2.358.528 1.243 1.502 1.923 2.774 1.923zm-.012-.926c-1.084 0-1.911-.856-1.911-1.988 0-1.12.803-1.918 1.923-1.918s1.9.798 1.9 1.953c0 1.108-.827 1.953-1.912 1.953zm8.544.733h1.032v-1.754h1.203v-.944h-1.203v-5.764h-1.53c-1.525 2.281-2.868 4.404-3.624 5.747v.961h4.122v1.754zm-3.043-2.762c1.009-1.713 2.111-3.46 2.979-4.721h.07v4.791h-3.049v-.07zM545.072 431.545c.545 0 1.061-.088 1.513-.258l.744 1.015h1.185l-1.073-1.49c.962-.692 1.501-2.011 1.501-3.694 0-2.727-1.489-4.433-3.87-4.433-2.393 0-3.888 1.7-3.888 4.433 0 2.744 1.478 4.427 3.888 4.427zm.006-.973c-1.736 0-2.809-1.32-2.809-3.454 0-2.129 1.079-3.46 2.803-3.46 1.712 0 2.785 1.337 2.785 3.46 0 1.29-.369 2.299-1.032 2.826l-.768-1.02h-1.196l1.12 1.519c-.294.088-.593.129-.903.129zm5.875.832c.423 0 .763-.346.763-.762 0-.422-.34-.762-.763-.762-.416 0-.762.34-.762.762 0 .416.346.762.762.762zm5.208.141c1.794 0 3.049-1.014 3.049-2.463 0-1.102-.698-1.958-1.759-2.158v-.094c.874-.24 1.413-.961 1.413-1.888 0-1.319-1.12-2.257-2.703-2.257-1.584 0-2.704.938-2.704 2.257 0 .921.552 1.654 1.414 1.888v.094c-1.062.2-1.76 1.056-1.76 2.158 0 1.449 1.255 2.463 3.05 2.463zm0-.903c-1.173 0-1.982-.668-1.982-1.636 0-.968.809-1.636 1.982-1.636s1.982.668 1.982 1.636c0 .968-.809 1.636-1.982 1.636zm0-4.163c-.997 0-1.666-.575-1.666-1.437 0-.874.663-1.454 1.666-1.454 1.002 0 1.665.58 1.665 1.454 0 .862-.668 1.437-1.665 1.437zm6.802 4.867h1.056v-8.462h-1.05l-2.252 1.618v1.115l2.152-1.56h.094v7.289zM553.078 375.5c.546 0 1.062-.088 1.513-.258l.745 1.015h1.184l-1.073-1.49c.962-.692 1.501-2.011 1.501-3.694 0-2.727-1.489-4.433-3.87-4.433-2.392 0-3.888 1.7-3.888 4.433 0 2.744 1.478 4.427 3.888 4.427zm.006-.973c-1.736 0-2.809-1.32-2.809-3.454 0-2.129 1.079-3.46 2.803-3.46 1.712 0 2.786 1.337 2.786 3.46 0 1.29-.37 2.299-1.032 2.826l-.769-1.02h-1.196l1.12 1.519c-.293.088-.592.129-.903.129zm5.876.833c.422 0 .762-.346.762-.763 0-.422-.34-.762-.762-.762-.417 0-.763.34-.763.762 0 .417.346.763.763.763zm3.078-.059h1.109l3.765-7.483v-.979h-5.601v.944h4.527v.082l-3.8 7.436zm9.084.193c2.07 0 3.254-1.665 3.254-4.574 0-.932-.134-1.712-.41-2.357-.528-1.249-1.507-1.923-2.774-1.923-1.735 0-2.967 1.213-2.967 2.914 0 1.642 1.167 2.832 2.78 2.832 1.008 0 1.835-.48 2.251-1.301h.094c-.058 2.251-.838 3.471-2.216 3.471-.833 0-1.472-.481-1.701-1.272h-1.085c.27 1.36 1.337 2.21 2.774 2.21zm.07-4.022c-1.12 0-1.9-.798-1.9-1.953 0-1.108.827-1.953 1.912-1.953s1.912.856 1.912 1.988c0 1.12-.804 1.918-1.924 1.918zM414.194 371.464c.455 0 .885-.073 1.261-.215l.621.845h.987l-.894-1.241c.801-.577 1.251-1.676 1.251-3.079 0-2.272-1.242-3.694-3.226-3.694-1.993 0-3.24 1.417-3.24 3.694 0 2.287 1.232 3.69 3.24 3.69zm.005-.811c-1.446 0-2.341-1.1-2.341-2.879 0-1.774.9-2.883 2.336-2.883 1.427 0 2.322 1.114 2.322 2.883 0 1.075-.308 1.916-.861 2.356l-.64-.851h-.997l.934 1.266c-.245.073-.494.108-.753.108zm4.897.694c.352 0 .635-.289.635-.636 0-.352-.283-.635-.635-.635-.347 0-.636.283-.636.635 0 .347.289.636.636.636zm4.339.117c1.496 0 2.541-.846 2.541-2.053 0-.918-.581-1.632-1.466-1.798v-.078c.728-.2 1.178-.802 1.178-1.574 0-1.099-.933-1.881-2.253-1.881-1.319 0-2.253.782-2.253 1.881 0 .768.46 1.378 1.178 1.574v.078c-.884.166-1.466.88-1.466 1.798 0 1.207 1.046 2.053 2.541 2.053zm0-.753c-.977 0-1.652-.557-1.652-1.363 0-.806.675-1.364 1.652-1.364.978 0 1.652.558 1.652 1.364s-.674 1.363-1.652 1.363zm0-3.469c-.831 0-1.388-.479-1.388-1.198 0-.728.553-1.211 1.388-1.211.836 0 1.388.483 1.388 1.211 0 .719-.557 1.198-1.388 1.198zm6.475 4.217c1.447 0 2.473-1.012 2.473-2.429 0-1.368-.973-2.36-2.317-2.36-.84 0-1.529.401-1.876 1.085h-.078c.049-1.877.699-2.893 1.847-2.893.694 0 1.227.401 1.417 1.06h.904c-.225-1.133-1.114-1.842-2.311-1.842-1.725 0-2.712 1.388-2.712 3.812 0 .777.112 1.427.342 1.964.439 1.036 1.251 1.603 2.311 1.603zm-.01-.772c-.904 0-1.593-.714-1.593-1.657 0-.933.67-1.598 1.603-1.598.933 0 1.583.665 1.583 1.628 0 .923-.689 1.627-1.593 1.627z"/>
    <rect width="191.153" height="42.034" x="447.359" fill="#fff" rx="4"/>
    <rect width="190.153" height="41.034" x="447.859" y=".5" stroke="#3E3E5F" stroke-opacity=".12" rx="3.5"/>
    <g clip-path="url(#prefix__clip0)">
        <path fill="#2EBF91" d="M458.711 23.347l-2.509-2.51-.837.837 3.346 3.346 7.17-7.17-.837-.836-6.333 6.333z"/>
    </g>
    <path fill="#3E3E5F" fill-opacity=".6" d="M474.863 25.22c1.8 0 3.137-1.003 3.419-2.557h-1.073c-.27.979-1.167 1.583-2.346 1.583-1.63 0-2.65-1.331-2.65-3.454s1.02-3.46 2.644-3.46c1.167 0 2.07.686 2.352 1.777h1.073c-.252-1.63-1.642-2.75-3.425-2.75-2.298 0-3.729 1.7-3.729 4.433 0 2.727 1.436 4.427 3.735 4.427zm8.919-3.718c0 2.117.54 3.829 1.666 5.318h.856c-.839-1.067-1.484-3.325-1.484-5.318 0-1.982.651-4.246 1.484-5.313h-.856c-1.126 1.49-1.666 3.201-1.666 5.313zm4.058-2.563v.006h1.021v-.006c0-.997.668-1.66 1.659-1.66.933 0 1.654.651 1.654 1.496 0 .68-.264 1.137-1.355 2.322l-2.926 3.196v.727h5.477v-.95h-3.964v-.094l2.035-2.187c1.39-1.49 1.788-2.176 1.788-3.055 0-1.343-1.161-2.375-2.679-2.375-1.572 0-2.71 1.079-2.71 2.58zm10.157 6.28c1.9 0 2.991-1.606 2.991-4.415 0-2.803-1.109-4.445-2.991-4.445-1.894 0-3.003 1.636-3.003 4.427 0 2.815 1.097 4.433 3.003 4.433zm0-.92c-1.249 0-1.941-1.25-1.941-3.513 0-2.234.704-3.5 1.941-3.5s1.929 1.254 1.929 3.5c0 2.27-.68 3.513-1.929 3.513zm6.943-2.797c0-2.111-.54-3.824-1.665-5.313h-.857c.833 1.067 1.484 3.33 1.484 5.313 0 1.993-.645 4.251-1.484 5.318h.857c1.125-1.49 1.665-3.201 1.665-5.318z"/>
    <path fill="#D91414" d="M530.425 17.82l-.806-.806-3.197 3.197-3.197-3.197-.806.806 3.197 3.197-3.197 3.197.806.806 3.197-3.197 3.197 3.197.806-.806-3.197-3.197 3.197-3.197z"/>
    <path fill="#3E3E5F" fill-opacity=".6" d="M540.205 18.34h.07l1.947 6.68h.997l2.304-8.462h-1.102l-1.683 6.879h-.071l-1.894-6.879h-1.067l-1.894 6.879h-.07l-1.683-6.879h-1.103l2.305 8.462h.997l1.947-6.68zm10.655 3.162c0 2.117.539 3.829 1.665 5.318h.856c-.838-1.067-1.483-3.325-1.483-5.318 0-1.982.65-4.246 1.483-5.313h-.856c-1.126 1.49-1.665 3.201-1.665 5.313zm6.133 3.518h1.056v-8.462h-1.05l-2.252 1.619v1.114l2.153-1.56h.093v7.29zm6.427.2c1.9 0 2.991-1.607 2.991-4.416 0-2.803-1.108-4.445-2.991-4.445-1.894 0-3.002 1.636-3.002 4.427 0 2.815 1.097 4.433 3.002 4.433zm0-.921c-1.249 0-1.941-1.25-1.941-3.513 0-2.234.704-3.5 1.941-3.5 1.238 0 1.93 1.254 1.93 3.5 0 2.27-.681 3.513-1.93 3.513zm6.943-2.797c0-2.111-.539-3.824-1.665-5.313h-.856c.833 1.067 1.484 3.33 1.484 5.313 0 1.993-.645 4.251-1.484 5.318h.856c1.126-1.49 1.665-3.201 1.665-5.318zM602.645 16.558h-1.055v5.553c0 1.807 1.26 3.108 3.36 3.108 2.099 0 3.36-1.301 3.36-3.108v-5.553h-1.056v5.483c0 1.279-.838 2.205-2.304 2.205-1.466 0-2.305-.926-2.305-2.205v-5.483zm11.582 4.944c0 2.117.539 3.829 1.665 5.318h.856c-.838-1.067-1.483-3.325-1.483-5.318 0-1.982.651-4.246 1.483-5.313h-.856c-1.126 1.49-1.665 3.201-1.665 5.313zm6.955 3.717c1.9 0 2.99-1.606 2.99-4.415 0-2.803-1.108-4.445-2.99-4.445-1.895 0-3.003 1.636-3.003 4.427 0 2.815 1.097 4.433 3.003 4.433zm0-.92c-1.249 0-1.941-1.25-1.941-3.513 0-2.234.703-3.5 1.941-3.5 1.237 0 1.929 1.254 1.929 3.5 0 2.27-.68 3.513-1.929 3.513zm6.943-2.797c0-2.111-.54-3.824-1.666-5.313h-.856c.833 1.067 1.484 3.33 1.484 5.313 0 1.993-.645 4.251-1.484 5.318h.856c1.126-1.49 1.666-3.201 1.666-5.318z"/>
    <circle cx="592.475" cy="21.017" r="4.003" fill="#3E3E5F" fill-opacity=".3"/>
    <path stroke="#3E3E5F" stroke-opacity=".12" d="M514.913 1.001L514.913 41.033M580.966 1.001L580.966 41.033"/>
    <rect width="196.157" height="42.034" x="227.182" fill="#fff" rx="4"/>
    <rect width="195.157" height="41.034" x="227.682" y=".5" stroke="#3E3E5F" stroke-opacity=".12" rx="3.5"/>
    <path fill="#3E3E5F" fill-opacity=".6" d="M382.789 25.22c1.801 0 3.138-1.003 3.419-2.557h-1.073c-.27.979-1.167 1.583-2.346 1.583-1.63 0-2.65-1.331-2.65-3.454s1.02-3.46 2.644-3.46c1.167 0 2.07.686 2.352 1.777h1.073c-.252-1.63-1.642-2.75-3.425-2.75-2.298 0-3.729 1.7-3.729 4.433 0 2.727 1.437 4.427 3.735 4.427zm8.92-3.718c0 2.117.539 3.829 1.665 5.318h.856c-.838-1.067-1.484-3.325-1.484-5.318 0-1.982.651-4.246 1.484-5.313h-.856c-1.126 1.49-1.665 3.201-1.665 5.313zm5.84-.382h1.073c1.202 0 1.947.61 1.947 1.59 0 .926-.791 1.589-1.906 1.589-1.09 0-1.853-.58-1.947-1.484h-1.02c.076 1.449 1.261 2.404 2.979 2.404 1.671 0 2.979-1.084 2.979-2.48 0-1.155-.698-1.953-1.847-2.1v-.093c.926-.223 1.483-.962 1.483-1.97 0-1.232-1.178-2.217-2.656-2.217-1.613 0-2.662.903-2.768 2.369h1.026c.088-.909.728-1.449 1.701-1.449.973 0 1.624.575 1.624 1.437 0 .88-.68 1.501-1.642 1.501h-1.026v.903zm8.644 4.1c1.9 0 2.991-1.607 2.991-4.416 0-2.803-1.109-4.445-2.991-4.445-1.894 0-3.003 1.636-3.003 4.427 0 2.815 1.097 4.433 3.003 4.433zm0-.921c-1.249 0-1.941-1.25-1.941-3.513 0-2.234.704-3.5 1.941-3.5s1.929 1.254 1.929 3.5c0 2.27-.68 3.513-1.929 3.513zm6.943-2.797c0-2.111-.54-3.824-1.666-5.313h-.856c.833 1.067 1.484 3.33 1.484 5.313 0 1.993-.645 4.251-1.484 5.318h.856c1.126-1.49 1.666-3.201 1.666-5.318z"/>
    <circle cx="370.297" cy="21.017" r="4.003" fill="#FFBFF0"/>
    <path fill="#3E3E5F" fill-opacity=".6" d="M256.616 25.02v-8.462h-1.226l-2.897 7.002h-.093l-2.897-7.002h-1.226v8.462h.985v-6.462h.071l2.668 6.403h.891l2.668-6.403h.071v6.462h.985zm5.887-3.518c0 2.117.54 3.829 1.666 5.318h.856c-.839-1.067-1.484-3.325-1.484-5.318 0-1.982.651-4.246 1.484-5.313h-.856c-1.126 1.49-1.666 3.201-1.666 5.313zm5.841-.382h1.073c1.202 0 1.947.61 1.947 1.59 0 .926-.792 1.589-1.906 1.589-1.091 0-1.853-.58-1.947-1.484h-1.02c.076 1.449 1.261 2.404 2.979 2.404 1.671 0 2.979-1.084 2.979-2.48 0-1.155-.698-1.953-1.847-2.1v-.093c.926-.223 1.483-.962 1.483-1.97 0-1.232-1.178-2.217-2.656-2.217-1.613 0-2.662.903-2.768 2.369h1.026c.088-.909.727-1.449 1.701-1.449.973 0 1.624.575 1.624 1.437 0 .88-.68 1.501-1.642 1.501h-1.026v.903zm8.644 4.1c1.9 0 2.99-1.607 2.99-4.416 0-2.803-1.108-4.445-2.99-4.445-1.894 0-3.003 1.636-3.003 4.427 0 2.815 1.097 4.433 3.003 4.433zm0-.921c-1.249 0-1.941-1.25-1.941-3.513 0-2.234.703-3.5 1.941-3.5 1.237 0 1.929 1.254 1.929 3.5 0 2.27-.68 3.513-1.929 3.513zm6.943-2.797c0-2.111-.54-3.824-1.666-5.313h-.856c.833 1.067 1.484 3.33 1.484 5.313 0 1.993-.645 4.251-1.484 5.318h.856c1.126-1.49 1.666-3.201 1.666-5.318z"/>
    <circle cx="239.192" cy="21.017" r="4.003" fill="#C2D3FF"/>
    <path fill="#3E3E5F" fill-opacity=".6" d="M315.331 16.558v8.462h1.055V22h2.129c1.589 0 2.721-1.12 2.721-2.703 0-1.613-1.108-2.739-2.709-2.739h-3.196zm1.055.938h1.865c1.226 0 1.9.64 1.9 1.8 0 1.12-.698 1.766-1.9 1.766h-1.865v-3.566zm10.309 4.006c0 2.117.54 3.829 1.666 5.318h.856c-.839-1.067-1.484-3.325-1.484-5.318 0-1.982.651-4.246 1.484-5.313h-.856c-1.126 1.49-1.666 3.201-1.666 5.313zm5.841-.382h1.073c1.202 0 1.947.61 1.947 1.59 0 .926-.792 1.589-1.906 1.589-1.09 0-1.853-.58-1.947-1.484h-1.02c.076 1.449 1.261 2.404 2.979 2.404 1.671 0 2.979-1.084 2.979-2.48 0-1.155-.698-1.953-1.847-2.1v-.093c.926-.223 1.483-.962 1.483-1.97 0-1.232-1.178-2.217-2.656-2.217-1.613 0-2.662.903-2.768 2.369h1.026c.088-.909.727-1.449 1.701-1.449.973 0 1.624.575 1.624 1.437 0 .88-.68 1.501-1.642 1.501h-1.026v.903zm8.644 4.1c1.9 0 2.99-1.607 2.99-4.416 0-2.803-1.108-4.445-2.99-4.445-1.894 0-3.003 1.636-3.003 4.427 0 2.815 1.097 4.433 3.003 4.433zm0-.921c-1.249 0-1.941-1.25-1.941-3.513 0-2.234.703-3.5 1.941-3.5 1.237 0 1.929 1.254 1.929 3.5 0 2.27-.68 3.513-1.929 3.513zm6.943-2.797c0-2.111-.54-3.824-1.666-5.313h-.856c.833 1.067 1.484 3.33 1.484 5.313 0 1.993-.645 4.251-1.484 5.318h.856c1.126-1.49 1.666-3.201 1.666-5.318z"/>
    <circle cx="306.246" cy="21.017" r="4.003" fill="#FFD99A"/>
    <path stroke="#3E3E5F" stroke-opacity=".12" d="M294.736 1.001L294.736 41.033M358.788 1.001L358.788 41.033"/>
    <path fill="#3E3E5F" fill-opacity=".3" d="M60.683 359.487c.546 0 1.062-.088 1.513-.258l.745 1.015h1.185l-1.074-1.49c.962-.692 1.502-2.011 1.502-3.694 0-2.727-1.49-4.433-3.87-4.433-2.393 0-3.889 1.7-3.889 4.433 0 2.744 1.478 4.427 3.888 4.427zm.006-.973c-1.736 0-2.809-1.319-2.809-3.454 0-2.129 1.08-3.46 2.803-3.46 1.713 0 2.786 1.337 2.786 3.46 0 1.29-.37 2.299-1.032 2.827l-.768-1.021h-1.197l1.12 1.519c-.293.088-.592.129-.903.129zm7.588.774h1.056v-8.462h-1.05l-2.252 1.619v1.114l2.153-1.56h.093v7.289zM19.98 311.25h1.056v-8.462h-1.05l-2.251 1.618v1.114l2.152-1.56h.094v7.29zM16.904 253.127v.006h1.02v-.006c0-.997.669-1.66 1.66-1.66.932 0 1.654.651 1.654 1.496 0 .68-.264 1.137-1.355 2.322l-2.926 3.196v.727h5.477v-.95H18.47v-.094l2.035-2.187c1.39-1.49 1.788-2.176 1.788-3.055 0-1.343-1.16-2.375-2.68-2.375-1.571 0-2.709 1.079-2.709 2.58zM18.687 203.266h1.073c1.202 0 1.947.61 1.947 1.59 0 .926-.792 1.589-1.906 1.589-1.09 0-1.853-.581-1.947-1.484h-1.02c.076 1.449 1.26 2.404 2.979 2.404 1.671 0 2.979-1.084 2.979-2.48 0-1.155-.698-1.953-1.848-2.099v-.094c.927-.223 1.484-.962 1.484-1.971 0-1.231-1.178-2.216-2.656-2.216-1.613 0-2.663.903-2.768 2.369h1.026c.088-.909.727-1.448 1.7-1.448.974 0 1.625.574 1.625 1.436 0 .88-.68 1.501-1.642 1.501h-1.026v.903zM20.821 155.124h1.032v-1.753h1.203v-.944h-1.203v-5.765h-1.53c-1.525 2.282-2.868 4.404-3.624 5.747v.962h4.122v1.753zm-3.043-2.762c1.009-1.712 2.111-3.459 2.979-4.72h.07v4.791h-3.05v-.071zM19.748 103.282c1.754 0 2.956-1.173 2.956-2.891 0-1.665-1.126-2.832-2.733-2.832-.78 0-1.378.24-1.788.721h-.094l.24-2.715h3.894v-.944h-4.72l-.464 4.797h.991c.346-.604.98-.95 1.748-.95 1.108 0 1.87.791 1.87 1.952s-.756 1.935-1.888 1.935c-.997 0-1.724-.609-1.818-1.524h-1.038c.094 1.46 1.243 2.451 2.844 2.451zM95.712 359.487c.545 0 1.06-.088 1.512-.258l.745 1.015h1.185l-1.073-1.49c.961-.692 1.5-2.011 1.5-3.694 0-2.727-1.489-4.433-3.87-4.433-2.392 0-3.887 1.7-3.887 4.433 0 2.744 1.477 4.427 3.888 4.427zm.005-.973c-1.735 0-2.808-1.319-2.808-3.454 0-2.129 1.078-3.46 2.802-3.46 1.713 0 2.786 1.337 2.786 3.46 0 1.29-.37 2.299-1.032 2.827l-.768-1.021H95.5l1.12 1.519c-.293.088-.592.129-.903.129zm5.513-5.307v.006h1.02v-.006c0-.997.668-1.66 1.659-1.66.933 0 1.654.651 1.654 1.496 0 .68-.264 1.137-1.354 2.322l-2.927 3.196v.727h5.477v-.95h-3.964v-.094l2.035-2.187c1.39-1.49 1.789-2.176 1.789-3.055 0-1.343-1.161-2.375-2.68-2.375-1.572 0-2.709 1.079-2.709 2.58zM132.741 359.487c.546 0 1.062-.088 1.513-.258l.745 1.015h1.184l-1.073-1.49c.962-.692 1.501-2.011 1.501-3.694 0-2.727-1.489-4.433-3.87-4.433-2.392 0-3.888 1.7-3.888 4.433 0 2.744 1.478 4.427 3.888 4.427zm.006-.973c-1.736 0-2.809-1.319-2.809-3.454 0-2.129 1.079-3.46 2.803-3.46 1.712 0 2.786 1.337 2.786 3.46 0 1.29-.37 2.299-1.032 2.827l-.769-1.021h-1.196l1.12 1.519c-.293.088-.592.129-.903.129zm7.295-3.126h1.073c1.202 0 1.947.61 1.947 1.59 0 .926-.792 1.589-1.906 1.589-1.091 0-1.853-.581-1.947-1.484h-1.02c.076 1.449 1.261 2.404 2.979 2.404 1.671 0 2.979-1.084 2.979-2.48 0-1.155-.698-1.953-1.847-2.099v-.094c.926-.223 1.483-.962 1.483-1.971 0-1.231-1.178-2.216-2.656-2.216-1.613 0-2.662.903-2.768 2.369h1.026c.088-.909.727-1.449 1.701-1.449.973 0 1.624.575 1.624 1.437 0 .88-.68 1.501-1.642 1.501h-1.026v.903zM169.771 359.487c.545 0 1.061-.088 1.513-.258l.745 1.015h1.184l-1.073-1.49c.962-.692 1.501-2.011 1.501-3.694 0-2.727-1.489-4.433-3.87-4.433-2.393 0-3.888 1.7-3.888 4.433 0 2.744 1.478 4.427 3.888 4.427zm.006-.973c-1.736 0-2.809-1.319-2.809-3.454 0-2.129 1.079-3.46 2.803-3.46 1.712 0 2.785 1.337 2.785 3.46 0 1.29-.369 2.299-1.032 2.827l-.768-1.021h-1.196l1.12 1.519c-.293.088-.592.129-.903.129zm9.429.774h1.032v-1.753h1.202v-.944h-1.202v-5.765h-1.53c-1.525 2.281-2.868 4.404-3.624 5.747v.962h4.122v1.753zm-3.043-2.762c1.008-1.712 2.111-3.46 2.979-4.721h.07v4.791h-3.049v-.07zM206.801 359.487c.545 0 1.061-.088 1.512-.258l.745 1.015h1.185l-1.073-1.49c.961-.692 1.501-2.011 1.501-3.694 0-2.727-1.49-4.433-3.87-4.433-2.393 0-3.888 1.7-3.888 4.433 0 2.744 1.477 4.427 3.888 4.427zm.005-.973c-1.735 0-2.808-1.319-2.808-3.454 0-2.129 1.079-3.46 2.803-3.46 1.712 0 2.785 1.337 2.785 3.46 0 1.29-.369 2.299-1.032 2.827l-.768-1.021h-1.197l1.12 1.519c-.293.088-.592.129-.903.129zm8.357.973c1.753 0 2.955-1.172 2.955-2.891 0-1.665-1.126-2.832-2.732-2.832-.78 0-1.378.241-1.789.721h-.094l.241-2.715h3.893v-.944h-4.72l-.463 4.797h.991c.346-.604.979-.95 1.747-.95 1.108 0 1.871.792 1.871 1.953s-.757 1.935-1.889 1.935c-.996 0-1.724-.61-1.817-1.525h-1.038c.093 1.46 1.243 2.451 2.844 2.451zM243.83 359.487c.546 0 1.062-.088 1.513-.258l.745 1.015h1.184l-1.073-1.49c.962-.692 1.502-2.011 1.502-3.694 0-2.727-1.49-4.433-3.871-4.433-2.392 0-3.888 1.7-3.888 4.433 0 2.744 1.478 4.427 3.888 4.427zm.006-.973c-1.736 0-2.809-1.319-2.809-3.454 0-2.129 1.079-3.46 2.803-3.46 1.713 0 2.786 1.337 2.786 3.46 0 1.29-.37 2.299-1.032 2.827l-.769-1.021h-1.196l1.12 1.519c-.293.088-.592.129-.903.129zm8.556.968c1.736 0 2.967-1.214 2.967-2.915 0-1.642-1.167-2.832-2.78-2.832-1.008 0-1.835.481-2.251 1.302h-.094c.058-2.252.838-3.472 2.216-3.472.833 0 1.472.481 1.701 1.273h1.085c-.27-1.361-1.337-2.211-2.774-2.211-2.07 0-3.254 1.665-3.254 4.574 0 .932.134 1.712.41 2.357.528 1.243 1.501 1.924 2.774 1.924zm-.012-.927c-1.085 0-1.912-.856-1.912-1.988 0-1.12.804-1.917 1.924-1.917 1.12 0 1.9.797 1.9 1.952 0 1.109-.827 1.953-1.912 1.953zM280.86 359.487c.545 0 1.061-.088 1.513-.258l.745 1.015h1.184l-1.073-1.49c.962-.692 1.501-2.011 1.501-3.694 0-2.727-1.489-4.433-3.87-4.433-2.393 0-3.888 1.7-3.888 4.433 0 2.744 1.478 4.427 3.888 4.427zm.006-.973c-1.736 0-2.809-1.319-2.809-3.454 0-2.129 1.079-3.46 2.803-3.46 1.712 0 2.785 1.337 2.785 3.46 0 1.29-.369 2.299-1.032 2.827l-.768-1.021h-1.196l1.12 1.519c-.293.088-.592.129-.903.129zm5.799.774h1.109l3.764-7.483v-.979h-5.6v.944h4.527v.082l-3.8 7.436zM316.889 359.487c.545 0 1.061-.088 1.513-.258l.744 1.015h1.185l-1.073-1.49c.962-.692 1.501-2.011 1.501-3.694 0-2.727-1.489-4.433-3.87-4.433-2.393 0-3.888 1.7-3.888 4.433 0 2.744 1.478 4.427 3.888 4.427zm.006-.973c-1.736 0-2.809-1.319-2.809-3.454 0-2.129 1.079-3.46 2.803-3.46 1.712 0 2.785 1.337 2.785 3.46 0 1.29-.369 2.299-1.032 2.827l-.768-1.021h-1.196l1.12 1.519c-.293.088-.593.129-.903.129zm8.456.973c1.794 0 3.049-1.014 3.049-2.462 0-1.103-.698-1.959-1.759-2.158v-.094c.874-.241 1.413-.962 1.413-1.889 0-1.319-1.12-2.257-2.703-2.257-1.584 0-2.704.938-2.704 2.257 0 .921.552 1.654 1.414 1.889v.094c-1.062.199-1.76 1.055-1.76 2.158 0 1.448 1.255 2.462 3.05 2.462zm0-.903c-1.173 0-1.982-.668-1.982-1.636 0-.967.809-1.636 1.982-1.636 1.172 0 1.982.669 1.982 1.636 0 .968-.81 1.636-1.982 1.636zm0-4.163c-.997 0-1.666-.575-1.666-1.437 0-.874.663-1.454 1.666-1.454 1.002 0 1.665.58 1.665 1.454 0 .862-.668 1.437-1.665 1.437z"/>
    <path stroke="#3E3E5F" stroke-opacity=".12" d="M32.526 71.057L32.526 371.298M0 338.772L340.273 338.772"/>
    <path fill="#2EBF91" d="M58.047 170.136c0-1.105.896-2.001 2.001-2.001h8.007c1.105 0 2.001.896 2.001 2.001v169.136h-12.01V170.136z"/>
    <path fill="#F91607" d="M94.075 127.102c0-1.106.897-2.002 2.002-2.002h8.006c1.106 0 2.002.896 2.002 2.002v212.17h-12.01v-212.17z"/>
    <path fill="#2EBF91" d="M131.105 258.207c0-1.105.896-2.002 2.002-2.002h8.006c1.106 0 2.002.897 2.002 2.002v81.065h-12.01v-81.065zM168.135 291.233c0-1.105.896-2.001 2.001-2.001h8.007c1.105 0 2.001.896 2.001 2.001v48.039h-12.009v-48.039zM205.164 229.184c0-1.106.897-2.002 2.002-2.002h8.006c1.106 0 2.002.896 2.002 2.002v110.088h-12.01V229.184z"/>
    <path fill="#CDCDCD" d="M242.194 271.217c0-1.105.896-2.001 2.002-2.001h8.006c1.106 0 2.002.896 2.002 2.001v68.055h-12.01v-68.055z"/>
    <path fill="#2EBF91" d="M278.223 278.223c0-1.105.896-2.002 2.002-2.002h8.006c1.106 0 2.002.897 2.002 2.002v61.049h-12.01v-61.049zM315.253 210.168c0-1.105.896-2.001 2.001-2.001h8.007c1.105 0 2.001.896 2.001 2.001v129.104h-12.009V210.168z"/>
    <g clip-path="url(#prefix__clip1)">
        <g stroke="#fff" clip-path="url(#prefix__clip2)">
            <path fill="#C2D3FF" d="M551.01 216.407c6.994-12.127 10.685-25.876 10.707-39.876.021-14-3.629-27.76-10.585-39.909-6.957-12.148-16.978-22.261-29.063-29.328-12.085-7.067-25.812-10.841-39.811-10.947l-.303 40.031c7 .053 13.863 1.94 19.906 5.473 6.042 3.534 11.053 8.59 14.531 14.664 3.479 6.075 5.303 12.955 5.293 19.955-.011 7-1.857 13.874-5.354 19.938l34.679 19.999z"/>
            <path fill="#FFBFF0" d="M482.26 96.347c-14.655-.11-29.06 3.803-41.643 11.315-12.584 7.512-22.865 18.333-29.722 31.285-6.857 12.952-10.028 27.538-9.167 42.168.862 14.63 5.722 28.743 14.052 40.801l32.937-22.753c-4.165-6.029-6.595-13.086-7.026-20.401-.431-7.315 1.155-14.608 4.583-21.084 3.429-6.476 8.569-11.887 14.861-15.642 6.292-3.756 13.494-5.713 20.822-5.658l.303-40.03z"/>
            <path fill="#FFD99A" d="M415.782 221.916c7.678 11.114 18.043 20.105 30.131 26.136 12.087 6.031 25.504 8.905 39.002 8.355 13.497-.55 26.636-4.505 38.193-11.499 11.557-6.994 21.157-16.798 27.905-28.5l-34.678-19.999c-3.375 5.851-8.174 10.753-13.953 14.25-5.779 3.496-12.348 5.474-19.097 5.749-6.748.275-13.457-1.162-19.501-4.177-6.043-3.016-11.226-7.511-15.065-13.068l-32.937 22.753z"/>
        </g>
    </g>
    <path fill="#3E3E5F" fill-opacity=".6" d="M609.461 97.078v-8.462h-1.225l-2.897 7.002h-.094l-2.897-7.002h-1.225v8.462h.985v-6.462h.07l2.668 6.403h.892l2.668-6.403h.07v6.462h.985zm3.976-.774c-.733 0-1.278-.376-1.278-1.02 0-.634.422-.968 1.384-1.033l1.7-.111v.58c0 .904-.768 1.584-1.806 1.584zm-.188.885c.845 0 1.537-.37 1.947-1.044h.094v.933h.962V92.75c0-1.313-.862-2.105-2.404-2.105-1.349 0-2.346.668-2.481 1.683h1.02c.141-.499.669-.786 1.425-.786.945 0 1.431.428 1.431 1.208v.575l-1.823.111c-1.472.088-2.305.74-2.305 1.87 0 1.156.909 1.883 2.134 1.883zm5.29-8.069v1.636h-1.021v.845h1.021v3.835c0 1.208.522 1.689 1.824 1.689.199 0 .392-.024.592-.059v-.85c-.188.017-.288.023-.469.023-.657 0-.939-.316-.939-1.061V91.6h1.408v-.845h-1.408V89.12h-1.008zm3.999 7.958h1.009v-3.742c0-1.067.621-1.782 1.753-1.782.956 0 1.46.557 1.46 1.677v3.847h1.009v-4.093c0-1.484-.845-2.34-2.182-2.34-.967 0-1.63.41-1.946 1.108h-.094v-3.507h-1.009v8.832zm6.926-4.592c0 .915.539 1.425 1.724 1.713l1.085.263c.674.165 1.002.458 1.002.892 0 .58-.61.985-1.46.985-.809 0-1.313-.34-1.484-.874h-1.037c.111 1.05 1.079 1.724 2.486 1.724 1.437 0 2.533-.78 2.533-1.911 0-.91-.574-1.425-1.765-1.713l-.973-.234c-.745-.182-1.097-.452-1.097-.886 0-.563.587-.944 1.337-.944.762 0 1.255.334 1.39.839h.997c-.135-1.038-1.056-1.695-2.381-1.695-1.343 0-2.357.792-2.357 1.841zm-39.765 20.798c1.736 0 2.968-1.214 2.968-2.914 0-1.642-1.167-2.833-2.78-2.833-1.009 0-1.835.481-2.252 1.302h-.094c.059-2.252.839-3.471 2.217-3.471.833 0 1.472.481 1.701 1.272h1.084c-.269-1.36-1.337-2.211-2.773-2.211-2.07 0-3.255 1.666-3.255 4.574 0 .933.135 1.713.411 2.358.527 1.243 1.501 1.923 2.773 1.923zm-.011-.926c-1.085 0-1.912-.857-1.912-1.988 0-1.12.803-1.918 1.923-1.918s1.9.798 1.9 1.953c0 1.108-.827 1.953-1.911 1.953zm7.523.932c1.9 0 2.991-1.607 2.991-4.416 0-2.803-1.108-4.445-2.991-4.445-1.894 0-3.002 1.636-3.002 4.428 0 2.815 1.096 4.433 3.002 4.433zm0-.921c-1.249 0-1.941-1.249-1.941-3.512 0-2.234.704-3.501 1.941-3.501 1.238 0 1.929 1.255 1.929 3.501 0 2.269-.68 3.512-1.929 3.512zm8.116.722h1.009v-3.918c0-.891.639-1.606 1.466-1.606.797 0 1.319.481 1.319 1.231v4.293h1.009v-4.064c0-.804.586-1.46 1.466-1.46.891 0 1.331.457 1.331 1.389v4.135h1.009v-4.369c0-1.325-.722-2.064-2.012-2.064-.874 0-1.595.44-1.935 1.108h-.094c-.293-.657-.891-1.108-1.747-1.108-.845 0-1.478.404-1.765 1.108h-.094v-.997h-.962v6.322zm10.473 0h1.009v-6.322H615.8v6.322zm.505-7.606c.387 0 .703-.317.703-.704 0-.387-.316-.703-.703-.703-.387 0-.704.316-.704.703 0 .387.317.704.704.704zm2.427 7.606h1.009v-3.742c0-1.108.651-1.782 1.66-1.782 1.008 0 1.489.539 1.489 1.677v3.847h1.009v-4.093c0-1.502-.792-2.34-2.211-2.34-.968 0-1.583.41-1.9 1.108h-.094v-.997h-.962v6.322zm12.127-6.322h-1.008v3.741c0 1.109-.61 1.771-1.724 1.771-1.009 0-1.431-.527-1.431-1.665v-3.847h-1.009v4.093c0 1.496.739 2.34 2.158 2.34.968 0 1.642-.399 1.959-1.102h.094v.991h.961v-6.322zm2.322-1.636v1.636h-1.02v.845h1.02v3.835c0 1.208.522 1.689 1.824 1.689.2 0 .393-.024.592-.059v-.85c-.187.017-.287.023-.469.023-.656 0-.938-.317-.938-1.061v-3.577h1.407v-.845h-1.407v-1.636h-1.009zm6.369 2.416c1.003 0 1.671.739 1.695 1.859h-3.484c.077-1.12.78-1.859 1.789-1.859zm1.665 3.906c-.264.557-.815.856-1.63.856-1.073 0-1.771-.792-1.824-2.041v-.047h4.545v-.387c0-1.964-1.038-3.178-2.744-3.178-1.736 0-2.85 1.29-2.85 3.278 0 1.999 1.096 3.266 2.85 3.266 1.383 0 2.357-.663 2.662-1.747h-1.009zm2.528-2.956c0 .915.539 1.425 1.724 1.712l1.085.264c.674.164 1.002.458 1.002.892 0 .58-.61.985-1.46.985-.809 0-1.313-.34-1.483-.874h-1.038c.111 1.05 1.079 1.724 2.486 1.724 1.437 0 2.533-.78 2.533-1.912 0-.909-.574-1.425-1.765-1.712l-.973-.234c-.745-.182-1.097-.452-1.097-.886 0-.563.587-.944 1.337-.944.762 0 1.255.334 1.39.838h.997c-.135-1.037-1.056-1.694-2.381-1.694-1.343 0-2.357.791-2.357 1.841zM60.568 442.9h-1.055v5.553c0 1.806 1.26 3.108 3.36 3.108 2.099 0 3.36-1.302 3.36-3.108V442.9h-1.056v5.483c0 1.278-.838 2.205-2.304 2.205-1.466 0-2.305-.927-2.305-2.205V442.9zm7.723 8.462H69.3v-3.741c0-1.109.65-1.783 1.66-1.783 1.008 0 1.489.539 1.489 1.677v3.847h1.008v-4.093c0-1.501-.791-2.34-2.21-2.34-.968 0-1.584.41-1.9 1.108h-.094v-.997h-.962v6.322zm8.96-.774c-.733 0-1.278-.376-1.278-1.021 0-.633.422-.967 1.384-1.032l1.7-.111v.58c0 .904-.768 1.584-1.806 1.584zm-.187.885c.844 0 1.536-.369 1.947-1.044h.093v.933h.962v-4.328c0-1.313-.862-2.105-2.404-2.105-1.349 0-2.346.668-2.48 1.683h1.02c.14-.499.668-.786 1.425-.786.944 0 1.43.428 1.43 1.208v.575l-1.823.111c-1.472.088-2.305.739-2.305 1.871 0 1.155.91 1.882 2.135 1.882zm5.29-8.069v1.636h-1.021v.845h1.02v3.835c0 1.208.522 1.689 1.824 1.689.2 0 .393-.024.592-.059v-.85c-.188.017-.287.023-.469.023-.657 0-.938-.316-.938-1.061v-3.577h1.407v-.845h-1.407v-1.636h-1.009zm4.362 0v1.636h-1.02v.845h1.02v3.835c0 1.208.522 1.689 1.824 1.689.2 0 .393-.024.592-.059v-.85c-.188.017-.287.023-.47.023-.656 0-.937-.316-.937-1.061v-3.577h1.407v-.845h-1.407v-1.636h-1.009zm6.368 2.416c1.003 0 1.672.739 1.695 1.859h-3.483c.076-1.12.78-1.859 1.788-1.859zm1.666 3.906c-.264.557-.815.856-1.63.856-1.074 0-1.771-.792-1.824-2.041v-.047h4.544v-.387c0-1.964-1.037-3.178-2.744-3.178-1.736 0-2.85 1.29-2.85 3.278 0 2 1.097 3.266 2.85 3.266 1.384 0 2.358-.662 2.662-1.747H94.75zm5.752-4.797c-.862 0-1.618.44-2.023 1.167h-.094v-1.056h-.961v8.433h1.008v-3.061h.094c.346.668 1.073 1.061 1.976 1.061 1.607 0 2.657-1.296 2.657-3.272 0-1.988-1.044-3.272-2.657-3.272zm-.24 5.635c-1.138 0-1.859-.914-1.859-2.363 0-1.454.721-2.363 1.865-2.363 1.155 0 1.847.885 1.847 2.363s-.692 2.363-1.853 2.363zm4.48.798h1.009v-3.917c0-.892.639-1.607 1.466-1.607.797 0 1.319.481 1.319 1.231v4.293h1.009v-4.064c0-.803.586-1.46 1.466-1.46.891 0 1.331.457 1.331 1.39v4.134h1.009v-4.369c0-1.325-.722-2.064-2.012-2.064-.873 0-1.595.44-1.935 1.108h-.094c-.293-.657-.891-1.108-1.747-1.108-.845 0-1.478.405-1.765 1.108h-.094v-.997h-.962v6.322zm10.872-7.958v1.636h-1.02v.845h1.02v3.835c0 1.208.522 1.689 1.824 1.689.199 0 .393-.024.592-.059v-.85c-.187.017-.287.023-.469.023-.657 0-.938-.316-.938-1.061v-3.577h1.407v-.845h-1.407v-1.636h-1.009zm6.369 2.416c1.002 0 1.671.739 1.694 1.859h-3.483c.076-1.12.78-1.859 1.789-1.859zm1.665 3.906c-.264.557-.815.856-1.63.856-1.073 0-1.771-.792-1.824-2.041v-.047h4.545v-.387c0-1.964-1.038-3.178-2.745-3.178-1.735 0-2.85 1.29-2.85 3.278 0 2 1.097 3.266 2.85 3.266 1.384 0 2.358-.662 2.663-1.747h-1.009zm5.014 1.747c.873 0 1.624-.416 2.023-1.12h.094v1.009h.961v-8.831h-1.008v3.506h-.088c-.358-.692-1.103-1.108-1.982-1.108-1.607 0-2.657 1.29-2.657 3.272 0 1.988 1.038 3.272 2.657 3.272zm.234-5.635c1.144 0 1.859.915 1.859 2.363 0 1.46-.709 2.363-1.859 2.363-1.155 0-1.847-.885-1.847-2.363 0-1.472.698-2.363 1.847-2.363zm-63.807 15.456v.006h1.02v-.006c0-.997.67-1.66 1.66-1.66.933 0 1.654.651 1.654 1.495 0 .681-.264 1.138-1.355 2.323l-2.926 3.196v.727h5.477v-.95h-3.964v-.094l2.035-2.187c1.39-1.49 1.788-2.176 1.788-3.056 0-1.342-1.16-2.375-2.68-2.375-1.571 0-2.709 1.079-2.709 2.581zm7.26 0v.006h1.02v-.006c0-.997.669-1.66 1.66-1.66.932 0 1.654.651 1.654 1.495 0 .681-.264 1.138-1.355 2.323l-2.926 3.196v.727h5.477v-.95h-3.964v-.094l2.035-2.187c1.39-1.49 1.788-2.176 1.788-3.056 0-1.342-1.161-2.375-2.68-2.375-1.571 0-2.709 1.079-2.709 2.581zm10.708 6.081h1.008v-3.918c0-.891.64-1.606 1.466-1.606.798 0 1.32.481 1.32 1.231v4.293h1.008v-4.064c0-.803.587-1.46 1.467-1.46.89 0 1.33.457 1.33 1.39v4.134h1.01v-4.369c0-1.325-.722-2.064-2.012-2.064-.874 0-1.595.44-1.935 1.108h-.094c-.293-.657-.891-1.108-1.748-1.108-.844 0-1.477.404-1.765 1.108h-.093v-.997h-.962v6.322zm10.473 0h1.009v-6.322H93.53v6.322zm.504-7.606c.387 0 .704-.317.704-.704 0-.387-.317-.703-.704-.703-.387 0-.703.316-.703.703 0 .387.316.704.703.704zm2.428 7.606h1.009v-3.742c0-1.108.65-1.782 1.66-1.782 1.008 0 1.489.539 1.489 1.677v3.847h1.008v-4.093c0-1.502-.791-2.34-2.21-2.34-.968 0-1.584.41-1.9 1.108h-.094v-.997h-.962v6.322zm12.127-6.322h-1.009v3.741c0 1.109-.609 1.771-1.724 1.771-1.008 0-1.43-.527-1.43-1.665v-3.847h-1.009v4.093c0 1.496.739 2.34 2.158 2.34.967 0 1.642-.399 1.958-1.102h.094v.991h.962v-6.322zm2.322-1.636v1.636h-1.02v.845h1.02v3.835c0 1.208.522 1.689 1.824 1.689.199 0 .393-.024.592-.059v-.85c-.187.017-.287.023-.469.023-.657 0-.938-.317-.938-1.061v-3.577h1.407v-.845h-1.407v-1.636h-1.009zm6.369 2.416c1.002 0 1.671.739 1.694 1.859h-3.483c.076-1.12.78-1.859 1.789-1.859zm1.665 3.906c-.264.557-.815.856-1.63.856-1.073 0-1.771-.792-1.824-2.041v-.047h4.545v-.387c0-1.964-1.038-3.178-2.745-3.178-1.735 0-2.85 1.29-2.85 3.278 0 1.999 1.097 3.266 2.85 3.266 1.384 0 2.358-.663 2.663-1.747h-1.009zm2.527-2.956c0 .915.54 1.425 1.724 1.712l1.085.264c.675.165 1.003.458 1.003.892 0 .58-.61.985-1.46.985-.809 0-1.314-.34-1.484-.874h-1.038c.112 1.05 1.079 1.724 2.487 1.724 1.436 0 2.533-.78 2.533-1.912 0-.909-.575-1.425-1.765-1.712l-.974-.234c-.744-.182-1.096-.452-1.096-.886 0-.563.586-.944 1.337-.944.762 0 1.255.334 1.39.839h.997c-.135-1.038-1.056-1.695-2.381-1.695-1.343 0-2.358.791-2.358 1.841z"/>
    <g clip-path="url(#prefix__clip3)">
        <path fill="#3E3E5F" d="M525.151 134.647l-.413-.38 30.577-32.941 25.148-.244.005.56-24.904.242-30.413 32.763z"/>
    </g>
    <g clip-path="url(#prefix__clip4)">
        <path fill="#3E3E5F" d="M199.815 428.801l.343.445-35.719 27.28-24.825-4.022.09-.554 24.585 3.984 35.526-27.133z"/>
    </g>
    <g clip-path="url(#prefix__clip5)">
        <g clip-path="url(#prefix__clip6)">
            <path fill="#2EBF91" d="M325.829 509.642c6.994-12.127 10.686-25.876 10.707-39.876.022-13.999-3.628-27.76-10.585-39.909-6.957-12.148-16.977-22.261-29.062-29.328s-25.812-10.841-39.811-10.947l-.303 40.031c6.999.053 13.863 1.94 19.905 5.474 6.043 3.533 11.053 8.589 14.532 14.664 3.478 6.074 5.303 12.954 5.292 19.954-.01 7-1.856 13.874-5.353 19.938l34.678 19.999z"/>
            <path fill="#3E3E5F" fill-opacity=".3" d="M257.079 389.583c-14.655-.111-29.059 3.802-41.643 11.314-12.584 7.512-22.864 18.333-29.722 31.285-6.857 12.952-10.028 27.538-9.166 42.168.861 14.63 5.721 28.743 14.051 40.801l32.937-22.753c-4.164-6.029-6.595-13.086-7.025-20.401-.431-7.315 1.154-14.608 4.583-21.084 3.429-6.476 8.569-11.886 14.861-15.642 6.292-3.756 13.494-5.713 20.821-5.658l.303-40.03z"/>
            <path fill="#D91414" d="M190.601 515.151c7.678 11.114 18.044 20.105 30.131 26.136 12.088 6.031 25.505 8.905 39.002 8.355 13.497-.549 26.636-4.505 38.193-11.499 11.557-6.994 21.157-16.798 27.906-28.5l-34.679-19.999c-3.374 5.851-8.174 10.753-13.953 14.25-5.778 3.497-12.347 5.475-19.096 5.749-6.749.275-13.457-1.162-19.501-4.177-6.044-3.016-11.226-7.511-15.065-13.068l-32.938 22.753z"/>
        </g>
    </g>
    <rect width="162.13" height="42.034" x="41.033" fill="#fff" rx="4"/>
    <rect width="161.13" height="41.034" x="41.533" y=".5" stroke="#3E3E5F" stroke-opacity=".12" rx="3.5"/>
    <path fill="#3E3E5F" fill-opacity=".6" d="M168.964 25.02v-8.462h-1.056v3.66h-4.644v-3.66h-1.056v8.462h1.056v-3.853h4.644v3.853h1.056zm7.658 0h1.108l-3.119-8.462h-1.044l-3.12 8.462h1.109l.85-2.422h3.366l.85 2.422zm-2.58-7.096h.094l1.325 3.777h-2.744l1.325-3.777zm6.228-.428h2.034c1.091 0 1.748.604 1.748 1.619 0 1.038-.616 1.618-1.701 1.618h-2.081v-3.237zm0 4.176h2.081l1.812 3.348h1.238l-1.959-3.512c1.061-.335 1.701-1.25 1.701-2.428 0-1.525-1.068-2.522-2.698-2.522h-3.231v8.462h1.056v-3.348zm6.79-5.114v8.462h2.903c2.516 0 3.993-1.566 3.993-4.234 0-2.662-1.483-4.228-3.993-4.228h-2.903zm1.056.95h1.776c1.877 0 2.985 1.22 2.985 3.29 0 2.064-1.096 3.272-2.985 3.272h-1.776v-6.562zM55.36 24.07h-4.186v-2.909h3.97v-.938h-3.97v-2.715h4.187v-.95h-5.243v8.462h5.243v-.95zm7.413.95h1.108l-3.12-8.462h-1.043l-3.12 8.462h1.108l.85-2.422h3.367l.85 2.422zm-2.58-7.096h.094l1.325 3.777h-2.745l1.326-3.777zm4.767 4.885c.112 1.46 1.349 2.41 3.143 2.41 1.936 0 3.161-.99 3.161-2.545 0-1.243-.703-1.923-2.457-2.363l-.885-.234c-1.167-.3-1.63-.68-1.63-1.343 0-.856.744-1.42 1.87-1.42 1.056 0 1.771.517 1.918 1.385h1.061c-.088-1.367-1.308-2.34-2.944-2.34-1.788 0-2.99.973-2.99 2.41 0 1.202.662 1.894 2.193 2.281l1.085.282c1.166.293 1.694.75 1.694 1.471 0 .839-.838 1.455-1.976 1.455-1.202 0-2.046-.563-2.175-1.449H64.96zm11.336 2.211v-3.642l3.002-4.82h-1.202l-2.281 3.76h-.094l-2.281-3.76h-1.202l3.002 4.82v3.642h1.056zM105.495 25.02v-8.462h-1.226l-2.897 7.002h-.094l-2.896-7.002h-1.226v8.462h.985v-6.462h.07l2.669 6.403h.891l2.668-6.403h.071v6.462h.985zm7.4-.95h-4.187v-2.909h3.97v-.938h-3.97v-2.715h4.187v-.95h-5.242v8.462h5.242v-.95zm1.912-7.512v8.462h2.903c2.515 0 3.993-1.566 3.993-4.234 0-2.662-1.484-4.228-3.993-4.228h-2.903zm1.055.95h1.777c1.877 0 2.985 1.22 2.985 3.29 0 2.064-1.097 3.272-2.985 3.272h-1.777v-6.562zm8.726 7.512v-8.462h-1.055v8.462h1.055zm3.243-8.462h-1.056v5.553c0 1.807 1.261 3.108 3.361 3.108 2.099 0 3.36-1.301 3.36-3.108v-5.553h-1.056v5.483c0 1.279-.838 2.205-2.304 2.205-1.466 0-2.305-.926-2.305-2.205v-5.483zm16.191 8.462v-8.462h-1.226l-2.897 7.002h-.094l-2.896-7.002h-1.226v8.462h.985v-6.462h.071l2.668 6.403h.891l2.668-6.403h.071v6.462h.985z"/>
    <path stroke="#3E3E5F" stroke-opacity=".12" d="M88.571 1.001L88.571 41.033M153.623 1.001L153.623 41.033"/>
    <defs>
        <clipPath id="prefix__clip0">
            <path fill="#fff" d="M455.365 17.014H465.88100000000003V25.02H455.365z"/>
        </clipPath>
        <clipPath id="prefix__clip1">
            <path fill="#fff" d="M372.298 67.054H591.009V285.765H372.298z"/>
        </clipPath>
        <clipPath id="prefix__clip2">
            <path fill="#fff" d="M452.296 67.054H612.424V227.182H452.296z" transform="rotate(29.972 452.296 67.054)"/>
        </clipPath>
        <clipPath id="prefix__clip3">
            <path fill="#fff" d="M524.42 101.081H580.7829999999999V134.651H524.42z"/>
        </clipPath>
        <clipPath id="prefix__clip4">
            <path fill="#fff" d="M139.616 419.903H200.222V461.468H139.616z"/>
        </clipPath>
        <clipPath id="prefix__clip5">
            <path fill="#fff" d="M147.118 360.289H365.829V579H147.118z"/>
        </clipPath>
        <clipPath id="prefix__clip6">
            <path fill="#fff" d="M227.116 360.289H387.244V520.4169999999999H227.116z" transform="rotate(29.972 227.116 360.289)"/>
        </clipPath>
    </defs>
</svg>
